<svg width="150" height="150" viewBox="0 0 150 150" fill="none" xmlns="http://www.w3.org/2000/svg">
<g clip-path="url(#clip0_94_765)">
<rect width="150" height="150" rx="75" fill="#D9B7F3"/>
<path d="M141.561 128.09L141.53 208.577C141.53 210.094 141.248 211.635 140.646 213.042C140.278 213.903 139.801 214.724 139.215 215.459C138.855 215.921 138.448 216.351 138.003 216.75C136.868 217.758 135.492 218.517 134.022 218.939C132.551 219.37 130.995 219.479 129.485 219.299L26.8105 207.098C25.1838 206.903 23.5883 206.379 22.1335 205.581C20.6866 204.799 19.3884 203.751 18.2934 202.515C17.1985 201.287 16.3147 199.864 15.7125 198.331C15.1024 196.798 14.7661 195.14 14.7661 193.505V120.027C17.4566 116.1 21.8755 112.464 27.8508 109.437C33.7166 106.457 41.0762 104.064 49.7654 102.546C56.4289 101.381 63.8824 100.732 72.0398 100.732C82.2853 100.732 94.1499 102.75 105.217 106.097C114.422 108.882 123.072 112.581 129.759 116.804C135.289 120.285 139.481 124.125 141.561 128.09Z" fill="url(#paint0_linear_94_765)"/>
<path d="M99.0296 132.516C102.727 136.698 105.331 140.739 106.911 143.496C107.995 145.387 107.242 147.796 105.276 148.736L66.189 167.422C62.8806 169.002 59.1969 166.038 60.065 162.479C60.7377 159.702 61.7701 156.371 63.3264 152.71L35.1386 133.182C33.8238 132.272 33.7229 130.363 34.9399 129.325C37.2932 127.317 41.2015 124.139 45.7369 121.066C39.8617 117.927 34.7436 114.483 31.4799 112.143C29.7757 110.922 30.0963 108.318 32.0336 107.517C37.0938 105.424 43.03 103.722 49.7647 102.545C49.7647 102.717 49.7804 102.897 49.8116 103.085C50.4608 107.973 51.7122 112.494 53.339 116.631C53.6831 117.531 54.0507 118.407 54.4339 119.259C54.473 119.345 54.5121 119.423 54.5512 119.509C54.9344 120.37 55.3411 121.206 55.7557 122.035C55.7948 122.106 55.8339 122.176 55.8651 122.247C56.2953 123.076 56.7333 123.889 57.1791 124.679C57.2104 124.742 57.2495 124.796 57.2808 124.859C61.0974 131.53 65.704 136.88 69.7944 140.861C73.924 134.753 79.5942 128.371 87.3997 122.38C94.1571 116.154 100.742 110.625 105.216 106.096C112.953 108.436 120.298 111.423 126.415 114.824C127.975 115.692 128.03 117.918 126.516 118.862C119.393 123.31 107.421 130.285 99.0374 132.516H99.0296V132.516Z" fill="#616F93"/>
<path d="M141.561 128.09L141.53 208.577C141.53 210.094 141.248 211.635 140.646 213.042C140.278 213.903 139.801 214.724 139.215 215.459C138.855 215.921 138.448 216.351 138.003 216.75C136.868 217.758 135.492 218.517 134.022 218.939C132.551 219.37 130.995 219.479 129.485 219.299L26.8105 207.098C25.1838 206.903 23.5883 206.379 22.1335 205.581C20.6866 204.799 19.3884 203.751 18.2934 202.515C17.1985 201.287 16.3147 199.864 15.7125 198.331C15.1024 196.798 14.7661 195.14 14.7661 193.505V120.027C17.4566 116.1 21.8755 112.464 27.8508 109.437C33.7166 106.457 41.0762 104.064 49.7654 102.546C56.4289 101.381 63.8824 100.732 72.0398 100.732C82.2853 100.732 94.1499 102.75 105.217 106.097C114.422 108.882 123.072 112.581 129.759 116.804C135.289 120.285 139.481 124.125 141.561 128.09Z" stroke="#871C20" stroke-width="1.14295" stroke-miterlimit="10"/>
<path d="M99.8884 113.526C99.8884 128.615 88.2514 140.848 73.8974 140.848C59.5434 140.848 46.1006 125.62 46.1006 110.53C46.1006 95.4407 59.5426 86.2041 73.8974 86.2041C88.2514 86.2041 99.8884 98.437 99.8884 113.526Z" fill="#F5B2A0"/>
<path d="M129.706 110.894C129.706 110.894 108.879 125.05 96.2294 128.419C87.7435 130.678 82.0514 120.624 84.5956 118.281C95.0969 108.61 105.189 100.602 107.577 95.4741L129.706 110.894Z" fill="#747FA3" stroke="#871C20" stroke-width="1.14295" stroke-miterlimit="10" stroke-linecap="round" stroke-linejoin="round"/>
<path d="M60.0752 123.766C44.7561 118.756 29.5176 106.536 29.5176 106.536C29.5176 106.536 41.5792 100.811 52.4974 94.1729C52.9291 96.4363 51.2453 97.6133 51.6011 100.287C52.8251 109.419 56.1037 117.27 60.0752 123.766Z" fill="#747FA3" stroke="#871C20" stroke-width="1.14295" stroke-miterlimit="10" stroke-linecap="round" stroke-linejoin="round"/>
<path d="M78.6146 144.125C74.8347 149.058 71.3058 154.206 71.3058 154.206L34.3701 128.613C34.3701 128.613 44.3795 119.35 55.0732 113.702C61.1987 129.445 72.8317 139.747 78.6146 144.125Z" fill="#747FA3" stroke="#871C20" stroke-width="1.14295" stroke-miterlimit="10" stroke-linecap="round" stroke-linejoin="round"/>
<path d="M105.968 142.967L63.3841 163.323C60.0757 164.904 56.392 161.943 57.2602 158.38C59.6182 148.703 66.2051 132.404 84.5963 118.28C99.2804 127.803 105.968 142.967 105.968 142.967Z" fill="#747FA3" stroke="#871C20" stroke-width="1.14295" stroke-miterlimit="10" stroke-linecap="round" stroke-linejoin="round"/>
<path d="M124.016 103.01C121.925 103.939 119.83 104.874 117.738 105.804C117.738 105.804 117.737 105.804 117.737 105.805C117.737 105.805 117.737 105.805 117.737 105.805C117.068 106.068 116.648 106.835 116.729 107.522C116.728 107.508 116.729 107.496 116.729 107.482C116.733 107.517 116.733 107.552 116.737 107.588C116.736 107.572 116.732 107.557 116.731 107.541C116.737 107.63 116.749 107.714 116.764 107.8V107.799C116.768 107.824 116.772 107.848 116.778 107.87C116.795 107.953 116.811 108.018 116.842 108.122C117.558 110.33 120.537 112.312 122.842 111.806C123.509 111.66 124.107 111.092 124.18 110.39C124.184 110.364 124.185 110.336 124.187 110.31C124.184 110.336 124.184 110.364 124.18 110.39C124.191 110.314 124.195 110.251 124.198 110.205C124.263 108.719 124.492 103.338 124.492 103.338C124.493 103.115 124.226 102.93 124.016 103.01Z" fill="url(#paint1_linear_94_765)" stroke="#871C20" stroke-width="1.14295" stroke-miterlimit="10" stroke-linecap="round" stroke-linejoin="round"/>
<path d="M34.0459 99.5123C34.0459 99.5131 34.0459 99.5131 34.0459 99.5123C34.0459 99.5123 34.1124 104.898 34.1312 106.385C34.1327 106.431 34.1358 106.494 34.1444 106.57C34.1413 106.543 34.1405 106.517 34.139 106.49C34.1413 106.517 34.1413 106.545 34.1444 106.571C34.1961 107.274 34.7764 107.86 35.4388 108.026C37.7281 108.602 40.765 106.712 41.5479 104.526C41.5823 104.423 41.5995 104.358 41.619 104.276C41.6245 104.253 41.63 104.229 41.6355 104.205C41.6355 104.206 41.6355 104.206 41.6355 104.206C41.6527 104.12 41.6668 104.038 41.6761 103.948C41.6746 103.962 41.6707 103.979 41.6691 103.995C41.6738 103.959 41.6746 103.924 41.6801 103.889C41.6793 103.902 41.68 103.915 41.6785 103.928C41.7802 103.244 41.3836 102.464 40.7235 102.181C40.7235 102.181 40.7235 102.181 40.7228 102.181C40.7228 102.181 40.722 102.181 40.722 102.18C38.6596 101.187 36.594 100.188 34.5316 99.1971C34.3235 99.1119 34.0506 99.2886 34.0459 99.5123Z" fill="url(#paint2_linear_94_765)" stroke="#871C20" stroke-width="1.14295" stroke-miterlimit="10" stroke-linecap="round" stroke-linejoin="round"/>
<path d="M99.5604 142.757C99.5651 142.751 99.5706 142.745 99.5753 142.739C100.996 141.124 100.506 138.264 98.4201 137.029C98.4162 137.027 98.4107 137.024 98.406 137.021C98.4092 137.023 98.4131 137.025 98.417 137.027C98.3318 136.977 98.2457 136.927 98.1589 136.879C98.0736 136.835 97.9759 136.787 97.8859 136.746L97.8789 136.742C97.8781 136.742 97.8781 136.742 97.8773 136.741C97.8766 136.741 97.8766 136.74 97.8758 136.74C97.8328 136.724 97.7843 136.703 97.7405 136.684H97.7397C97.6591 136.653 97.559 136.614 97.4761 136.588C97.4222 136.573 97.3705 136.556 97.3166 136.54L97.3001 136.535C97.2986 136.535 97.297 136.534 97.2955 136.534C97.2939 136.533 97.2923 136.533 97.2908 136.532L97.272 136.528C97.1328 136.492 96.9936 136.46 96.852 136.439C96.8497 136.439 96.8473 136.438 96.845 136.437C96.6604 136.407 96.4743 136.39 96.2873 136.388C96.2881 136.388 96.2881 136.388 96.2889 136.388C96.2083 136.387 96.1286 136.385 96.048 136.389C96.0441 136.389 96.0402 136.389 96.0363 136.389C95.9213 136.398 95.8056 136.404 95.6906 136.42C95.6984 136.419 95.7078 136.417 95.7148 136.416C95.6257 136.427 95.5326 136.446 95.4442 136.459C95.4372 136.46 95.4278 136.463 95.4208 136.464C95.4129 136.466 95.4028 136.467 95.3949 136.469C95.2651 136.5 95.1361 136.532 95.0133 136.57L95.0203 136.568L95.0133 136.57C95.0102 136.571 95.0078 136.571 95.0055 136.573L94.8944 136.611L94.8545 136.625C94.8506 136.626 94.8459 136.629 94.842 136.63L94.8271 136.636C94.8248 136.636 94.8232 136.638 94.8209 136.639C94.8178 136.64 94.8154 136.641 94.8123 136.642L94.7966 136.647L94.7951 136.648C93.9856 137.026 93.4991 137.272 92.8672 138.413C92.7999 138.549 92.7577 138.653 92.7006 138.818C92.6912 138.838 92.6419 138.996 92.6232 139.08L92.606 139.142C92.6036 139.153 92.6013 139.167 92.5989 139.178C92.5958 139.19 92.5926 139.203 92.5895 139.214L92.588 139.221C92.588 139.222 92.5872 139.223 92.5872 139.224C92.5794 139.26 92.5731 139.303 92.5653 139.342C92.5528 139.396 92.5449 139.454 92.5371 139.51C92.5379 139.504 92.5395 139.496 92.5402 139.489C92.5395 139.493 92.5395 139.497 92.5395 139.5C92.5293 139.567 92.5215 139.64 92.516 139.722L92.5144 139.737C92.5144 139.748 92.5137 139.76 92.5137 139.771C92.5129 139.781 92.5113 139.794 92.5105 139.804V139.834C92.5066 139.902 92.5058 139.996 92.5066 140.068C92.5066 140.057 92.5074 140.042 92.5074 140.029C92.5066 140.156 92.5137 140.263 92.5238 140.358C92.5238 140.359 92.5238 140.361 92.5246 140.362C92.5254 140.368 92.5262 140.375 92.527 140.381C92.5262 140.375 92.5254 140.368 92.5246 140.362C92.5254 140.367 92.5254 140.372 92.5262 140.376L92.5293 140.398C92.5293 140.415 92.5332 140.431 92.5363 140.448C92.5465 140.531 92.5582 140.617 92.5708 140.689L92.5645 140.645C92.5692 140.678 92.5739 140.71 92.5809 140.74C92.5809 140.741 92.5809 140.741 92.5809 140.742C92.5809 140.744 92.5817 140.746 92.5825 140.747C92.6091 140.881 92.6271 140.959 92.6576 141.058C92.6849 141.162 92.7334 141.3 92.7827 141.424C92.7843 141.428 92.7858 141.432 92.7874 141.438C92.7929 141.453 92.8015 141.472 92.807 141.486C92.8038 141.478 92.8007 141.469 92.7968 141.46C92.8101 141.493 92.8242 141.525 92.8382 141.557L92.8515 141.591C92.8531 141.595 92.8554 141.599 92.857 141.603C92.8586 141.607 92.8601 141.611 92.8617 141.614L92.8813 141.654C92.9634 141.835 93.0549 141.986 93.1573 142.152L93.1659 142.164C93.6071 142.841 94.2476 143.382 94.9867 143.706C94.9914 143.708 94.9984 143.711 95.0031 143.714C95.0039 143.714 95.0039 143.714 95.0039 143.714C95.0047 143.714 95.0047 143.715 95.0055 143.715C95.0977 143.754 95.1838 143.787 95.2745 143.822C95.2721 143.822 95.269 143.821 95.2667 143.82L95.2761 143.823C96.7253 144.352 98.3834 144.084 99.4509 142.88C99.4893 142.842 99.5245 142.799 99.5604 142.757Z" fill="url(#paint3_radial_94_765)" stroke="#871C20" stroke-width="1.14295" stroke-miterlimit="10" stroke-linecap="round" stroke-linejoin="round"/>
<path d="M40.7316 128.922C41.1532 130.343 42.4319 131.214 43.8476 131.339L43.8562 131.341C43.8538 131.341 43.8515 131.34 43.8491 131.34C43.9391 131.346 44.0235 131.352 44.1158 131.355C44.1166 131.355 44.1166 131.355 44.1174 131.355C44.1182 131.355 44.1182 131.355 44.1182 131.355C44.1237 131.355 44.1299 131.355 44.1354 131.355C44.8792 131.373 45.6245 131.172 46.2572 130.779L46.269 130.772C46.4191 130.674 46.5544 130.584 46.6937 130.465L46.7257 130.44C46.7281 130.437 46.732 130.434 46.7343 130.432C46.7374 130.429 46.7406 130.426 46.7437 130.424L46.768 130.401C46.793 130.379 46.8172 130.358 46.8407 130.336C46.8344 130.342 46.8282 130.349 46.8227 130.354C46.8337 130.343 46.8477 130.331 46.8579 130.321C46.8618 130.317 46.8641 130.315 46.8673 130.311C46.9564 130.228 47.0503 130.131 47.1144 130.056C47.1786 129.985 47.2239 129.926 47.2982 129.825C47.299 129.823 47.3006 129.823 47.3014 129.821C47.3021 129.82 47.3013 129.82 47.3021 129.819C47.3193 129.797 47.3365 129.772 47.353 129.747L47.3311 129.78C47.3694 129.725 47.4132 129.657 47.4538 129.593C47.4632 129.579 47.4726 129.567 47.4797 129.553L47.4906 129.536C47.493 129.532 47.4945 129.528 47.4969 129.525C47.4938 129.529 47.4906 129.535 47.4875 129.539C47.4906 129.535 47.4938 129.529 47.4969 129.525C47.4977 129.524 47.4984 129.522 47.4984 129.522C47.5446 129.446 47.5923 129.36 47.6408 129.253C47.6361 129.263 47.6306 129.276 47.6259 129.286C47.6548 129.227 47.6908 129.148 47.7143 129.089L47.7252 129.064C47.7284 129.055 47.7323 129.044 47.7354 129.036C47.7393 129.026 47.744 129.015 47.7479 129.007L47.7526 128.994C47.78 128.922 47.8019 128.859 47.8191 128.8C47.8199 128.796 47.8214 128.792 47.8222 128.789C47.8207 128.796 47.8183 128.803 47.8168 128.808C47.8316 128.759 47.848 128.707 47.859 128.657C47.8676 128.623 47.8793 128.583 47.8871 128.55C47.8871 128.549 47.8871 128.549 47.8871 128.548L47.8887 128.541C47.8903 128.53 47.8926 128.518 47.895 128.507C47.8973 128.496 47.9004 128.484 47.9028 128.474L47.9129 128.416C47.9302 128.337 47.9513 128.186 47.9513 128.165C47.9685 128.006 47.9732 127.902 47.9708 127.763C47.8895 126.564 47.5798 126.169 47.0519 125.537L47.0511 125.537L47.0401 125.526C47.0386 125.523 47.0362 125.522 47.0347 125.52C47.0331 125.519 47.0323 125.517 47.0307 125.515L47.0206 125.505C47.0182 125.502 47.0143 125.499 47.012 125.496L46.9838 125.469L46.9064 125.393C46.9048 125.392 46.9025 125.39 46.9009 125.388L46.8954 125.383L46.9001 125.388C46.8125 125.307 46.7171 125.231 46.6209 125.154C46.6147 125.15 46.6076 125.145 46.6014 125.14C46.5959 125.135 46.5889 125.131 46.5834 125.126C46.5146 125.081 46.4442 125.028 46.3746 124.984C46.38 124.988 46.3871 124.993 46.3933 124.997C46.3042 124.939 46.2103 124.889 46.1172 124.837C46.1141 124.835 46.111 124.833 46.1079 124.832C46.0422 124.797 45.9749 124.767 45.9076 124.737L45.9084 124.737C45.752 124.666 45.5893 124.607 45.4235 124.561C45.422 124.56 45.4196 124.56 45.4173 124.559C45.2906 124.521 45.1615 124.494 45.0317 124.47L45.0145 124.466C45.0129 124.466 45.0113 124.465 45.0098 124.465C45.0082 124.465 45.0067 124.464 45.0059 124.464L44.9902 124.462C44.9394 124.454 44.8893 124.448 44.8385 124.439C44.7587 124.429 44.6602 124.422 44.5812 124.417H44.5804C44.5366 124.414 44.4881 124.413 44.4459 124.41C44.4451 124.41 44.4451 124.41 44.4443 124.41C44.4435 124.41 44.4435 124.41 44.4428 124.41H44.4357C44.345 124.41 44.2449 124.411 44.1557 124.414C44.065 124.421 43.9727 124.429 43.882 124.438C43.8851 124.438 43.8898 124.437 43.8929 124.437C43.8882 124.437 43.8828 124.438 43.8781 124.439C41.6553 124.654 40.1302 126.85 40.6847 128.753C40.6863 128.76 40.6886 128.767 40.6902 128.773C40.7027 128.823 40.716 128.872 40.7316 128.922Z" fill="url(#paint4_radial_94_765)" stroke="#871C20" stroke-width="1.14295" stroke-miterlimit="10" stroke-linecap="round" stroke-linejoin="round"/>
<path d="M115.944 114.81C115.957 114.555 115.932 114.31 115.885 114.063C115.68 113.172 115.563 112.244 115.311 111.372C115.267 111.302 115.185 111.261 115.104 111.252C114.072 111.21 113.038 111.078 112.007 111.095C111.983 111.095 111.958 111.097 111.933 111.101C111.911 111.103 111.888 111.106 111.867 111.108C111.876 111.106 111.886 111.107 111.894 111.106C111.883 111.107 111.872 111.107 111.861 111.109H111.861H111.861C111.656 111.139 111.47 111.177 111.273 111.252C111.123 111.301 110.931 111.394 110.782 111.489C110.745 111.512 110.709 111.536 110.673 111.561C110.09 111.955 109.693 112.639 109.616 113.333C109.593 113.513 109.592 113.704 109.598 113.868C109.643 114.454 109.782 114.867 110.051 115.352C110.082 115.405 110.113 115.457 110.146 115.51C110.19 115.585 110.245 115.66 110.301 115.736C110.3 115.733 110.298 115.732 110.296 115.729C110.299 115.733 110.301 115.736 110.304 115.739C110.303 115.738 110.302 115.737 110.301 115.736C110.585 116.119 110.946 116.451 111.347 116.711C111.358 116.717 111.367 116.723 111.377 116.729C111.484 116.793 111.593 116.857 111.704 116.913C111.703 116.912 111.701 116.911 111.7 116.911C111.715 116.918 111.731 116.925 111.746 116.932C111.737 116.928 111.728 116.925 111.719 116.921C112.641 117.384 113.83 117.459 114.729 116.908C114.875 116.833 115.189 116.579 115.316 116.418C115.36 116.368 115.354 116.379 115.427 116.283C115.428 116.282 115.429 116.281 115.43 116.279C115.434 116.274 115.438 116.268 115.443 116.263C115.751 115.861 115.926 115.319 115.944 114.81Z" fill="url(#paint5_linear_94_765)" stroke="#871C20" stroke-width="1.14295" stroke-miterlimit="10" stroke-linecap="round" stroke-linejoin="round"/>
<path d="M43.9477 113.13C43.9516 113.134 43.9563 113.139 43.9602 113.143C43.961 113.144 43.9625 113.145 43.9633 113.146C44.04 113.223 44.0329 113.215 44.0775 113.254C44.2089 113.383 44.5178 113.575 44.6563 113.625C45.5197 114.017 46.5716 113.817 47.3428 113.301C47.3358 113.306 47.3272 113.309 47.3201 113.314C47.3326 113.306 47.3459 113.298 47.3585 113.29C47.3577 113.291 47.3569 113.291 47.3553 113.292C47.4476 113.23 47.5375 113.161 47.6259 113.091C47.6345 113.084 47.6424 113.079 47.6517 113.072C47.9802 112.795 48.2649 112.459 48.4753 112.085C48.4745 112.086 48.4745 112.086 48.4737 112.087C48.4753 112.084 48.4769 112.081 48.4792 112.078C48.4776 112.081 48.4769 112.082 48.4761 112.085C48.5183 112.011 48.559 111.938 48.5895 111.866C48.6129 111.816 48.6348 111.765 48.6567 111.714C48.8429 111.251 48.9211 110.867 48.8953 110.34C48.882 110.192 48.8609 110.022 48.8194 109.864C48.6739 109.253 48.243 108.688 47.6783 108.401C47.6447 108.383 47.6095 108.366 47.5735 108.349C47.4304 108.282 47.249 108.22 47.109 108.193C46.9252 108.148 46.7547 108.135 46.5685 108.13H46.5677C46.5677 108.13 46.5677 108.13 46.5685 108.13C46.5584 108.13 46.5482 108.132 46.5388 108.131C46.5466 108.131 46.5552 108.13 46.5638 108.13C46.5443 108.13 46.5239 108.131 46.5036 108.131C46.4817 108.13 46.4598 108.132 46.4371 108.134C45.515 108.234 44.607 108.467 43.6911 108.62C43.62 108.638 43.5519 108.683 43.5199 108.75C43.3932 109.556 43.3924 110.397 43.3095 111.214C43.2954 111.439 43.3001 111.662 43.3392 111.888C43.4112 112.341 43.6278 112.804 43.9477 113.13Z" fill="url(#paint6_linear_94_765)" stroke="#871C20" stroke-width="1.14295" stroke-miterlimit="10" stroke-linecap="round" stroke-linejoin="round"/>
<path d="M30.5254 63.7638C31.4616 70.0738 34.6581 76.035 39.4993 76.7999C44.3406 77.5648 48.4325 72.9614 48.639 66.5176C48.8455 60.0738 45.1211 54.0344 40.247 53.4658C33.0798 52.6297 29.5775 57.3724 30.5254 63.7638Z" fill="#FBD5BE"/>
<path d="M47.7938 60.8878C46.4392 56.9679 43.5806 54.1023 40.2473 53.4656C33.9099 52.2565 29.0639 57.0109 30.7353 64.9868C32.0633 71.3242 34.6583 76.0349 39.4996 76.7998C42.1501 77.2182 44.5762 76.0278 46.2632 73.8066" stroke="#871C20" stroke-width="1.14295" stroke-miterlimit="10" stroke-linecap="round" stroke-linejoin="round"/>
<path d="M118.962 75.381C118.683 96.6879 106.013 111.015 74.7887 110.518C51.8604 110.153 35.6521 95.3646 35.9313 74.0577C36.2105 52.7508 52.8725 32.994 75.8007 33.36C103.425 33.8003 119.241 54.0748 118.962 75.381Z" fill="#FBD5BE"/>
<path d="M118.962 75.381C118.683 96.6879 106.013 111.015 74.7887 110.518C51.8604 110.153 35.6521 95.3646 35.9313 74.0577C36.2105 52.7508 52.8725 32.994 75.8007 33.36C103.425 33.8003 119.241 54.0748 118.962 75.381Z" stroke="#871C20" stroke-width="1.14295" stroke-miterlimit="10" stroke-linecap="round" stroke-linejoin="round"/>
<path d="M57.71 71.1602C58.0854 72.2238 58.8456 73.5065 59.5651 74.3207C59.5729 74.3285 59.5808 74.3363 59.5886 74.3363C61.0824 76.0256 63.2332 77.0737 65.6734 77.058C67.5974 77.0424 69.451 76.3463 70.9839 75.1888C72.29 74.219 73.3615 72.9285 74.0497 71.4581" stroke="#871C20" stroke-width="1.14295" stroke-miterlimit="10" stroke-linecap="round" stroke-linejoin="round"/>
<path d="M70.9851 75.1889C70.9538 76.323 70.7113 77.4258 70.3281 78.5598C69.9058 79.7251 69.3426 80.9218 68.0209 81.5787C66.7695 82.2122 64.7204 82.1028 62.859 80.9218C61.0601 79.8034 59.4333 77.6369 59.5194 75.0951C59.5194 74.8292 59.535 74.5711 59.5663 74.3208C59.5741 74.3286 59.5819 74.3364 59.5898 74.3364C61.0836 76.0258 63.2344 77.0738 65.6746 77.0582C67.5985 77.0425 69.4521 76.3464 70.9851 75.1889Z" fill="white" stroke="#871C20" stroke-width="1.14295" stroke-miterlimit="10"/>
<path d="M88.4111 57.0982C96.9963 57.1311 108.082 60.721 113.593 56.2778" stroke="#871C20" stroke-width="4.57181" stroke-miterlimit="10" stroke-linecap="round" stroke-linejoin="round"/>
<path d="M77.6089 72.6958C77.0075 72.6919 76.4178 72.6418 75.8421 72.5488C74.9584 72.4072 74.1059 72.1647 73.2964 71.8347C71.1385 70.9548 69.2771 69.4454 67.8975 67.5237C67.3602 66.7753 66.8964 65.9642 66.5147 65.1023C66.2895 64.5916 66.0775 63.7814 65.297 63.7681C64.6799 63.7579 64.3061 64.5463 64.0644 65.0351C63.6835 65.8078 63.1016 66.9387 62.7051 67.4721C60.8241 70.0014 58.1196 71.5672 55.1304 71.5516C54.2208 71.5461 53.3417 71.3951 52.5072 71.1175C51.7853 70.8766 51.0971 70.5411 50.4511 70.1219C49.7644 69.6769 49.1254 69.1388 48.5466 68.5201C47.6582 67.5746 46.9073 66.4405 46.3341 65.1719C45.5606 63.4576 45.1108 61.4921 45.0843 59.3945C45.0757 58.7172 45.1116 58.0524 45.1891 57.4033C45.3486 56.0659 46.4076 55.1399 47.6316 55.082C49.2904 55.003 87.7919 55.4558 87.9679 55.4965C89.1856 55.7788 90.1195 56.7964 90.2133 58.1189C90.2321 58.3919 90.2438 58.6672 90.2485 58.9448C90.3619 66.586 84.6088 72.7443 77.6089 72.6958Z" fill="#871C20"/>
<path d="M48.6255 58.375L56.3629 58.4986" stroke="white" stroke-width="3.42885" stroke-miterlimit="10" stroke-linecap="round" stroke-linejoin="round"/>
<path d="M84.7173 58.8774L85.8717 58.8962" stroke="white" stroke-width="3.42885" stroke-miterlimit="10" stroke-linecap="round" stroke-linejoin="round"/>
<path d="M72.0376 58.7485L80.1191 58.8776" stroke="white" stroke-width="3.42885" stroke-miterlimit="10" stroke-linecap="round" stroke-linejoin="round"/>
<path d="M93.1951 14.2388C89.7475 13.0852 85.8613 13.0688 81.6488 14.0589C79.9517 14.4578 78.5517 14.719 77.2401 16.0893C75.8245 17.318 75.9559 32.3759 75.8487 40.5543C73.3499 40.8899 69.6224 40.5567 68.0769 40.3729C67.2284 40.272 66.5776 39.8927 66.221 39.3827C63.9498 36.1237 60.6852 22.2781 60.155 18.3597C60.0056 17.2546 60.0963 16.3904 60.5617 15.8805C62.4059 13.8634 67.8955 13.2111 71.727 13.0625C75.5961 12.9116 83.4015 13.2479 87.2823 13.2268V13.2276C89.2994 13.1885 91.3047 13.5537 93.1951 14.2388Z" fill="#871C20" stroke="#871C20" stroke-width="1.14295" stroke-miterlimit="10" stroke-linecap="round" stroke-linejoin="round"/>
<path d="M100.028 20.8823C99.265 23.5149 96.3125 37.4364 96.0818 37.9361C96.0756 37.9557 96.0693 37.9682 96.0693 37.9682C89.0804 35.5664 84.4754 36.0466 77.8775 39.9219C77.4481 40.2426 76.7247 40.4404 75.8472 40.5562C75.9559 32.3761 75.8214 17.3214 77.2432 16.0911C78.5501 14.7201 79.9532 14.4573 81.6504 14.0608C81.8295 14.0162 82.0156 13.9779 82.1947 13.9388C82.1947 13.9388 84.1938 16.1365 84.1938 20.5132C84.1938 20.5132 85.6344 15.1628 85.647 13.4202C88.3374 13.2028 90.8675 13.4648 93.1927 14.2399C95.3513 15.0212 97.3567 16.2194 99.0601 17.7179C99.0726 17.7242 99.0796 17.7304 99.0859 17.7375C99.1055 17.757 99.1305 17.7758 99.1563 17.7953C99.2204 17.8595 99.2908 17.9236 99.3487 17.9877C100.15 18.8262 100.29 19.8507 100.028 20.8823Z" fill="#F4736C" stroke="#871C20" stroke-width="1.14295" stroke-miterlimit="10" stroke-linecap="round" stroke-linejoin="round"/>
<path d="M99.3502 17.9871C99.2892 17.9229 99.2235 17.8596 99.1547 17.797C99.1539 17.797 99.1539 17.7963 99.1539 17.7963C99.1312 17.7759 99.1078 17.7556 99.0835 17.7352C99.0765 17.729 99.0702 17.7227 99.0632 17.7165C97.3543 16.2203 95.3482 15.0213 93.1943 14.24C91.3039 13.5541 89.2986 13.1889 87.2823 13.2288V13.228C83.4015 13.2491 75.5961 12.9135 71.727 13.0637C67.8963 13.2123 62.4059 13.8646 60.5617 15.8817C60.0963 16.3916 60.0056 17.2558 60.155 18.3609C60.6852 22.2793 63.9505 36.1249 66.221 39.3839C66.5769 39.8939 67.2283 40.2732 68.0769 40.3741C69.6216 40.5579 73.3499 40.8903 75.8487 40.5555C76.7239 40.4382 77.4481 40.2388 77.8759 39.9236C84.4738 36.049 89.0788 35.5641 96.0701 37.966C96.0701 37.966 96.0755 37.9558 96.0841 37.9355C96.3133 37.4349 99.265 23.515 100.027 20.8848C100.293 19.8493 100.151 18.8294 99.3502 17.9871Z" stroke="#871C20" stroke-width="1.14295" stroke-miterlimit="10" stroke-linecap="round" stroke-linejoin="round"/>
<path d="M124.481 63.5838C123.345 69.861 119.961 75.7174 115.098 76.3275C110.234 76.9383 106.291 72.2066 106.29 65.7597C106.288 59.3128 110.202 53.3946 115.093 52.9816C122.283 52.3739 125.633 57.2261 124.481 63.5838Z" fill="#FBD5BE"/>
<path d="M107.315 60.1598C108.794 56.2845 111.742 53.5111 115.094 52.9816C121.466 51.9743 126.158 56.8812 124.234 64.7992C122.705 71.0913 119.962 75.7174 115.098 76.3275C112.435 76.6614 110.048 75.3944 108.433 73.1208" stroke="#871C20" stroke-width="1.14295" stroke-miterlimit="10" stroke-linecap="round" stroke-linejoin="round"/>
<path d="M116.995 57.2559C112.178 60.7636 110.432 65.3866 112.3 69.6913" stroke="#871C20" stroke-width="1.14295" stroke-miterlimit="10" stroke-linecap="round" stroke-linejoin="round"/>
<path d="M116.214 65.1161C116.022 67.0549 114.241 68.6433 112.033 69.0055C111.13 66.3713 111.55 63.6473 113.173 61.1562C115.106 61.7076 116.396 63.2859 116.214 65.1161Z" fill="#871C20" stroke="#871C20" stroke-width="1.14295" stroke-miterlimit="10" stroke-linecap="round" stroke-linejoin="round"/>
<path d="M63.936 71.2112L60.2968 70.408C57.9364 69.945 56.319 67.9819 56.6843 66.0235C57.0495 64.0651 59.259 62.8529 61.6186 63.3159L66.1134 64.2473" fill="#FBD5BE"/>
<path d="M63.936 71.2112L60.2968 70.408C57.9364 69.945 56.319 67.9819 56.6843 66.0235C57.0495 64.0651 59.259 62.8529 61.6186 63.3159L66.1134 64.2473" stroke="#871C20" stroke-width="1.14295" stroke-miterlimit="10" stroke-linecap="round" stroke-linejoin="round"/>
<path d="M82.1943 13.9385C82.1943 13.9385 84.536 16.966 84.1934 20.5128C84.1934 20.5128 85.4635 15.3455 85.6466 13.4199L82.1943 13.9385Z" fill="#871C20" stroke="#871C20" stroke-width="1.14295" stroke-miterlimit="10" stroke-linecap="round" stroke-linejoin="round"/>
<path d="M94.1123 14.6016C94.1123 14.6016 95.4208 16.079 95.0587 18.8758C95.0587 18.8758 96.5932 17.0316 96.7292 15.9749L94.1123 14.6016Z" fill="#871C20" stroke="#871C20" stroke-width="1.14295" stroke-miterlimit="10" stroke-linecap="round" stroke-linejoin="round"/>
<path d="M75.2559 51.1387H82.5928" stroke="#871C20" stroke-width="1.14295" stroke-miterlimit="10" stroke-linecap="round" stroke-linejoin="round"/>
<path d="M51.8848 51.1387H59.2217" stroke="#871C20" stroke-width="1.14295" stroke-miterlimit="10" stroke-linecap="round" stroke-linejoin="round"/>
</g>
<defs>
<linearGradient id="paint0_linear_94_765" x1="138.264" y1="129.794" x2="20.9132" y2="200.454" gradientUnits="userSpaceOnUse">
<stop offset="0.4183" stop-color="#8D95B7"/>
<stop offset="0.7685" stop-color="#A6ACC5"/>
<stop offset="1" stop-color="#B2B6CC"/>
</linearGradient>
<linearGradient id="paint1_linear_94_765" x1="117.256" y1="109.268" x2="126.133" y2="106.597" gradientUnits="userSpaceOnUse">
<stop offset="0.0598" stop-color="#898CAA"/>
<stop offset="0.2066" stop-color="#9497B2"/>
<stop offset="0.4634" stop-color="#B1B3C7"/>
<stop offset="0.7972" stop-color="#DFE0E8"/>
<stop offset="1" stop-color="white"/>
</linearGradient>
<linearGradient id="paint2_linear_94_765" x1="41.0983" y1="105.659" x2="32.3061" y2="102.719" gradientUnits="userSpaceOnUse">
<stop offset="0.0598" stop-color="#898CAA"/>
<stop offset="0.2066" stop-color="#9497B2"/>
<stop offset="0.4634" stop-color="#B1B3C7"/>
<stop offset="0.7972" stop-color="#DFE0E8"/>
<stop offset="1" stop-color="white"/>
</linearGradient>
<radialGradient id="paint3_radial_94_765" cx="0" cy="0" r="1" gradientUnits="userSpaceOnUse" gradientTransform="translate(96.4447 140.236) scale(3.89403 3.89404)">
<stop offset="0.0921" stop-color="white"/>
<stop offset="0.2182" stop-color="#F8F8FA"/>
<stop offset="0.3985" stop-color="#E5E6ED"/>
<stop offset="0.6115" stop-color="#C6C8D6"/>
<stop offset="0.8477" stop-color="#9C9EB8"/>
<stop offset="0.9402" stop-color="#898CAA"/>
</radialGradient>
<radialGradient id="paint4_radial_94_765" cx="0" cy="0" r="1" gradientUnits="userSpaceOnUse" gradientTransform="translate(44.2744 127.887) rotate(-154.919) scale(3.58757 3.58757)">
<stop offset="0.0921" stop-color="white"/>
<stop offset="0.2182" stop-color="#F8F8FA"/>
<stop offset="0.3985" stop-color="#E5E6ED"/>
<stop offset="0.6115" stop-color="#C6C8D6"/>
<stop offset="0.8477" stop-color="#9C9EB8"/>
<stop offset="0.9402" stop-color="#898CAA"/>
</radialGradient>
<linearGradient id="paint5_linear_94_765" x1="109.913" y1="115.051" x2="116.305" y2="113.127" gradientUnits="userSpaceOnUse">
<stop offset="0.0598" stop-color="#898CAA"/>
<stop offset="0.2066" stop-color="#9497B2"/>
<stop offset="0.4634" stop-color="#B1B3C7"/>
<stop offset="0.7972" stop-color="#DFE0E8"/>
<stop offset="1" stop-color="white"/>
</linearGradient>
<linearGradient id="paint6_linear_94_765" x1="48.7463" y1="111.429" x2="42.8281" y2="110.428" gradientUnits="userSpaceOnUse">
<stop offset="0.0598" stop-color="#898CAA"/>
<stop offset="0.2066" stop-color="#9497B2"/>
<stop offset="0.4634" stop-color="#B1B3C7"/>
<stop offset="0.7972" stop-color="#DFE0E8"/>
<stop offset="1" stop-color="white"/>
</linearGradient>
<clipPath id="clip0_94_765">
<rect width="150" height="150" rx="75" fill="white"/>
</clipPath>
</defs>
</svg>
