<svg width="150" height="150" viewBox="0 0 150 150" fill="none" xmlns="http://www.w3.org/2000/svg">
<g clip-path="url(#clip0_94_3240)">
<rect width="150" height="150" rx="75" fill="#FF7171"/>
<path d="M100.67 95.3055L111.447 95.286C113.009 95.2829 114.555 94.9722 115.997 94.3716C117.439 93.771 118.748 92.8923 119.85 91.7856C120.953 90.679 121.826 89.366 122.421 87.9217C123.016 86.4775 123.321 84.9302 123.318 83.3682C123.311 80.2142 122.053 77.1919 119.819 74.9657C117.585 72.7396 114.558 71.4919 111.404 71.4971L100.627 71.5166" fill="#FFE8D9"/>
<path d="M100.67 95.3055L111.447 95.286C113.009 95.2829 114.555 94.9722 115.997 94.3716C117.439 93.771 118.748 92.8923 119.85 91.7856C120.953 90.679 121.826 89.366 122.421 87.9217C123.016 86.4775 123.321 84.9302 123.318 83.3682V83.3682C123.311 80.2142 122.053 77.1919 119.819 74.9657C117.585 72.7396 114.558 71.4919 111.404 71.4971L100.627 71.5166" stroke="#323854" stroke-width="2.49343" stroke-linecap="round" stroke-linejoin="round"/>
<path d="M112.421 144.924C116.496 144.893 119.776 141.477 119.769 137.277L119.617 57.0194C119.574 34.4227 108.517 16.8323 77.54 16.8908C49.2863 16.9453 35.5569 34.5668 35.5997 57.1791L35.7478 137.234C35.7478 139.3 36.5687 141.282 38.03 142.744C39.4913 144.205 41.4732 145.026 43.5397 145.026C59.6691 145.03 96.6381 145.037 112.421 144.924Z" fill="#FFD371"/>
<path d="M82.3939 17.0272C80.8355 16.9298 79.2069 16.8752 77.5239 16.8791C49.2702 16.9336 35.5407 34.5552 35.5836 57.1675L35.7472 137.234C35.7458 139.078 36.3984 140.863 37.589 142.271C38.7796 143.679 40.431 144.619 42.2496 144.924L42.0938 61.9401C42.047 37.1889 55.2272 17.8219 82.3939 17.0272Z" fill="#FFDD99"/>
<path d="M119.617 57.0078C119.578 36.0396 110.061 19.4037 83.9614 17.144C84.0273 17.2632 84.0609 17.3975 84.0588 17.5336C84.0237 29.8333 82.2627 42.2069 77.7512 53.7001C75.5227 59.3843 72.8851 64.9634 69.18 69.8333C65.884 74.1501 61.9841 77.9643 58.7466 82.3278V145.026C76.711 145.026 100.562 145.026 112.433 144.917C116.508 144.886 119.789 141.469 119.781 137.269L119.617 57.0078Z" fill="#F4BA5D"/>
<path d="M112.421 144.925C116.496 144.893 119.776 141.477 119.769 137.277L119.617 57.0194C119.574 34.4227 108.517 16.8323 77.54 16.8908C49.2863 16.9453 35.5569 34.5668 35.5997 57.1791L35.7478 137.234C35.7478 139.3 36.5687 141.282 38.03 142.744C39.4913 144.205 41.4732 145.026 43.5397 145.026C59.6691 145.03 96.6381 145.037 112.421 144.925Z" stroke="#323854" stroke-width="2.49343" stroke-linecap="round" stroke-linejoin="round"/>
<path d="M35.8125 137.133C36.9813 159.34 55.3587 172.501 77.858 172.458C100.357 172.415 118.696 159.211 119.767 136.973C112.836 129.921 96.6366 124.993 77.7683 125.028C58.9001 125.063 42.7162 130.069 35.8125 137.133Z" fill="white"/>
<path d="M77.8463 166.917C57.0924 166.956 39.8448 155.763 36.3891 136.587C36.1904 136.774 35.9995 136.977 35.8125 137.148C36.9813 159.355 55.3587 172.516 77.858 172.473C100.357 172.43 118.696 159.227 119.767 136.988C119.584 136.801 119.377 136.599 119.19 136.431C115.805 155.619 98.6002 166.878 77.8463 166.917Z" fill="#EFEFEF"/>
<path d="M35.8125 137.133C36.9813 159.34 55.3587 172.501 77.858 172.458C100.357 172.415 118.696 159.211 119.767 136.973C112.836 129.921 96.6366 124.993 77.7683 125.028C58.9001 125.063 42.7162 130.069 35.8125 137.133Z" stroke="#323854" stroke-width="2.49343" stroke-linecap="round" stroke-linejoin="round"/>
<path d="M77.8239 147.422C89.8781 147.398 100.514 140.343 106.958 129.559C99.0492 126.722 88.8768 125.028 77.7811 125.047C66.6853 125.067 56.5168 126.804 48.6196 129.668C55.0909 140.424 65.7464 147.441 77.8239 147.422Z" fill="#FFE8D9" stroke="#323854" stroke-width="2.49343" stroke-linecap="round" stroke-linejoin="round"/>
<path d="M70.3046 126.847L70.2617 105.63L85.2028 105.599L85.2418 126.816" fill="#FFE8D9"/>
<path d="M85.2252 124.576L85.1901 105.603L70.2529 105.63L70.2841 122.92C73.0074 125.795 79.015 125.581 85.2252 124.576Z" fill="#EABB9B"/>
<path d="M85.2418 126.816L85.2028 105.599L70.2617 105.63L70.3046 126.847" stroke="#323854" stroke-width="2.49343" stroke-linecap="round" stroke-linejoin="round"/>
<path d="M46.0933 124.47V130.642L46.1517 160.789C49.7169 164.238 53.9125 166.97 58.5098 168.834L58.4319 126.94L58.4085 114.727" fill="#FFD371"/>
<path d="M58.4403 126.94L58.5182 168.834C53.921 166.97 49.7254 164.238 46.1602 160.789C47.329 159.09 51.8834 162.889 54.1469 156.678C57.2949 148.041 58.1442 128.873 58.4403 126.94Z" fill="#F4BA5D"/>
<path d="M46.0933 124.47V130.642L46.1517 160.789C49.7169 164.238 53.9125 166.97 58.5098 168.834L58.4319 126.94L58.4085 114.727" stroke="#323854" stroke-width="2.49343" stroke-linecap="round" stroke-linejoin="round"/>
<path d="M50.6878 95.3987L38.7894 95.4221C35.6355 95.4273 32.6086 94.1796 30.3745 91.9535C28.1403 89.7273 26.8817 86.705 26.8755 83.551C26.8703 80.3971 28.118 77.3703 30.3442 75.1361C32.5703 72.9019 35.5926 71.6433 38.7466 71.6371L52.9241 71.6099" fill="#FFE8D9"/>
<path d="M28.8993 80.4811C28.897 78.7778 29.2624 77.094 29.9707 75.5449C28.4206 77.2499 27.3999 79.369 27.033 81.6438C26.666 83.9187 26.9686 86.2512 27.9039 88.3571C28.8391 90.4631 30.3667 92.2515 32.3005 93.5046C34.2343 94.7576 36.4908 95.4212 38.7951 95.4144L50.6934 95.391L50.9817 92.3288H40.8171C37.6665 92.335 34.6422 91.091 32.4079 88.8698C30.1735 86.6486 28.9117 83.6317 28.8993 80.4811Z" fill="#EABB9B"/>
<path d="M50.6878 95.3987L38.7894 95.4221C35.6355 95.4273 32.6086 94.1796 30.3745 91.9535C28.1403 89.7273 26.8817 86.705 26.8755 83.551C26.8703 80.3971 28.118 77.3703 30.3442 75.1361C32.5703 72.9019 35.5926 71.6433 38.7466 71.6371L52.9241 71.6099" stroke="#323854" stroke-width="2.49343" stroke-linecap="round" stroke-linejoin="round"/>
<path d="M32.1562 79.3394H32.242C34.1818 79.3363 36.0435 80.1036 37.4177 81.4727C38.7919 82.8418 39.5662 84.7006 39.5703 86.6404V87.2638" fill="#FFE8D9"/>
<path d="M32.1562 79.3394H32.242C34.1818 79.3363 36.0435 80.1036 37.4177 81.4727C38.7919 82.8418 39.5662 84.7006 39.5703 86.6404V87.2638" stroke="#323854" stroke-width="2.49343" stroke-linecap="round" stroke-linejoin="round"/>
<path d="M67.4061 42.5184C58.7414 42.5184 51.1793 48.2689 49.0443 56.4621C48.2916 59.3562 47.9144 62.3351 47.9223 65.3255L43.4497 70.3903L43.477 85.3703C43.512 104.948 60.031 121.237 80.0992 121.451C100.483 121.669 114.438 105.598 114.384 85.7677L114.345 65.2008C114.342 62.0292 113.905 58.8728 113.048 55.8193C110.823 47.8637 103.257 42.46 94.7988 42.46L67.4061 42.5184Z" fill="#FFE8D9"/>
<path d="M113.063 55.8232C110.822 47.8637 103.256 42.46 94.7982 42.46L67.4056 42.5106C66.8835 42.5106 66.3653 42.534 65.8472 42.5768C67.7952 60.6698 85.5297 75.1862 106.817 75.3888C109.345 75.4141 111.871 75.229 114.368 74.8356V65.2008C114.362 62.0301 113.923 58.8751 113.063 55.8232Z" fill="#EABB9B"/>
<path d="M81.5418 116.437C61.2554 116.219 44.4637 100.198 43.517 80.5938L43.4741 80.6795V85.3546C43.5092 104.932 60.0282 121.221 80.0964 121.435C95.6024 121.603 107.368 112.342 112.114 99.1737C106.122 109.662 95.2284 116.585 81.5418 116.437Z" fill="#EABB9B"/>
<path d="M48.0928 61.8037C47.9811 62.9309 47.924 64.0725 47.9214 65.2283L48.0967 64.8815L48.0928 61.8037Z" fill="#EABB9B"/>
<path d="M67.4061 42.5184C58.7414 42.5184 51.1793 48.2689 49.0443 56.4621C48.2916 59.3562 47.9144 62.3351 47.9223 65.3255L43.4497 70.3903L43.477 85.3703C43.512 104.948 60.031 121.237 80.0992 121.451C100.483 121.669 114.438 105.598 114.384 85.7677L114.345 65.2008C114.342 62.0292 113.905 58.8728 113.048 55.8193C110.823 47.8637 103.257 42.46 94.7988 42.46L67.4061 42.5184Z" stroke="#323854" stroke-width="2.49343" stroke-linecap="round" stroke-linejoin="round"/>
<path d="M67.5305 84.1398C68.9851 84.137 70.1619 82.9556 70.1591 81.501C70.1563 80.0465 68.9749 78.8696 67.5204 78.8724C66.0659 78.8752 64.889 80.0566 64.8918 81.5111C64.8946 82.9657 66.076 84.1425 67.5305 84.1398Z" fill="#444A54"/>
<path d="M104.409 84.0689C105.864 84.0661 107.041 82.8847 107.038 81.4302C107.035 79.9757 105.854 78.7988 104.399 78.8016C102.945 78.8044 101.768 79.9858 101.771 81.4403C101.773 82.8949 102.955 84.0717 104.409 84.0689Z" fill="#444A54"/>
<path d="M59.1641 73.8191C62.3666 71.5906 66.8586 70.4452 72.9052 70.8386" stroke="#323854" stroke-width="2.49343" stroke-linecap="round" stroke-linejoin="round"/>
<path d="M110.94 73.7213C107.73 71.5044 103.234 70.3746 97.1914 70.7915" stroke="#323854" stroke-width="2.49343" stroke-linecap="round" stroke-linejoin="round"/>
<path d="M72.9448 93.743C73.7377 96.4133 75.373 98.7554 77.6067 100.42C79.8404 102.084 82.5525 102.981 85.3379 102.977H85.899C88.6844 102.97 91.3931 102.063 93.6204 100.39C95.8478 98.7178 97.4743 96.3695 98.257 93.6963L72.9448 93.743Z" fill="#444A54" stroke="#323854" stroke-width="2.49343" stroke-miterlimit="10" stroke-linecap="round"/>
<path d="M67.0743 29.6035L67.6275 39.7331C67.7568 43.9782 67.0332 48.2062 65.4997 52.1668C63.9662 56.1274 61.6539 59.7403 58.6997 62.7915C55.7454 65.8428 52.2091 68.2705 48.3001 69.9311C44.391 71.5917 40.1886 72.4514 35.9415 72.4593H35.6104V66.5141" fill="#FFD371"/>
<path d="M67.6275 39.7331L67.0743 29.6035L63.7277 35.4475C65.3484 65.0881 35.6104 72.4593 35.6104 72.4593H35.9415C40.1886 72.4514 44.391 71.5917 48.3001 69.9311C52.2091 68.2705 55.7454 65.8428 58.6997 62.7915C61.6539 59.7403 63.9662 56.1274 65.4997 52.1668C67.0332 48.2062 67.7568 43.9782 67.6275 39.7331Z" fill="#F4BA5D"/>
<path d="M67.0743 29.6035L67.6275 39.7331C67.7568 43.9782 67.0332 48.2062 65.4997 52.1668C63.9662 56.1274 61.6539 59.7403 58.6997 62.7915C55.7454 65.8428 52.2091 68.2706 48.3001 69.9311C44.391 71.5917 40.1886 72.4514 35.9415 72.4593H35.6104V63.0077" stroke="#323854" stroke-width="2.49343" stroke-linecap="round" stroke-linejoin="round"/>
<path d="M119.643 71.4189L119.615 57.0038C119.573 34.4071 108.516 16.8167 77.5388 16.8751C66.9417 16.8946 64.2925 24.6126 65.1535 34.2473C67.0235 55.5467 85.3074 71.6488 106.685 71.5046L119.643 71.4189Z" fill="#FFD371"/>
<path d="M75.6091 20.1984C83.5686 21.0361 91.0294 23.21 98.1513 27.2774C117.76 38.4784 119.614 57.0077 119.614 57.0077C119.571 34.411 108.515 16.8206 77.5376 16.8791C73.7468 16.8791 70.9768 17.8842 69.021 19.6062C71.1989 19.7816 73.4079 19.9686 75.6091 20.1984Z" fill="#FFDD99"/>
<path d="M74.926 49.9986C70.543 46.0286 67.2275 41.3924 65.3535 36.125C68.0846 56.4854 85.9243 71.6525 106.655 71.5083L119.625 71.4187L119.601 58.2931C104.22 62.5554 87.2217 61.1606 74.926 49.9986Z" fill="#F4BA5D"/>
<path d="M119.643 71.4189L119.615 57.0038C119.573 34.4071 108.516 16.8167 77.5388 16.8751C66.9417 16.8946 64.2925 24.6126 65.1535 34.2473C67.0235 55.5467 85.3074 71.6488 106.685 71.5046L119.643 71.4189Z" stroke="#323854" stroke-width="2.49343" stroke-linecap="round" stroke-linejoin="round"/>
<path d="M85.6144 96.6143C84.1148 96.6172 82.6398 96.9964 81.3248 97.7173C80.0097 98.4381 78.8966 99.4775 78.0874 100.74C80.226 102.2 82.7563 102.978 85.3456 102.973H85.9066C88.4962 102.969 91.0238 102.181 93.1571 100.713C92.3433 99.4531 91.2263 98.4177 89.9085 97.7016C88.5907 96.9855 87.1142 96.6116 85.6144 96.6143Z" fill="#FF6161"/>
<path d="M85.6144 96.6143C84.1148 96.6172 82.6398 96.9964 81.3248 97.7173C80.0097 98.4381 78.8966 99.4775 78.0874 100.74C80.226 102.2 82.7563 102.978 85.3456 102.973H85.9066C88.4962 102.969 91.0238 102.181 93.1571 100.713C92.3433 99.4531 91.2263 98.4177 89.9085 97.7016C88.5907 96.9855 87.1142 96.6116 85.6144 96.6143Z" stroke="#323854" stroke-width="2.49343" stroke-linecap="round" stroke-linejoin="round"/>
<path d="M111.934 57.8222C97.9978 59.2092 82.2814 52.4691 74.9219 43.1538C76.3049 44.8174 99.899 57.1716 111.934 57.8222Z" fill="#F4BA5D"/>
<path d="M58.0498 85.4132C56.7524 87.3923 66.8157 94.8921 68.1014 91.9584C69.3871 89.0247 59.3471 83.434 58.0498 85.4132Z" fill="#FFF2EB"/>
</g>
<defs>
<clipPath id="clip0_94_3240">
<rect width="150" height="150" rx="75" fill="white"/>
</clipPath>
</defs>
</svg>
