<svg width="150" height="150" viewBox="0 0 150 150" fill="none" xmlns="http://www.w3.org/2000/svg">
<g clip-path="url(#clip0_94_3327)">
<rect width="150" height="150" rx="75" fill="#7F87CD"/>
<path d="M88.1672 151.052C82.8152 159.235 75.4085 165.278 65.0162 165.214C34.3066 164.975 56.6404 106.355 57.6162 103.834C57.9761 103.813 58.3734 103.852 58.5775 103.848L58.7224 103.881L96.8647 108.745L99.0818 109.043C99.7689 109.147 100.419 109.193 101.106 109.297C101.117 109.249 99.0224 134.466 88.1672 151.052Z" fill="#CD907F"/>
<path opacity="0.08" d="M88.1639 151.051L60.8758 163.314C57.3659 153.685 53.8559 144.057 50.346 134.429C53.0677 134.74 57.2882 134.932 62.2442 133.666C68.7054 132.029 72.8843 128.81 75.2325 126.955C76.8374 125.693 82.3206 121.195 86.9804 112.702C88.0074 110.853 88.9924 108.74 89.9135 106.46C94.298 95.3668 94.2157 85.3963 94.2661 81.8027C94.2803 80.8412 94.3412 80.3472 94.4487 80.3207C94.5562 80.2943 94.7103 80.7353 94.8675 81.8371C95.0776 83.154 95.3218 85.4432 95.5875 89.2099C95.6418 90.5423 95.707 91.8264 95.8096 93.1697C96.0969 98.4137 96.4543 103.572 96.8227 108.682L96.8118 108.73C96.8164 108.934 96.8319 109.09 96.8366 109.294C96.8505 109.907 96.9127 110.53 96.9157 111.191C97.0778 110.923 98.2388 109.154 100.087 109.064C100.339 109.071 100.688 109.099 101.074 109.186C101.112 109.245 99.018 134.464 88.1639 151.051Z" fill="url(#paint0_linear_94_3327)"/>
<path d="M175.158 215.282C171.898 216.678 168.637 218.073 165.355 219.565C163.322 220.476 161.288 221.387 159.313 222.261C154.664 224.409 150.075 226.519 145.571 228.699C140.509 221.667 135.179 213.355 130.142 203.74C126.525 196.831 123.552 190.219 121.092 184.029C116.688 204.862 112.294 225.647 107.89 246.481C107.868 246.577 107.846 246.674 107.835 246.722L31.8487 225.744C28.4865 222.649 25.065 219.592 21.7028 216.497L24.3701 194.814L26.9156 174.119C24.2203 179.754 21.4657 185.426 18.6409 191.184C17.5154 193.468 16.3899 195.752 15.2644 198.036C15.1022 198.304 14.9775 198.631 14.8154 198.899C11.3329 205.321 7.86141 211.694 4.33064 218.105C4.08747 218.507 3.89258 218.919 3.64941 219.321C1.82638 218.402 -0.130639 217.401 -2.07675 216.352C-3.92625 215.325 -5.86144 214.228 -7.8231 213.023C-9.38277 212.062 -10.9798 211.041 -12.566 209.972C-16.4456 207.369 -19.9653 204.746 -23.0986 202.211C-21.672 198.37 -19.2195 191.564 -16.2555 182.943L-16.2446 182.895C-15.8095 181.42 -15.2107 179.22 -14.3314 176.677C-12.398 170.819 -9.60105 163.837 -4.1279 153.55C3.60557 139.104 9.68352 127.938 20.9503 118.301C21.8231 117.584 22.8361 116.696 24.3011 115.606C33.2361 109.096 42.7064 106.058 50.6883 104.664C52.5427 104.322 55.5409 104.085 56.7128 103.842C56.7611 103.853 57.2286 103.807 57.7335 103.819C58.0935 103.799 58.4908 103.838 58.695 103.833L58.8399 103.866C59.0907 104.329 59.3415 104.792 59.5549 105.195C62.2061 110.312 66.0254 119.247 66.8802 130.964C67.6013 141.026 65.9495 149.232 64.4105 154.468C67.5132 153.545 84.8939 148.081 93.0518 130.634C97.0848 122.001 97.2858 113.924 96.9641 109.283C96.9595 109.079 96.9439 108.923 96.9393 108.719C97.734 108.797 98.4804 108.864 99.2159 108.98C99.9031 109.084 100.553 109.129 101.24 109.234C106.652 110 111.412 111.177 115.517 112.561C117.587 113.283 119.551 114.031 121.299 114.833C127.343 117.518 131.667 120.627 134.741 123.2C138.966 126.744 148.056 135.499 167.178 190.838C170.579 200.947 173.331 209.438 175.158 215.282Z" fill="#BDD3DE"/>
<path opacity="0.5" d="M9.93924 130.092L9.72737 130.806L3.52356 151.543L3.25713 152.498L-2.43566 171.422L-2.70206 172.377L-8.36213 191.155L-8.62857 192.111L-13.7621 209.231C-14.0783 209.058 -14.3353 208.847 -14.5924 208.637L-9.52434 191.807L-9.25794 190.851L-3.59786 172.073L-3.33143 171.118L2.36136 152.194L2.62776 151.239L8.21774 132.546C8.6602 131.935 9.05435 131.314 9.4859 130.751C9.64792 130.483 9.79903 130.263 9.93924 130.092Z" fill="white"/>
<path opacity="0.5" d="M36.6511 108.703L35.2661 113.265L34.9997 114.22L28.6167 135.526L28.3503 136.482L22.1356 157.267L21.8692 158.223L16.1764 177.146L15.91 178.101L10.3201 196.794L10.0536 197.749L3.96983 217.955L3.70343 218.911L3.54609 219.383C3.26723 219.269 2.95097 219.096 2.63472 218.923L2.70016 218.633L2.96656 217.678L9.05038 197.472L9.31678 196.517L14.9067 177.824L15.1732 176.869L20.8659 157.945L21.1323 156.99L27.347 136.204L27.6134 135.249L33.9964 113.943L34.2628 112.987L35.3658 109.225C35.8659 109.033 36.2585 108.868 36.6511 108.703Z" fill="white"/>
<path opacity="0.5" d="M61.0101 108.311L57.5063 120.01L57.2399 120.966L50.8569 142.272L50.5905 143.227L44.3649 164.061L44.0985 165.017L38.4057 183.94L38.1393 184.895L32.5821 203.443L32.3157 204.398L27.1932 221.47C26.947 221.211 26.6417 220.99 26.3955 220.731L31.3607 204.132L31.6271 203.176L37.1843 184.629L37.4507 183.673L43.1435 164.75L43.4099 163.795L49.6355 142.961L49.9019 142.005L56.2849 120.699L56.5513 119.744L60.3916 107.003C60.6051 107.407 60.8076 107.859 61.0101 108.311Z" fill="white"/>
<path opacity="0.5" d="M72.3811 151.294L66.4983 170.834L66.2319 171.79L60.5391 190.713L60.2727 191.668L54.7481 210.071L54.4817 211.027L48.3543 231.426L48.0879 232.381L46.1918 238.757C45.9457 238.498 45.6403 238.277 45.3942 238.018L47.1921 232.077L47.4585 231.122L53.5859 210.723L53.8523 209.767L59.3769 191.365L59.6433 190.409L65.3361 171.486L65.6025 170.531L71.1924 151.838C71.5741 151.721 71.9776 151.508 72.3811 151.294Z" fill="white"/>
<path opacity="0.5" d="M108.766 110.661L101.83 133.518L101.564 134.473L95.0953 155.709L94.7805 156.654L88.4256 177.611L88.1109 178.555L82.3698 197.468L82.1034 198.423L76.5742 216.621L76.3078 217.577L70.0619 238.051L69.7472 238.995L65.4566 253.056C65.1185 252.98 64.8396 252.866 64.5016 252.789L68.7922 238.729L69.0586 237.773L75.3045 217.299L75.5709 216.344L81.111 198.097L81.3774 197.142L87.1185 178.229L87.4332 177.285L93.7881 156.328L94.0546 155.373L100.523 134.136L100.79 133.181L107.715 110.373C108.139 110.519 108.477 110.595 108.766 110.661Z" fill="white"/>
<path opacity="0.5" d="M65.6253 122.503C65.6939 122.874 65.7624 123.244 65.831 123.615L57.1798 121.002L56.2245 120.736L34.9402 114.256L33.9849 113.99L29.0959 112.48C29.4996 112.267 29.8549 112.042 30.2695 111.781L34.2623 112.987L35.2177 113.253L56.5019 119.733L57.4573 119.999L65.6253 122.503Z" fill="white"/>
<path opacity="0.5" d="M151.212 149.587L143.274 147.186L142.33 146.872L123.139 141.017L122.183 140.75L101.516 134.461L100.561 134.194L92.4786 131.761C92.6516 131.445 92.7653 131.166 92.9383 130.849L100.876 133.25L101.831 133.517L122.498 139.806L123.454 140.073L142.645 145.928L143.6 146.194L150.679 148.35C150.844 148.743 151.058 149.146 151.212 149.587Z" fill="white"/>
<path opacity="0.5" d="M66.1146 146.883C66.0383 147.221 66.0102 147.57 65.9447 147.86L50.5531 143.167L49.5977 142.901L28.3134 136.421L27.3581 136.155L9.68009 130.794L9.43852 130.739C9.5897 130.52 9.7409 130.3 9.89208 130.08L9.94664 129.839L10.0433 129.861L27.6246 135.2L28.58 135.466L49.8643 141.946L50.8196 142.212L66.1146 146.883Z" fill="white"/>
<path opacity="0.5" d="M162.299 177.173L155.645 175.163L154.689 174.897L136.115 169.232L135.171 168.917L116.403 163.209L115.448 162.942L94.7809 156.653L93.8255 156.387L74.1028 150.412C74.5064 150.198 74.8618 149.974 75.2763 149.712L94.092 155.432L95.0474 155.698L115.715 161.987L116.67 162.254L135.437 167.962L136.393 168.229L154.918 173.883L155.874 174.149L161.815 175.947C162.028 176.35 162.145 176.732 162.299 177.173Z" fill="white"/>
<path opacity="0.5" d="M120.433 187.425C120.356 187.763 120.291 188.053 120.214 188.391L109.723 185.159L108.778 184.845L88.122 178.507L87.1775 178.192L66.2423 171.741L65.287 171.474L44.0135 164.946L43.0691 164.632L21.844 158.115L20.8995 157.8L3.23245 152.391L2.288 152.076L-2.55268 150.577C-2.37968 150.261 -2.21758 149.993 -2.04457 149.677L2.61376 151.084L3.5582 151.398L21.2253 156.808L22.1697 157.122L43.3948 163.639L44.3393 163.954L65.6127 170.482L66.5681 170.748L87.5516 177.211L88.496 177.526L109.152 183.863L110.097 184.178L120.433 187.425Z" fill="white"/>
<path opacity="0.5" d="M129.732 119.454L123.454 140.073L123.139 141.018L116.67 162.254L116.404 163.209L110.038 184.214L109.772 185.17L104.031 204.082L103.716 205.027L98.2194 223.08L97.953 224.036L91.6853 244.606L91.4189 245.562L87.2638 259.247C86.9257 259.17 86.6469 259.057 86.3088 258.98L90.4639 245.295L90.7303 244.34L96.998 223.769L97.2644 222.814L102.772 204.712L103.086 203.767L108.828 184.855L109.142 183.911L115.508 162.905L115.775 161.95L122.243 140.714L122.51 139.758L128.854 118.85C129.159 119.071 129.416 119.281 129.732 119.454Z" fill="white"/>
<path opacity="0.5" d="M145.977 138.81L143.589 146.243L143.274 147.187L136.43 168.287L136.115 169.232L129.303 190.187L128.989 191.132L126.969 197.378C126.767 196.926 126.553 196.523 126.351 196.071L128.045 190.817L128.359 189.872L135.171 168.917L135.486 167.973L142.33 146.872L142.645 145.928L145.337 137.599C145.55 138.003 145.775 138.358 145.977 138.81Z" fill="white"/>
<path opacity="0.17" d="M159.324 222.266C154.675 224.413 150.085 226.524 145.581 228.704C140.519 221.672 135.188 213.361 130.151 203.746C126.534 196.837 123.56 190.226 121.101 184.036C116.696 204.868 112.303 225.652 107.898 246.485C107.876 246.581 107.854 246.678 107.844 246.726L31.8543 225.75C28.4919 222.655 25.0703 219.598 21.708 216.503L24.3751 194.822L26.9205 174.128C24.2251 179.762 21.4705 185.434 18.6457 191.192C17.5201 193.476 16.3946 195.76 15.2691 198.043C15.107 198.311 14.9822 198.638 14.8201 198.906C11.3376 205.328 7.86598 211.701 4.33514 218.111L-2.0725 216.359L-8.09367 214.694C-8.09367 214.694 -8.01097 214.104 -7.8191 213.03C-5.93776 202.237 5.75142 142.441 32.5695 140.378C62.0742 138.11 51.4106 180.118 111.936 166.178C147.817 157.94 157.448 192.603 159.324 222.266Z" fill="url(#paint1_linear_94_3327)"/>
<path opacity="0.32" d="M108.343 240.451C93.4314 235.456 75.0995 227.402 65.5982 215.759C59.3212 208.044 63.8559 190.892 72.3495 171.943C83.0288 172.529 93.7081 173.115 104.398 173.653C108.042 153.252 111.735 132.863 115.379 112.462C117.449 113.184 119.412 113.933 121.16 114.734C118.965 133.888 113.314 183.843 110.219 217.315C109.662 224.501 108.995 232.17 108.343 240.451Z" fill="url(#paint2_linear_94_3327)"/>
<path d="M96.8758 109.304C94.5352 110.449 91.1787 111.822 86.9702 112.697C84.9976 113.114 82.8537 113.39 80.5977 113.489C72.546 113.849 66.002 111.81 61.7185 109.877C60.7551 107.628 59.7746 105.68 58.9106 104.114C58.8733 104.055 58.8468 103.948 58.7612 103.877C59.2766 101.151 59.8403 98.4363 60.4149 95.6729C61.4767 90.5324 62.565 85.4994 63.728 80.5849C63.8482 80.0537 63.9575 79.5708 64.0668 79.0879C64.2116 79.1207 64.3192 79.0943 64.464 79.127C72.576 79.8458 80.7254 80.6238 88.8373 81.3426C90.6788 81.5054 92.4719 81.6573 94.2651 81.8093C94.4692 81.8047 94.7106 81.8593 94.9147 81.8547C95.0596 81.8875 95.1671 81.8611 95.312 81.8939C95.4261 84.3055 95.5294 86.7654 95.6326 89.2254C95.6865 90.5574 95.7513 91.8411 95.8535 93.184C96.1393 98.4264 96.4952 103.583 96.862 108.692L96.8511 108.74C96.8557 108.944 96.8712 109.1 96.8758 109.304Z" fill="#CD907F"/>
<path opacity="0.15" d="M72.3282 103.804C69.8074 104.401 66.7946 104.481 65.8226 104.515C63.0138 104.59 60.6305 104.355 58.9187 104.069C58.8813 104.01 58.8549 103.902 58.7692 103.832C59.2845 101.106 59.8482 98.3905 60.4227 95.6267C61.4844 90.4857 62.5725 85.4521 63.7353 80.537L64.4713 79.079C67.6099 79.7893 71.7907 80.3802 76.662 80.1627C80.1422 80.0365 83.1941 79.5595 85.7149 78.9624C86.2206 80.0922 89.1632 87.0533 85.7531 94.0489C82.1262 101.554 73.9298 103.456 72.3282 103.804Z" fill="#19233D"/>
<path d="M98.0254 74.0717C97.6139 74.9942 97.1651 75.8574 96.6679 76.7097C94.7383 80.0814 92.17 83.3596 89.1952 86.1904C80.6741 94.4696 68.9097 99.5786 60.363 95.6158C47.3232 89.5204 48.9622 65.4187 49.5059 57.6211C49.5902 56.574 49.6262 55.5159 49.7215 54.4204C49.7668 53.7706 49.823 53.0725 49.9166 52.4337C50.1743 49.4963 50.5877 46.5434 51.3766 43.7262C52.6177 39.1326 54.803 34.854 58.9029 31.3127C66.936 24.2942 79.591 22.4328 88.5489 27.047C94.5048 30.1195 98.4799 35.8922 100.485 42.7428C100.449 45.3747 100.297 48.7422 99.9646 53.1349C99.5614 59.1872 98.94 66.2057 98.0254 74.0717Z" fill="#CD907F"/>
<path d="M68.4949 80.0959C63.6951 73.478 59.3066 74.923 57.4816 76.0335C55.6305 75.463 50.5723 74.9292 47.9263 83.2657C45.2584 91.6989 54.6291 80.5669 57.3755 77.1771C60.7893 79.3699 73.8027 87.3869 68.4949 80.0959Z" fill="url(#paint3_linear_94_3327)"/>
<path d="M54.7267 84.8536C54.147 84.7227 53.6375 84.506 53.2246 84.3112C53.0905 84.2302 53.0267 84.0635 53.0594 83.9186C53.1405 83.7846 53.3073 83.7207 53.4522 83.7535C54.2297 84.1322 55.5122 84.5235 57.0332 84.3088C59.2258 84.0427 60.5631 82.619 61.0432 82.0676C61.1726 81.9445 61.3284 81.929 61.4624 82.01C61.5855 82.1393 61.6011 82.2951 61.52 82.4291C60.9698 83.0662 59.514 84.5647 57.1063 84.8837C56.246 85.0954 55.4513 85.0174 54.7267 84.8536Z" fill="black"/>
<path d="M64.0985 64.0196C64.9519 64.2126 65.8003 63.6771 65.9935 62.8235C66.1867 61.97 65.6515 61.1216 64.7981 60.9286C63.9447 60.7356 63.0963 61.271 62.9031 62.1246C62.7099 62.9782 63.2451 63.8266 64.0985 64.0196Z" fill="url(#paint4_linear_94_3327)"/>
<path d="M51.6239 62.8282C52.4773 63.0212 53.3257 62.4857 53.5189 61.6322C53.7121 60.7786 53.1769 59.9302 52.3235 59.7372C51.4701 59.5442 50.6217 60.0796 50.4285 60.9332C50.2353 61.7868 50.7705 62.6352 51.6239 62.8282Z" fill="url(#paint5_linear_94_3327)"/>
<path d="M58.6579 57.7659C57.5577 59.0405 55.9823 61.0708 54.2759 63.6807C51.6407 67.7056 50.3659 69.753 51.0963 71.2383C52.3283 73.6493 58.1364 72.8804 58.5072 72.8119C58.5253 67.7893 58.5916 62.7776 58.6579 57.7659Z" fill="#A2625E"/>
<path d="M73.5934 54.1295L62.7563 51.5303L62.3521 53.3171L73.1891 55.9163L73.5934 54.1295Z" fill="url(#paint6_linear_94_3327)"/>
<path d="M55.2318 53.591L49.7018 54.4729C49.7473 53.8232 49.8038 53.1253 49.8976 52.4865L54.9492 51.6996L55.2318 53.591Z" fill="url(#paint7_linear_94_3327)"/>
<path d="M98.2072 72.5877C98.1464 73.0817 98.0855 73.5756 98.0247 74.0695C97.2099 81.0438 96.3938 86.9009 95.7822 91.1796L95.7448 91.1204C95.237 90.4471 94.617 89.5962 93.9705 88.6378C93.0889 87.3724 92.1651 85.8436 91.2259 84.1591C90.7617 83.2926 90.2602 82.3669 89.7696 81.393C89.3163 80.4782 88.874 79.5152 88.4426 78.5038C87.8196 76.9923 87.2449 75.4916 86.7559 74.0611C85.4915 70.2215 84.7255 66.6468 84.2432 63.3901C84.002 61.7618 83.7872 60.2409 83.6208 58.731C82.745 51.3746 82.3565 45.9053 77.6048 42.4452C74.9906 40.5344 69.3783 38.8598 64.0149 39.6784C57.2383 40.6852 54.9827 45.0492 51.6516 43.8394C51.555 43.8176 51.4693 43.7475 51.3727 43.7256C47.099 41.7444 44.8681 31.8478 48.8003 27.2535C51.082 24.5707 54.8855 24.3642 58.5971 24.34C80.2869 24.0638 92.5981 23.9524 98.3741 32.3148C99.854 34.5277 100.566 36.7701 100.485 42.7426C100.449 45.3744 100.297 48.7416 99.964 53.1341C99.9531 53.1824 99.9531 53.1824 99.9531 53.1824L98.2072 72.5877Z" fill="url(#paint8_linear_94_3327)"/>
<path d="M93.3879 68.5542C92.1475 72.6899 87.7562 75.0465 83.6205 73.8061C80.4397 72.8325 78.3237 70.0693 78.0619 66.9643C77.9689 66.0295 78.0908 65.0418 78.3686 64.0386C79.6091 59.9029 84.0004 57.5462 88.1361 58.7867C88.9944 59.0317 89.7233 59.3997 90.4194 59.9126C93.0919 61.7864 94.3943 65.2285 93.3879 68.5542Z" fill="#CD907F"/>
<path opacity="0.09" d="M90.4275 59.8637L78.0697 66.9152C77.9766 65.9804 78.0986 64.9928 78.3764 63.9896C79.6169 59.854 84.0083 57.4974 88.1441 58.7378C88.9915 59.0311 89.7687 59.41 90.4275 59.8637Z" fill="url(#paint9_linear_94_3327)"/>
</g>
<defs>
<linearGradient id="paint0_linear_94_3327" x1="56.1032" y1="115.323" x2="97.8625" y2="127.86" gradientUnits="userSpaceOnUse">
<stop offset="0.00194495" stop-color="#19233D" stop-opacity="0.5"/>
<stop offset="0.8362" stop-color="#F07125"/>
</linearGradient>
<linearGradient id="paint1_linear_94_3327" x1="2.62694" y1="172.771" x2="160.003" y2="220.043" gradientUnits="userSpaceOnUse">
<stop offset="0.1948" stop-color="#87AEB4"/>
<stop offset="1" stop-color="#153E5C"/>
</linearGradient>
<linearGradient id="paint2_linear_94_3327" x1="73.0149" y1="164.838" x2="126.258" y2="180.821" gradientUnits="userSpaceOnUse">
<stop stop-color="#5A142A" stop-opacity="0.2"/>
<stop offset="1" stop-color="#FC860A" stop-opacity="0.2"/>
</linearGradient>
<linearGradient id="paint3_linear_94_3327" x1="49.2108" y1="79.059" x2="69.0561" y2="85.0198" gradientUnits="userSpaceOnUse">
<stop offset="0.000555701"/>
<stop offset="0.8106"/>
</linearGradient>
<linearGradient id="paint4_linear_94_3327" x1="62.9287" y1="62.0371" x2="65.9289" y2="62.939" gradientUnits="userSpaceOnUse">
<stop offset="0.000555701"/>
<stop offset="0.8106"/>
</linearGradient>
<linearGradient id="paint5_linear_94_3327" x1="50.4606" y1="60.8447" x2="53.4609" y2="61.7467" gradientUnits="userSpaceOnUse">
<stop offset="0.000555701"/>
<stop offset="0.8106"/>
</linearGradient>
<linearGradient id="paint6_linear_94_3327" x1="62.596" y1="52.1134" x2="73.3509" y2="55.346" gradientUnits="userSpaceOnUse">
<stop offset="0.000555701"/>
<stop offset="0.8106"/>
</linearGradient>
<linearGradient id="paint7_linear_94_3327" x1="49.942" y1="52.3628" x2="55.1508" y2="53.9289" gradientUnits="userSpaceOnUse">
<stop offset="0.000555701"/>
<stop offset="0.8106"/>
</linearGradient>
<linearGradient id="paint8_linear_94_3327" x1="43.1467" y1="43.8608" x2="104.455" y2="62.2729" gradientUnits="userSpaceOnUse">
<stop stop-color="#002544"/>
<stop offset="0.1924" stop-color="#00172A"/>
<stop offset="0.4174" stop-color="#000A13"/>
<stop offset="0.6287" stop-color="#000305"/>
<stop offset="0.8106"/>
</linearGradient>
<linearGradient id="paint9_linear_94_3327" x1="79.099" y1="61.6491" x2="85.3772" y2="63.5364" gradientUnits="userSpaceOnUse">
<stop offset="0.00308041" stop-color="#F07125"/>
<stop offset="0.4448" stop-color="#19233D" stop-opacity="0.5"/>
</linearGradient>
<clipPath id="clip0_94_3327">
<rect width="150" height="150" rx="75" fill="white"/>
</clipPath>
</defs>
</svg>
