<svg width="150" height="150" viewBox="0 0 150 150" fill="none" xmlns="http://www.w3.org/2000/svg">
<g clip-path="url(#clip0_94_3325)">
<rect width="150" height="150" rx="75" fill="#A28676"/>
<path d="M80.3634 28.7808C79.6766 31.264 74.0235 53.084 86.2807 64.8658C87.76 66.2922 89.7149 67.7187 92.198 68.9339C90.613 70.6245 88.4997 73.3719 87.4431 77.2287C86.3864 81.0326 87.2317 83.0931 86.9675 88.9048C86.6505 97.041 85.0127 96.0372 85.541 100.37C86.4392 108.083 90.8772 113.102 94.1529 116.695C94.9982 117.646 95.6322 118.28 95.7907 118.438C106.833 129.533 111.641 148.078 121.732 151.723C131.559 155.316 148.677 145.489 152.322 131.224C153.96 124.884 153.273 116.219 148.412 110.091C142.442 102.589 134.2 103.751 132.827 98.2034C131.242 91.7049 141.967 87.1613 140.118 80.8213C138.638 75.9078 132.14 76.9645 125.324 68.4056C122.894 65.3412 120.517 62.3826 120.569 58.3673C120.622 53.6651 124.003 51.9217 124.109 46.5327C124.215 42.9929 122.788 40.3512 121.732 38.2379C116.607 27.9883 105.036 25.0297 103.399 24.6598C91.6169 21.8597 82.1597 27.6185 80.3634 28.7808Z" fill="url(#paint0_linear_94_3325)"/>
<path d="M63.7739 78.0208C73.3895 71.9978 56.8527 34.9619 56.8527 34.9619C37.0932 44.3134 32.7081 50.9175 33.1836 55.4611C33.6062 59.8991 38.5197 60.9029 39.3122 66.6617C40.4217 74.7452 31.6514 77.7038 31.5457 86.5798C31.4929 95.4029 40.2632 99.3653 38.4669 103.328C36.4592 107.766 25.6284 102.694 14.0052 106.603C-0.0483932 111.306 -12.4113 128.054 -11.0905 144.907C-10.9848 146.175 -9.50551 162.554 1.64225 168.154C11.839 173.279 17.1223 162.818 31.6514 167.414C38.7838 169.633 46.6031 175.022 55.9546 171.958C55.9546 171.958 56.0602 171.905 56.1659 171.852C75.4499 165.459 83.4277 142.583 83.956 126.68C84.6429 105.124 71.7516 90.0139 68.0533 85.9986C66.8382 83.3569 65.3589 80.6096 63.7739 78.0208Z" fill="url(#paint1_linear_94_3325)"/>
<path d="M120.569 133.39C120.199 135.504 119.724 137.3 119.46 138.515C119.46 138.568 119.407 138.674 119.407 138.726C119.301 139.255 119.143 139.836 118.984 140.417C117.611 145.859 112.274 164.139 90.4016 233.35C79.201 232.822 68.0532 232.294 56.8527 231.712C52.0449 231.395 47.2899 231.078 42.4821 230.761C42.9576 221.199 41.2669 215.229 39.5234 211.477C39.5234 211.477 36.7761 202.549 33.976 192.986C33.976 192.933 33.976 192.933 33.976 192.88C31.3872 183.899 28.6927 174.389 28.2172 170.902C28.1643 170.637 28.1644 170.426 28.1115 170.268C28.0059 169.211 28.0059 168.207 28.0059 167.309C28.0059 167.203 28.0059 167.098 28.0059 166.992C28.0059 166.834 28.0059 166.675 28.0059 166.517C28.0059 166.305 28.0058 166.147 28.0587 165.935C28.0587 165.777 28.1115 165.566 28.1115 165.407C28.1115 165.249 28.1644 165.037 28.1644 164.879C28.1644 164.72 28.2172 164.509 28.2172 164.35C28.4285 163.082 28.7455 161.973 29.1153 160.916C29.1682 160.758 29.221 160.546 29.3267 160.388C29.6437 159.543 30.0135 158.644 30.4362 157.799C30.489 157.693 30.5418 157.588 30.5418 157.482C30.8588 156.69 31.2287 155.897 31.5985 154.999C31.6513 154.893 31.7042 154.788 31.7042 154.682C32.0212 153.889 32.2853 153.044 32.6023 152.146C32.6552 151.987 32.708 151.829 32.708 151.723C32.8136 151.459 32.8665 151.142 32.9193 150.878C32.9722 150.719 32.9722 150.561 33.025 150.455C33.025 150.402 33.0778 150.297 33.0778 150.244C33.1306 150.138 33.1307 149.98 33.1835 149.874C33.5533 148.236 33.9231 146.387 34.1345 144.221C35.5081 134.394 34.1873 129.903 34.5043 126.839C34.5043 126.733 34.5043 126.68 34.5043 126.575C34.5043 126.416 34.5571 126.258 34.5571 126.099C34.5571 125.994 34.61 125.888 34.6628 125.729C34.6628 125.677 34.7157 125.571 34.7157 125.518C34.7685 125.412 34.7685 125.307 34.8213 125.201C34.8213 125.148 34.8741 125.043 34.927 124.99C34.9798 124.831 35.0855 124.673 35.1383 124.567C35.3496 124.197 35.561 123.88 35.878 123.51C37.4101 121.82 40.2103 120.552 45.5464 118.439C46.2332 118.174 46.9201 117.857 47.7126 117.593C47.7126 117.593 48.2937 117.382 50.09 116.695C50.5655 116.537 51.041 116.325 51.5165 116.114C56.2187 114.159 60.8151 111.412 63.5625 109.193C63.721 109.087 63.8795 108.929 64.038 108.823C64.355 108.559 64.6191 108.347 64.8305 108.136C66.4154 106.657 67.6306 104.808 68.4759 102.853C71.3817 96.2487 70.8534 87.9011 70.4307 84.0971L88.9223 77.5986C88.9223 78.1798 88.9223 78.761 88.9223 79.3421C88.9751 94.3467 91.5111 102.8 94.9453 107.502C95.0509 107.661 95.2094 107.819 95.3151 107.978C96.6887 109.721 98.1681 110.883 99.753 111.676C100.07 111.834 100.334 111.94 100.651 112.099C106.621 114.582 112.908 111.887 117.505 116.431C121.89 120.499 121.52 127.896 120.569 133.39Z" fill="#E2C8C0"/>
<path opacity="0.06" d="M81.9488 73.7423C85.3301 74.8518 86.017 83.0409 84.0621 88.9582C80.8393 98.6267 70.4312 102.166 68.6877 102.748C71.5936 96.1435 71.0652 87.7959 70.6426 83.9919C74.288 77.018 79.0958 72.7913 81.9488 73.7423Z" fill="#253041"/>
<path opacity="0.06" d="M62.6116 151.407C62.9815 148.395 63.4569 141.21 59.7586 133.285C55.4792 124.145 48.2939 119.76 45.7051 118.333C46.0749 118.175 46.3919 118.069 46.7617 117.911C47.1316 117.752 47.5014 117.647 47.8712 117.488C47.8712 117.488 48.4524 117.277 50.2487 116.59C50.7242 116.431 51.1997 116.22 51.6752 116.009C56.6415 118.598 59.2303 121.609 60.6568 123.881C64.6721 130.168 66.0986 136.032 66.0986 136.032C66.5213 137.829 66.8911 139.995 68.7402 141.421C70.6951 142.901 72.3857 142.108 73.1254 143.271C74.3934 145.384 70.9592 151.671 66.2571 152.147C64.7249 152.305 63.4041 151.777 62.6116 151.407Z" fill="#253041"/>
<path d="M121.785 116.272C121.415 121.978 120.992 127.684 120.623 133.338C120.623 133.338 120.623 133.337 120.623 133.39C120.517 133.866 120.411 134.289 120.358 134.764C120.094 136.032 119.777 137.3 119.513 138.515C119.513 138.568 119.46 138.674 119.46 138.726C119.249 139.677 119.09 140.364 119.038 140.417C118.932 140.893 119.038 142.161 120.041 145.278C118.932 151.459 117.664 157.746 116.29 164.192C114.969 170.585 113.49 177.083 111.905 183.687C110.743 188.548 109.528 193.514 108.207 198.481C107.309 201.862 106.41 205.243 105.512 208.519C104.773 211.16 104.033 213.749 103.293 216.338C101.603 222.15 99.912 227.803 98.1685 233.35C87.9189 233.139 79.5713 232.822 73.7068 232.558C69.6387 232.399 65.3064 232.135 56.9588 231.713C54.5813 231.607 52.2038 231.448 49.8791 231.343C47.4488 231.237 45.0185 231.079 42.641 230.973C42.641 230.92 42.641 230.814 42.641 230.761C42.641 230.55 42.641 230.286 42.641 230.022C42.5882 227.856 42.0599 224.474 41.1617 220.406C40.2635 216.338 39.1012 211.53 37.7804 206.564C36.6181 202.073 35.3501 197.424 34.1349 192.986C34.1349 192.933 34.1349 192.933 34.1349 192.88C31.3876 182.842 28.8516 174.019 28.3761 170.902C28.3233 170.638 28.3233 170.426 28.2705 170.268C28.1648 169.211 28.1648 168.207 28.1648 167.309C28.1648 167.203 28.1648 167.098 28.1648 166.992C28.1648 166.834 28.1648 166.675 28.1648 166.517C28.1648 166.305 28.1648 166.147 28.2176 165.935C28.2176 165.777 28.2705 165.566 28.2705 165.407C28.2705 165.249 28.3233 165.037 28.3233 164.879C28.3233 164.72 28.3761 164.509 28.3761 164.35C28.5875 163.082 28.9044 161.973 29.2743 160.916C29.3271 160.758 29.38 160.547 29.4856 160.388C29.8026 159.543 30.1724 158.645 30.5951 157.799C30.6479 157.694 30.7008 157.588 30.7008 157.482C31.0178 156.69 31.3876 155.897 31.7574 154.999C31.8103 154.893 31.8631 154.788 31.8631 154.682C32.1801 153.89 32.4443 153.044 32.7613 152.146C32.8141 151.988 32.8669 151.829 32.8669 151.723C32.9726 151.459 33.0254 151.142 33.0783 150.878C33.1311 150.72 33.1311 150.561 33.1839 150.455C33.1839 150.403 33.2367 150.297 33.2367 150.244C33.2896 150.138 33.2896 149.98 33.3424 149.874C33.7123 148.236 33.9764 146.599 34.2934 144.221C35.6671 134.394 34.3462 129.903 34.6632 126.839C34.6632 126.733 34.6632 126.681 34.6632 126.575C34.6632 126.416 34.7161 126.258 34.7161 126.099C34.7161 125.994 34.7689 125.888 34.8217 125.73C34.8217 125.677 34.8746 125.571 34.8746 125.518C34.9274 125.413 34.9274 125.307 34.9803 125.201C34.9803 125.148 35.0331 125.096 35.0331 124.99C35.0859 124.831 35.1916 124.673 35.2444 124.567C35.5086 124.145 35.7727 123.828 35.9841 123.511C36.8294 122.348 39.3125 118.967 43.6449 117.382C44.0147 117.223 44.4373 117.118 44.86 117.012C45.9695 116.748 47.8187 116.378 50.1962 116.695C54.687 120.076 60.6043 125.677 63.7742 134.13C65.8876 139.73 65.6762 143.481 67.8952 144.168C71.6463 145.278 76.0843 136.032 86.8094 124.673C92.2512 118.914 97.2703 114.74 100.704 112.099C101.972 111.676 104.403 111.042 107.52 111.042C109.105 111.042 110.901 111.2 112.803 111.729C114.441 112.151 115.973 112.838 116.132 112.891C116.185 112.944 116.237 112.944 116.343 112.997C116.449 113.05 116.502 113.102 116.607 113.102C116.66 113.102 116.713 113.155 116.766 113.155C119.038 114.053 120.675 115.321 121.785 116.272Z" fill="#8376A2"/>
<path d="M150.422 198.533C150.316 205.507 148.467 210.632 144.241 213.855C133.885 221.674 115.552 214.066 105.461 208.519C103.401 207.409 101.71 206.352 100.495 205.56C97.959 203.922 96.1098 202.39 94.789 200.805C93.3097 199.062 92.5172 197.371 92.2002 195.522C91.936 193.937 92.0945 192.246 92.5172 190.661C93.521 186.699 96.374 183.159 99.9138 181.944C102.503 181.045 105.039 181.732 109.952 183.106C110.639 183.317 111.273 183.476 111.854 183.687C118.881 185.959 121.417 188.389 122.949 187.227C124.904 185.748 122.896 180.306 120.572 173.649C119.145 169.528 117.613 166.464 116.239 164.192C113.967 160.441 111.96 158.908 111.114 158.274C108.895 156.689 108.05 156.742 106.993 155.897C103.876 153.414 103.031 146.176 110.269 127.05C111.854 122.876 113.809 118.121 116.186 112.732C116.239 112.785 116.292 112.785 116.398 112.838C116.503 112.891 116.556 112.944 116.662 112.944C116.715 112.944 116.768 112.997 116.82 112.997C117.771 113.472 119.145 114.159 120.572 115.11C128.602 120.393 132.406 128.582 134.467 134.394C134.784 135.345 135.101 136.19 135.312 136.983C143.871 163.611 150.581 184.638 150.422 198.533Z" fill="#8376A2"/>
<path opacity="0.21" d="M134.518 134.394C128.601 135.715 123.951 135.715 120.306 134.764C115.34 133.549 112.17 130.59 110.268 127.051C107.573 122.032 107.309 115.692 107.573 110.884C109.158 110.884 110.955 111.042 112.857 111.571C114.494 111.993 116.027 112.68 116.185 112.733C116.238 112.786 116.291 112.786 116.396 112.839C116.502 112.891 116.555 112.944 116.661 112.944C116.713 112.944 116.766 112.997 116.819 112.997C117.77 113.473 119.144 114.159 120.57 115.11C128.654 120.394 132.458 128.583 134.518 134.394Z" fill="url(#paint2_linear_94_3325)"/>
<path d="M95.4741 107.819C88.236 114.318 81.7903 117.593 76.2429 117.593C75.0805 117.593 73.971 117.435 72.8615 117.171C68.1594 115.903 65.3064 112.046 63.7214 109.087C63.8799 108.982 64.0384 108.823 64.1969 108.717C65.6763 111.57 68.4764 115.374 73.0201 116.59C79.043 118.227 86.4396 115.11 95.1043 107.344C95.2099 107.502 95.3684 107.661 95.4741 107.819Z" fill="#31445A"/>
<path d="M74.922 119.865C76.1766 119.865 77.1938 118.848 77.1938 117.593C77.1938 116.338 76.1766 115.321 74.922 115.321C73.6673 115.321 72.6501 116.338 72.6501 117.593C72.6501 118.848 73.6673 119.865 74.922 119.865Z" fill="#DF8744"/>
<path d="M95.7378 67.2434C95.1566 68.3 94.3641 69.7265 93.3603 71.3643C87.6015 80.6101 73.1781 98.4148 61.4492 95.0335C56.2187 93.5014 53.1544 88.2181 51.9921 86.1576C50.8826 84.2556 49.2448 80.7158 49.0334 71.9455C48.8749 65.9225 48.7164 58.2617 51.9921 48.9103C52.2562 48.1706 53.4714 44.7893 55.3734 40.7212C57.0112 37.3399 59.1774 33.4831 61.7662 30.3659C64.7248 26.8261 68.2118 24.2373 72.0686 24.343C76.7707 24.5015 80.152 28.5696 82.371 31.2641C82.4239 31.3698 82.7409 31.7396 83.1635 32.2679C84.4315 34.0642 86.9147 37.921 87.7072 42.3062C88.077 44.4195 88.077 46.6385 87.3902 48.8575C86.7562 50.8651 85.4882 53.0841 85.0127 57.1523C84.8013 59.1071 84.8014 60.7449 85.5939 62.4884C85.6995 62.7525 86.4392 64.2319 87.9713 65.447C91.1413 67.8774 94.9453 67.349 95.7378 67.2434Z" fill="#E2C8C0"/>
<path opacity="0.06" d="M87.8129 42.3593C83.9561 41.2498 76.1896 39.2422 71.329 39.6648C66.574 40.0875 59.3359 40.5102 55.4263 40.7215C57.0641 37.3402 59.2303 33.4834 61.8191 30.3662L83.2693 32.321C84.5372 34.1174 87.0204 37.9742 87.8129 42.3593Z" fill="#253041"/>
<path d="M73.074 65.236C74.0369 65.236 74.8175 64.4554 74.8175 63.4925C74.8175 62.5296 74.0369 61.749 73.074 61.749C72.1111 61.749 71.3306 62.5296 71.3306 63.4925C71.3306 64.4554 72.1111 65.236 73.074 65.236Z" fill="#000105"/>
<path d="M56.273 63.8092C57.2359 63.8092 58.0165 63.0287 58.0165 62.0657C58.0165 61.1028 57.2359 60.3223 56.273 60.3223C55.3101 60.3223 54.5295 61.1028 54.5295 62.0657C54.5295 63.0287 55.3101 63.8092 56.273 63.8092Z" fill="#000105"/>
<path d="M63.4043 84.9433C61.0268 84.9433 59.1776 83.9923 58.438 83.5696C58.2795 83.4639 58.2266 83.2526 58.3323 83.0941C58.438 82.9356 58.6493 82.8828 58.8078 82.9884C59.6532 83.5168 61.925 84.6263 64.8308 84.1508C68.1593 83.6224 70.0613 81.2449 70.5368 80.5581C70.6424 80.3996 70.8537 80.3996 71.0122 80.5053C71.1707 80.611 71.1708 80.8223 71.0651 80.9808C70.5368 81.7204 68.4763 84.2564 64.8836 84.8376C64.3553 84.8904 63.8798 84.9433 63.4043 84.9433Z" fill="#000105"/>
<path d="M63.4563 58.4209C62.7167 59.4776 61.7128 61.0097 60.6562 62.9117C57.9617 67.7195 56.588 70.2027 57.539 71.7877C58.7542 73.901 63.3507 73.3726 64.4073 73.2141C64.0375 68.3007 63.7733 63.3344 63.4563 58.4209Z" fill="#C0846F"/>
<path d="M99.4369 63.4926C95.8442 47.2729 89.6099 41.1971 84.2209 38.8196C72.3863 33.5363 59.6536 43.733 51.94 36.6534C48.2945 33.2721 47.2379 27.4076 48.7172 23.3395C51.5702 15.3617 64.3029 12.9842 72.7562 14.0937C87.6551 16.0486 99.9123 30.472 101.867 45.5294C102.871 53.243 100.916 59.6886 99.4369 63.4926Z" fill="#2A303D"/>
<path d="M77.9863 55.6211L67.7367 52.9266C67.5253 52.8737 67.3668 52.6624 67.4197 52.3982L67.6838 51.5001C67.7367 51.2887 67.948 51.1303 68.2122 51.1831L78.4618 53.8776C78.6731 53.9304 78.8316 54.1417 78.7788 54.4059L78.5146 55.3041C78.4089 55.5682 78.1976 55.6739 77.9863 55.6211Z" fill="#2A303D"/>
<path d="M57.0118 53.2966L47.3962 55.1458C47.1849 55.1986 46.9735 55.0401 46.9207 54.8288L46.7622 53.9306C46.7094 53.7193 46.8678 53.5079 47.0792 53.4551L56.6948 51.6059C56.9061 51.5531 57.1175 51.7116 57.1703 51.9229L57.3288 52.8211C57.3816 53.0324 57.2231 53.2438 57.0118 53.2966Z" fill="#2A303D"/>
<path d="M100.494 71.312C100.388 75.3801 96.9543 78.6029 92.8861 78.4444C88.818 78.3388 85.5952 74.9046 85.7537 70.8365C85.7537 70.678 85.7537 70.5723 85.7537 70.4138C86.0707 66.5042 89.3991 63.5455 93.3616 63.6512C95.3693 63.704 97.1656 64.6022 98.4864 65.923C99.7544 67.3495 100.547 69.2515 100.494 71.312Z" fill="#E2C8C0"/>
<path opacity="0.28" d="M98.4341 65.9757L85.7542 70.4665C86.0711 66.5569 89.3996 63.5982 93.3621 63.7039C95.3169 63.7567 97.1132 64.6021 98.4341 65.9757Z" fill="url(#paint3_linear_94_3325)"/>
<path d="M1.74761 107.343C1.74761 107.713 1.58912 108.083 1.32495 108.347C1.06079 108.611 0.690943 108.77 0.321112 108.77H-26.6765C-27.469 108.77 -28.103 108.136 -28.103 107.343C-28.103 106.974 -27.9445 106.604 -27.6804 106.34C-27.4162 106.075 -27.0464 105.917 -26.6765 105.917H0.321112C1.11361 105.97 1.74761 106.604 1.74761 107.343Z" fill="#BACFDA"/>
<path opacity="0.09" d="M1.74718 107.343C1.74718 107.713 1.58868 108.083 1.32452 108.347C1.06035 108.611 0.69051 108.77 0.320679 108.77H-1.1058C-2.42663 121.344 -3.74745 133.866 -5.01544 146.44H-14.5782C-20.9182 139.571 -21.3937 136.824 -20.654 135.609C-19.4917 133.707 -15.2122 135.081 -9.66475 132.122C-8.97792 131.752 -6.81177 130.484 -5.64944 128.054C-5.49094 127.737 -4.96261 126.522 -5.27961 126.31C-5.80794 125.888 -8.02692 129.269 -11.6724 131.118C-16.3745 133.496 -21.6578 132.386 -21.7107 131.858C-21.7635 131.435 -17.8539 131.435 -12.4649 129.058C-7.92126 127.05 -4.48712 124.25 -4.69846 123.88C-4.90979 123.51 -7.86842 125.254 -13.4687 126.892C-17.484 128.054 -22.7673 129.163 -23.0315 128.477C-23.19 127.948 -20.4427 126.575 -20.0728 126.363C-16.4274 124.514 -10.9856 123.14 -9.13642 122.718C-8.44959 122.559 -7.07594 122.189 -6.75894 121.238C-6.60044 120.763 -6.70611 120.129 -7.07594 119.759C-8.02693 118.808 -10.2987 120.076 -13.8914 121.291C-17.5897 122.559 -21.8692 123.457 -22.0805 122.982C-22.239 122.559 -19.5973 121.08 -18.0652 120.235C-12.0951 116.959 -9.98174 117.117 -9.50624 115.321C-9.03075 113.472 -10.7214 110.672 -10.5101 108.77C-10.5101 108.717 -10.4572 108.189 -10.3516 107.449C-10.2987 106.921 -10.2459 106.445 -10.1931 105.97H0.320679C1.11317 105.97 1.74718 106.604 1.74718 107.343Z" fill="#2A303D"/>
<path d="M49.0333 157.061C47.9767 162.397 46.2332 169.582 43.1161 177.771C39.9989 185.96 24.149 227.54 2.32899 227.434C-7.33945 227.382 -14.4719 219.14 -24.7215 206.618C-25.1442 206.09 -25.6197 205.509 -26.0951 204.98C-27.5216 203.237 -39.4619 188.232 -43.847 165.99C-44.2168 164.246 -44.4282 162.608 -44.6395 161.182C-45.8547 151.672 -43.7414 148.555 -42.1035 147.075C-39.3562 144.645 -34.9182 144.064 -31.4841 145.279C-25.197 147.498 -23.8233 155.159 -20.2307 163.612C-16.7437 171.801 -9.92824 183.689 -3.42979 189.13C-1.0523 191.138 1.32516 192.248 3.38565 191.983C11.3106 191.032 17.0694 170.48 23.4622 147.657C24.2018 145.015 26.368 136.931 32.3381 128.161C33.5005 126.471 34.5571 125.044 35.4025 124.04C35.561 123.829 35.7723 123.618 35.9308 123.406C40.3688 134.607 44.701 145.86 49.0333 157.061Z" fill="#8376A2"/>
<path opacity="0.4" d="M35.561 123.987C35.5082 137.248 34.0817 188.444 15.009 199.697C-0.0484412 208.573 -2.95424 197.161 -3.27124 189.078C-0.893756 191.085 1.48374 192.195 3.54423 191.931C11.4692 190.98 17.228 170.428 23.6208 147.604C24.3604 144.962 26.5266 136.879 32.4967 128.108C33.659 126.418 34.7157 124.991 35.561 123.987Z" fill="url(#paint4_linear_94_3325)"/>
<path d="M47.6084 133.179H47.5556L39.7891 132.492C39.3136 132.439 38.9966 132.07 39.0494 131.594C39.1023 131.119 39.4721 130.802 39.9476 130.854L47.7141 131.541C48.1896 131.594 48.5066 131.964 48.4537 132.439C48.4009 132.862 48.0311 133.179 47.6084 133.179Z" fill="#BACFDA"/>
<path d="M129.973 127.949C129.815 127.949 129.656 127.896 129.498 127.791L123.21 123.194C122.841 122.93 122.735 122.402 123.052 122.032C123.316 121.662 123.844 121.556 124.214 121.873L130.501 126.47C130.871 126.734 130.977 127.262 130.66 127.632C130.449 127.843 130.184 127.949 129.973 127.949Z" fill="#BACFDA"/>
<path d="M64.3551 149.769C64.0381 149.769 63.7739 149.61 63.6154 149.293C63.4041 148.871 63.5626 148.395 63.9853 148.184L70.9064 144.591C71.3291 144.38 71.8045 144.538 72.0159 144.961C72.2272 145.384 72.0687 145.859 71.646 146.071L64.7249 149.663C64.6193 149.769 64.5136 149.769 64.3551 149.769Z" fill="#BACFDA"/>
<path d="M137.528 143.852L133.249 146.071C133.143 146.123 132.984 146.176 132.879 146.176C132.562 146.176 132.298 146.018 132.139 145.754C131.928 145.331 132.086 144.855 132.509 144.644L137.053 142.267C137.211 142.742 137.37 143.323 137.528 143.852Z" fill="#BACFDA"/>
<path d="M89.1869 123.881C88.8699 123.881 88.6057 123.723 88.4472 123.458C88.2359 123.036 88.3944 122.56 88.817 122.349L95.7382 118.756C96.1608 118.545 96.6363 118.703 96.8477 119.126C97.059 119.549 96.9005 120.024 96.4778 120.236L89.5567 123.828C89.451 123.828 89.2925 123.881 89.1869 123.881Z" fill="#BACFDA"/>
<path d="M114.97 133.496H114.917L107.15 132.915C106.675 132.862 106.358 132.493 106.358 132.017C106.411 131.542 106.781 131.225 107.256 131.225L115.023 131.806C115.498 131.859 115.815 132.228 115.815 132.704C115.762 133.179 115.392 133.496 114.97 133.496Z" fill="#BACFDA"/>
<path d="M111.905 111.306C111.799 111.676 111.482 111.94 111.112 111.94H111.06L103.293 111.359C103.24 111.359 103.187 111.359 103.082 111.306C105.195 110.883 108.312 110.566 111.905 111.306Z" fill="#BACFDA"/>
<path d="M90.5081 140.1C90.3496 140.1 90.2439 140.047 90.0854 139.995L83.3228 136.085C82.9002 135.874 82.7945 135.345 83.0058 134.923C83.2171 134.5 83.7455 134.394 84.1681 134.606L90.9307 138.515C91.3534 138.727 91.4591 139.255 91.2478 139.678C91.0893 139.942 90.7723 140.1 90.5081 140.1Z" fill="#BACFDA"/>
</g>
<defs>
<linearGradient id="paint0_linear_94_3325" x1="78.4903" y1="88.1966" x2="153.124" y2="88.1966" gradientUnits="userSpaceOnUse">
<stop offset="0.3245" stop-color="#2A303D"/>
<stop offset="1" stop-color="#31445A"/>
</linearGradient>
<linearGradient id="paint1_linear_94_3325" x1="-11.2629" y1="103.887" x2="83.9742" y2="103.887" gradientUnits="userSpaceOnUse">
<stop offset="0.3245" stop-color="#2A303D"/>
<stop offset="1" stop-color="#31445A"/>
</linearGradient>
<linearGradient id="paint2_linear_94_3325" x1="107.498" y1="123.149" x2="134.497" y2="123.149" gradientUnits="userSpaceOnUse">
<stop stop-color="white"/>
<stop offset="1" stop-color="#9375A1"/>
</linearGradient>
<linearGradient id="paint3_linear_94_3325" x1="85.7407" y1="67.0565" x2="98.4324" y2="67.0565" gradientUnits="userSpaceOnUse">
<stop stop-color="#E2C8C0"/>
<stop offset="1" stop-color="#DD8093" stop-opacity="0.4"/>
</linearGradient>
<linearGradient id="paint4_linear_94_3325" x1="-3.29771" y1="163.451" x2="35.5517" y2="163.451" gradientUnits="userSpaceOnUse">
<stop stop-color="#302E40"/>
<stop offset="1" stop-color="#9375A1"/>
</linearGradient>
<clipPath id="clip0_94_3325">
<rect width="150" height="150" rx="75" fill="white"/>
</clipPath>
</defs>
</svg>
