<svg width="150" height="150" viewBox="0 0 150 150" fill="none" xmlns="http://www.w3.org/2000/svg">
<g clip-path="url(#clip0_94_898)">
<rect width="150" height="150" rx="75" fill="#DB90DD"/>
<path d="M22.3473 142.045C3.856 143.512 -4.0015 144.941 -14.4659 147.091C-12.7627 148.625 4.11787 160.5 12.2172 172.279C15.9191 177.662 -7.65523 193.474 -9.01086 192.699C-32.0515 179.517 -49.034 163.724 -54.8027 155.26C-59.7177 148.049 -60.2359 137.559 -55.3577 131.599C-46.7452 121.076 -25.0696 114.285 1.70287 110.81C18.5079 108.63 46.2654 105.679 63.2641 104.696C77.1154 103.895 90.5322 110.244 98.311 121.733C101.705 126.747 104.264 133.036 104.815 140.833C105.185 146.086 105.324 152.367 105.06 159.713C104.321 180.271 99.746 200.444 91.6367 219.325C78.6367 224.6 42.9416 232.328 3.30474 212.009C13.6891 196.942 18.101 179.372 19.1791 161.2C19.5585 154.801 18.6435 148.513 17.2891 142.496" fill="url(#paint0_linear_94_898)"/>
<path d="M17.2881 142.496C18.6425 148.513 19.5575 154.801 19.1781 161.199C18.1006 179.372 13.6881 196.941 3.30371 212.009C3.30371 212.009 24.8587 224.891 54.265 225.229C83.6719 225.567 91.6356 219.324 91.6356 219.324C99.745 200.443 104.32 180.271 105.059 159.713C105.322 152.366 105.172 146.086 104.814 140.833" stroke="#871C20" stroke-miterlimit="10" stroke-linecap="round" stroke-linejoin="round"/>
<path d="M-9.01138 192.699C-32.052 179.517 -49.0345 163.724 -54.8032 155.26C-59.7182 148.049 -60.2364 137.559 -55.3582 131.599C-46.7457 121.076 -25.0701 114.285 1.70239 110.811C23.8424 107.937 58.238 108.811 68.748 109.527" stroke="#871C20" stroke-miterlimit="10" stroke-linecap="round" stroke-linejoin="round"/>
<path d="M22.3468 142.045C3.85557 143.512 -4.00193 144.941 -14.4663 147.091C-12.7632 148.625 4.11744 160.5 12.2168 172.279" stroke="#871C20" stroke-miterlimit="10" stroke-linecap="round" stroke-linejoin="round"/>
<path d="M59.4462 157.113C59.9243 140.344 55.2443 129.908 55.2443 129.908C55.2443 129.908 36.3081 110.263 28.0674 108.818C16.5187 106.793 11.6449 109.812 11.6449 109.812C19.4193 112.444 25.5468 123.509 28.3493 134.979C33.5287 156.174 24.2843 159.112 18.4256 159.015C16.3924 158.981 15.0256 156.894 15.9018 154.281C13.9556 156.415 14.0868 159.401 14.1287 160.268C14.8424 174.958 4.47429 195.112 -0.616333 203.814C-3.40946 208.589 -5.58569 212.085 -5.46069 215.139C-5.33569 218.193 -2.91069 220.804 3.49744 223.813C12.6118 228.093 33.6093 232.082 38.6624 230.054C42.2168 228.628 58.3206 196.583 59.4462 157.113Z" fill="url(#paint1_linear_94_898)"/>
<path d="M59.4462 157.113C59.9243 140.344 55.2443 129.908 55.2443 129.908C55.2443 129.908 36.3081 110.263 28.0674 108.818C16.5187 106.793 11.6449 109.812 11.6449 109.812C19.4193 112.444 25.5468 123.509 28.3493 134.979C33.5287 156.174 24.2843 159.112 18.4256 159.015C16.3924 158.981 15.0256 156.894 15.9018 154.281C13.9556 156.415 14.0868 159.401 14.1287 160.268C14.8424 174.958 4.47429 195.112 -0.616333 203.814C-3.40946 208.589 -5.58569 212.085 -5.46069 215.139C-5.33569 218.193 -2.91069 220.804 3.49744 223.813C12.6118 228.093 33.6093 232.082 38.6624 230.054C42.2168 228.628 58.3206 196.583 59.4462 157.113Z" stroke="#871C20" stroke-miterlimit="10" stroke-linecap="round" stroke-linejoin="round"/>
<path d="M11.1064 175.24C10.7602 172.909 12.5539 170.408 14.8852 170.062C19.3814 169.395 24.5996 167.237 26.9533 163.691C30.8939 157.755 31.4058 148.027 28.3952 136.298C24.1952 119.933 18.2714 112.751 12.7608 110.129C10.6139 109.108 9.03895 108.818 9.51145 107.543C10.0908 105.98 12.3158 104.628 15.8058 104.628C28.1696 104.628 31.7739 115.128 36.6627 134.177C40.3345 148.482 39.4358 160.32 34.0639 168.411C30.3696 173.977 24.8139 177.775 17.8846 178.482C13.3083 178.949 11.4214 177.359 11.1064 175.24Z" fill="#FFD67B" stroke="#871C20" stroke-miterlimit="10"/>
<path d="M106.157 219.415C100.509 218.149 91.0815 217.46 84.9603 218.646C82.8784 217.019 84.0165 214.729 84.0165 214.729C100.475 171.802 87.4209 131.294 87.4209 131.294C86.3159 121.612 91.3046 113.959 94.5996 111.081C97.1934 108.819 96.0128 108.316 99.929 118.169C105.998 133.442 108.218 152.561 108.829 160.645C110.082 177.127 111.34 214.161 106.157 219.415Z" fill="url(#paint2_linear_94_898)" stroke="#871C20" stroke-miterlimit="10"/>
<path d="M166.053 182.255C157.295 192.326 137.63 202.301 107.453 203.349C105.725 203.414 103.963 203.444 102.166 203.444C96.2352 203.444 92.6026 203.219 89.5801 202.773C87.0951 202.409 85.0214 201.898 82.4277 201.24C74.8939 199.331 82.2501 171.081 90.0133 171.405C91.5026 171.466 93.0308 171.531 94.5851 171.583C99.5514 171.765 104.798 171.886 110.003 171.773C120.307 171.548 130.451 170.418 137.937 167.028C133.858 165.028 118.933 159.772 108.169 153.871C107.138 145.173 105.195 133.246 101.577 122.001C100.815 119.633 100.049 118.005 99.607 116.81C102.642 117.329 107.123 118.866 113.643 121.693C118.306 123.715 123.298 125.711 128.555 128.088C143.83 135.003 164.801 148.827 169.343 154.014C176.241 161.885 175.613 171.263 166.053 182.255Z" fill="url(#paint3_linear_94_898)"/>
<path d="M99.6064 116.811C107.065 118.522 123.299 125.711 128.554 128.089C143.829 135.001 164.803 148.827 169.347 154.015C176.24 161.885 175.614 171.262 166.054 182.255C156.795 192.904 135.344 203.444 102.166 203.444C91.3595 203.444 88.1782 202.697 82.4295 201.241C74.8963 199.333 82.2538 171.082 90.0157 171.407C105.689 172.064 125.493 172.66 137.938 167.029C133.862 165.032 118.933 159.772 108.171 153.872" stroke="#871C20" stroke-miterlimit="10" stroke-linecap="round" stroke-linejoin="round"/>
<path d="M108.122 154.978C107.201 145.018 105.77 140.911 102.765 129.202C98.5647 112.837 89.5678 104.386 82.7397 104.386C82.6566 104.386 76.5522 103.926 76.4803 101.571C76.4091 99.2147 80.8653 98.826 83.2209 98.7541C95.5678 98.3922 104.908 109.625 109.192 128.818C111.327 138.382 113.474 151.09 109.643 161.231C109.107 162.65 108.403 158.02 108.122 154.978Z" fill="#FFD67B" stroke="#871C20" stroke-miterlimit="10"/>
<path d="M101.55 109.904C102.068 101.366 89.9396 95.6088 59.104 96.8713C27.0658 98.1825 17.6877 101.618 24.3827 114.407C26.8077 119.039 37.7709 131.537 43.9615 135.57C46.8102 137.744 51.0533 139.249 54.2783 138.382C59.5177 136.974 61.9227 134.069 60.0627 122.539C59.5608 119.428 57.2534 115.756 53.8215 113.424C52.5459 112.557 52.9265 109.292 65.0046 108.188C72.394 107.513 81.3477 108.188 84.309 111.319L84.3115 111.323C82.0465 113.742 80.3452 116.915 79.9908 119.633C79.0508 126.834 80.8108 132.314 85.7852 133.204C89.5421 133.877 94.0521 129.44 96.024 126.411V126.411C98.0084 123.727 101.125 116.914 101.55 109.904Z" fill="#9090DD"/>
<path d="M96.9247 125.03C96.6059 125.567 96.3059 126.03 96.0247 126.411C94.0497 129.442 89.5434 133.873 85.7871 133.205C80.8121 132.311 79.0496 126.836 79.9871 119.636C80.3434 116.917 82.0434 113.742 84.3121 111.323L84.3059 111.317C83.8497 110.83 83.2434 110.405 82.5246 110.036L87.4996 108.773C87.4996 108.773 82.1603 117.532 83.3053 123.788C85.4259 135.372 96.514 125.44 96.9247 125.03Z" fill="url(#paint4_linear_94_898)"/>
<path d="M54.2811 138.38C51.0561 139.249 46.8124 137.742 43.9624 135.574C37.7686 131.536 26.8061 119.042 24.3811 114.405C19.4874 105.061 23.1812 100.711 38.0187 98.5361C36.9499 98.8049 27.4436 101.202 28.5061 107.749C29.618 114.599 37.4067 125.5 46.3255 130.694C54.838 135.651 60.6499 131.53 60.6499 127.78C61.0061 135.03 58.6124 137.217 54.2811 138.38Z" fill="url(#paint5_linear_94_898)"/>
<path d="M84.3057 111.318C81.347 108.189 72.3945 107.511 65.0026 108.189C53.357 109.256 52.5889 112.328 53.6939 113.32C53.4814 113.156 53.0138 112.816 52.347 112.451C50.132 111.236 50.2939 108.031 52.6264 107.06C55.6045 105.821 60.1145 104.688 66.8845 104.33C75.4889 103.877 80.6307 105.013 83.6176 106.255C85.6951 107.118 86.0607 109.911 84.3057 111.318Z" fill="#7575C6" stroke="#7575C6" stroke-miterlimit="10"/>
<path d="M98.8834 121.031C99.3415 119.963 99.9284 118.171 99.9284 118.171C100.746 115.631 101.375 112.784 101.55 109.904C102.068 101.365 89.9396 95.6083 59.104 96.8708C27.0658 98.182 17.6877 101.618 24.3827 114.406C24.3827 114.406 31.7877 125.867 38.6633 131.242" stroke="#871C20" stroke-miterlimit="10" stroke-linecap="round" stroke-linejoin="round"/>
<path d="M54.2783 138.382C59.5177 136.974 61.9227 134.07 60.0627 122.54C59.5608 119.429 57.2533 115.756 53.8214 113.424C52.5458 112.557 52.9264 109.292 65.0045 108.189C72.3939 107.513 81.3477 108.189 84.3089 111.319L84.3114 111.323C82.0464 113.742 80.3451 116.915 79.9907 119.634C79.0507 126.834 80.8108 132.314 85.7852 133.205C88.1333 133.625 91.1932 131.768 93.1514 129.839" stroke="#871C20" stroke-miterlimit="10" stroke-linecap="round" stroke-linejoin="round"/>
<path d="M43.7456 111.379C52.3912 109.495 59.1581 116.933 60.0625 122.54" stroke="#871C20" stroke-miterlimit="10" stroke-linecap="round" stroke-linejoin="round"/>
<path d="M88.7378 108.188C84.1834 109.966 80.734 115.406 79.9902 119.633" stroke="#871C20" stroke-miterlimit="10" stroke-linecap="round" stroke-linejoin="round"/>
<path d="M81.0689 129.642C77.8814 130.817 74.0439 131.592 69.8814 131.798C66.5627 131.961 63.4127 131.736 60.6064 131.205C60.8752 128.986 60.5439 126.198 60.5439 126.198C61.4252 126.48 62.3502 126.717 63.3127 126.911C63.3814 126.923 63.4502 126.936 63.5252 126.948C63.819 127.005 64.119 127.055 64.4252 127.098C64.719 127.148 65.019 127.186 65.319 127.217C65.419 127.236 65.5189 127.248 65.6189 127.248C65.8689 127.28 66.119 127.305 66.3752 127.323C66.4377 127.33 66.5065 127.336 66.569 127.342C66.8565 127.361 67.144 127.38 67.4315 127.392C67.494 127.392 67.5565 127.398 67.6252 127.398C67.969 127.411 68.3127 127.417 68.6627 127.417C68.9252 127.417 69.1877 127.411 69.4502 127.405C69.7127 127.398 69.9689 127.392 70.2314 127.373C70.4189 127.367 70.6064 127.355 70.8002 127.336C71.0002 127.323 71.2065 127.305 71.4065 127.286C71.7065 127.261 72.0002 127.223 72.2939 127.186C72.5439 127.155 72.7939 127.123 73.0377 127.08C73.5939 126.998 74.1377 126.892 74.6752 126.773C74.8314 126.736 74.9814 126.705 75.1377 126.667C75.2814 126.63 75.4252 126.598 75.5689 126.555C75.8814 126.48 76.1877 126.392 76.494 126.298C76.7502 126.223 77.0002 126.142 77.2439 126.055C77.7564 125.886 78.2502 125.692 78.7314 125.492C78.9439 125.405 79.1564 125.311 79.3627 125.211C79.5127 125.142 79.6689 125.067 79.8189 124.992C79.8189 124.992 80.0002 127.517 81.0689 129.642Z" fill="#CFDCE2" stroke="#871C20" stroke-miterlimit="10"/>
<path d="M79.9872 119.636C79.7372 121.561 79.6809 123.367 79.8184 124.992C79.6684 125.067 79.5122 125.142 79.3622 125.211C79.1559 125.311 78.9434 125.404 78.7309 125.492C78.2497 125.692 77.7559 125.886 77.2434 126.054C76.9997 126.142 76.7497 126.223 76.4934 126.298C76.1872 126.392 75.8809 126.479 75.5684 126.554C75.4247 126.598 75.2809 126.629 75.1372 126.667C74.9809 126.704 74.8309 126.736 74.6747 126.773C74.1372 126.892 73.5934 126.998 73.0372 127.079C72.7934 127.123 72.5434 127.154 72.2934 127.186C71.9997 127.223 71.7059 127.261 71.4059 127.286C71.2059 127.304 70.9997 127.323 70.7997 127.336C70.6059 127.354 70.4184 127.367 70.2309 127.373C69.9684 127.392 69.7122 127.398 69.4497 127.404C69.1872 127.411 68.9247 127.417 68.6622 127.417C68.3122 127.417 67.9684 127.411 67.6247 127.398C67.5559 127.398 67.4934 127.392 67.4309 127.392C67.1434 127.379 66.8559 127.361 66.5684 127.342C66.5059 127.336 66.4372 127.329 66.3747 127.323C66.1184 127.304 65.8684 127.279 65.6184 127.248C65.5184 127.248 65.4184 127.236 65.3184 127.217C65.0184 127.186 64.7184 127.148 64.4247 127.098C64.1184 127.054 63.8184 127.004 63.5247 126.948C63.4497 126.936 63.3809 126.923 63.3122 126.911C62.3497 126.717 61.4247 126.479 60.5434 126.198C60.4372 125.086 60.2809 123.873 60.0622 122.542C59.5622 119.429 57.2559 115.754 53.8184 113.423C52.9184 112.811 52.8434 111.011 57.0872 109.617C57.0622 109.479 57.0434 109.336 57.0247 109.192C57.0059 109.048 56.9809 108.898 56.9559 108.742C56.9559 108.723 56.9497 108.704 56.9497 108.686C56.8997 108.398 56.8559 108.104 56.8059 107.804L56.7872 107.673C56.0559 103.161 54.9497 97.0794 54.9497 97.0794L75.2809 90.5981L78.5184 100.761C78.9872 102.242 79.6497 104.829 80.0997 107.911C80.1309 108.129 80.1622 108.354 80.1934 108.579C80.2184 108.767 80.2434 108.954 80.2684 109.148C82.0122 109.673 83.4247 110.386 84.3059 111.317L84.3122 111.323C82.0434 113.742 80.3434 116.917 79.9872 119.636Z" fill="url(#paint6_linear_94_898)"/>
<path d="M57.3913 111.909C57.1494 109.18 54.9507 97.0788 54.9507 97.0788L75.28 90.5981L78.5207 100.763C79.15 102.737 80.1206 106.693 80.4681 111.161" stroke="#871C20" stroke-miterlimit="10" stroke-linecap="round" stroke-linejoin="round"/>
<path d="M56.7018 61.4539C73.0155 55.4039 91.6343 48.732 91.6343 48.732C90.6768 43.9433 86.6768 38.1408 79.6968 34.1702C71.2918 29.3883 60.8268 28.7877 52.0349 33.3377C36.8755 41.1833 33.1574 57.8589 34.6749 70.4802C34.9186 72.5045 37.0387 73.7964 38.668 73.8308H38.673C38.6543 73.0864 38.6636 72.3464 38.7061 71.607C38.7061 71.5264 38.7249 71.4458 38.7486 71.3652C38.8005 71.1995 38.8955 71.057 39.0049 70.9245C40.4368 69.3783 42.5093 68.5964 44.3774 67.7052C45.9518 67.0177 47.5543 66.4014 49.1712 65.8177C52.2012 64.7033 55.288 63.7883 58.3886 62.9014C57.4774 62.6233 56.978 62.0164 56.7018 61.4539Z" fill="url(#paint7_linear_94_898)" stroke="#871C20" stroke-miterlimit="10"/>
<path d="M124.231 28.1735C123.359 27.3679 122.216 26.7748 120.684 26.6848C113.221 26.2485 105.169 30.4354 99.4988 33.6123C91.8126 37.9179 84.4963 42.8254 77.5732 48.2592C71.2007 52.9392 64.5338 57.036 57.127 59.971C56.9182 60.0517 56.6626 60.151 56.3638 60.2554C56.082 60.3542 56.2907 58.4367 56.3301 58.3004C57.3094 54.8986 60.8088 52.9235 64.4238 50.3242C73.087 44.0929 92.5919 28.6767 106.747 24.8329C112.926 23.1548 119.786 22.8585 124.231 28.1735Z" fill="url(#paint8_linear_94_898)"/>
<path d="M123.363 39.8809C117.042 48.2266 98.2746 59.4641 95.989 60.4553C95.3346 59.0659 94.5759 57.724 93.7177 56.4534H93.7127C89.6302 51.6072 70.9434 59.4834 65.239 60.939C62.9584 61.6172 60.6727 62.2528 58.3871 62.9022C57.2034 62.5409 56.7103 61.6234 56.5053 60.9709C56.384 60.5834 56.5921 60.1697 56.969 60.0178C57.934 59.629 59.754 58.8759 60.6215 58.4778C66.6553 55.7122 72.2171 52.1916 77.5715 48.2597C84.494 42.8259 91.8109 37.9184 99.4971 33.6128C105.168 30.4359 113.22 26.2491 120.683 26.6853C123.779 26.8659 125.301 29.1178 126.159 31.0147C127.318 34.1672 125.208 37.4484 123.363 39.8809Z" fill="url(#paint9_linear_94_898)" stroke="#4E9365" stroke-miterlimit="10"/>
<path d="M96.9745 62.817C96.937 62.8357 96.912 62.8482 96.8808 62.8607C96.2245 61.4732 95.4683 60.1295 94.612 58.8607H94.6058C90.5245 54.0107 71.837 61.892 66.1308 63.3482C63.8495 64.0232 61.562 64.6607 59.2807 65.3107C57.9745 64.9107 57.5058 63.8295 57.3433 63.1857C58.5495 62.8357 59.762 62.4982 60.9745 62.1732C62.4058 61.7857 63.8245 61.3732 65.237 60.9357C68.0745 60.0607 70.8995 59.167 73.7183 58.242C75.1245 57.792 76.5433 57.3482 77.9683 56.9295C78.4933 56.7732 79.0245 56.617 79.562 56.4732C80.6245 56.1795 81.6995 55.9232 82.7808 55.692C83.3183 55.5732 83.862 55.467 84.412 55.3732C85.787 55.1295 87.1745 54.9482 88.5807 54.917C89.5557 54.8982 90.5432 54.942 91.4995 55.1607C92.0432 55.292 92.5808 55.467 93.0433 55.792C93.3058 55.967 93.537 56.192 93.712 56.4545H93.7183C94.5745 57.7232 95.337 59.067 95.987 60.4545C96.3558 61.2232 96.6807 62.0107 96.9745 62.817Z" fill="#4E9365" stroke="#871C20" stroke-miterlimit="10" stroke-linecap="round" stroke-linejoin="round"/>
<path d="M58.3887 62.9015C60.6743 62.2521 62.9599 61.6165 65.2406 60.9384C70.9449 59.4827 89.6318 51.6065 93.7143 56.4527H93.7193C94.5774 57.7234 95.3361 59.0653 95.9905 60.4546C98.2761 59.464 117.044 48.2259 123.364 39.8809C125.209 37.4484 127.319 34.1671 126.162 31.014C125.626 29.8296 124.023 27.9809 124.232 28.1734C119.786 22.8578 112.926 23.1546 106.747 24.8321C94.3668 28.194 77.8936 40.4096 68.1618 47.5884" stroke="#871C20" stroke-miterlimit="10" stroke-linecap="round" stroke-linejoin="round"/>
<path d="M98.7018 70.3882C98.4693 67.9038 97.9243 65.4526 97.08 63.1007C96.7575 62.2001 96.3975 61.3176 95.9893 60.4551C95.335 59.0657 94.5762 57.7238 93.7181 56.4532H93.7131C93.5375 56.1919 93.305 55.9694 93.0443 55.7894C92.5793 55.4669 92.0437 55.2913 91.4987 55.1632C90.5412 54.9451 89.555 54.8976 88.5781 54.9163C87.1743 54.9494 85.785 55.1301 84.41 55.3713C83.865 55.4663 83.3193 55.5707 82.7787 55.6888C81.6975 55.9213 80.6262 56.1819 79.5593 56.4763C79.0237 56.6188 78.4925 56.7701 77.9662 56.9269C76.5437 57.3488 75.1262 57.7901 73.7175 58.2451C70.9006 59.1651 68.075 60.0613 65.2393 60.9382C63.8262 61.3744 62.4037 61.787 60.9718 62.1713C58.9806 62.707 57.0031 63.2713 55.0306 63.8782C54.4994 64.0394 53.9731 64.2051 53.4419 64.3757C52.01 64.8307 50.5875 65.3094 49.1694 65.8169C47.5525 66.4001 45.95 67.0163 44.3756 67.7044C43.2756 68.1882 42.1943 68.7051 41.1462 69.2976C40.6243 69.5963 40.1125 69.9138 39.6481 70.2932C39.4112 70.4826 39.1881 70.687 39.0031 70.9238C38.8943 71.0563 38.7993 71.1988 38.7468 71.3644C38.7231 71.4451 38.7044 71.5257 38.7044 71.6063C38.6619 72.3463 38.6525 73.0857 38.6712 73.8301C38.6825 74.3901 38.715 74.9501 38.7581 75.5101L38.7575 75.5107C38.6218 75.5832 38.49 75.6619 38.36 75.7426C38.315 75.7707 38.2693 75.7982 38.225 75.827C38.1 75.9076 37.9775 75.9913 37.8581 76.0788C37.8206 76.1063 37.7843 76.1357 37.7475 76.1638C37.3768 76.447 37.0356 76.7632 36.7256 77.1082C36.6756 77.1638 36.6262 77.2188 36.5781 77.2757C36.4968 77.3719 36.4181 77.4694 36.3418 77.5694C36.2881 77.6401 36.2368 77.7126 36.1856 77.7857C36.1181 77.8813 36.0494 77.9757 35.9862 78.0744C35.885 78.2326 35.7893 78.3951 35.7 78.5613C35.6556 78.6438 35.6169 78.7294 35.5756 78.8138C35.5212 78.9244 35.4681 79.0357 35.4194 79.1488C35.3825 79.2351 35.3475 79.3219 35.3143 79.4094C35.2662 79.5338 35.2225 79.6607 35.1812 79.7882C35.1562 79.8651 35.13 79.9407 35.1075 80.0188C35.0493 80.2207 34.9981 80.4257 34.9568 80.6338C34.9481 80.6776 34.9437 80.7226 34.9356 80.7663C34.9043 80.9413 34.8787 81.1176 34.8606 81.2957C34.8531 81.3688 34.8481 81.4419 34.8425 81.5157C34.8306 81.6751 34.8244 81.8363 34.8225 81.9982C34.8219 82.0676 34.82 82.1363 34.8212 82.2063C34.8256 82.4338 34.8368 82.6626 34.8625 82.8938C34.8625 82.8963 34.8631 82.8982 34.8637 82.9001C35.32 86.9819 38.8487 90.1869 42.9556 90.1213C43.2131 90.1169 43.5218 90.0945 43.855 90.0563C45.255 92.1163 46.8925 94.0132 48.7531 95.6663C52.12 98.6538 56.1593 100.878 60.4981 102.106C64.8368 103.339 69.4693 103.576 73.8693 102.817C76.3206 102.395 78.7293 101.66 81.01 100.645C83.2906 99.6307 85.4437 98.3313 87.4019 96.7857C89.3556 95.2395 91.1243 93.4476 92.6368 91.4657C94.1543 89.4838 95.425 87.3169 96.4062 85.0219C97.3875 82.7269 98.085 80.3132 98.4737 77.8476C98.8587 75.3813 98.9343 72.8682 98.7018 70.3882Z" fill="url(#paint10_linear_94_898)"/>
<path d="M96.9745 62.817C96.937 62.8357 96.912 62.8482 96.8808 62.8607C96.2245 61.4732 95.4683 60.1295 94.612 58.8607H94.6058C90.5245 54.0107 71.837 61.892 66.1308 63.3482C64.257 63.9026 62.3789 64.432 60.5032 64.9632C59.147 65.3476 57.7014 64.5701 57.3483 63.2051L57.3433 63.1857C58.5495 62.8357 59.762 62.4982 60.9745 62.1732C62.4058 61.7857 63.8245 61.3732 65.237 60.9357C68.0745 60.0607 70.8995 59.167 73.7183 58.242C75.1245 57.792 76.5433 57.3482 77.9683 56.9295C78.4933 56.7732 79.0245 56.617 79.562 56.4732C80.6245 56.1795 81.6995 55.9232 82.7808 55.692C83.3183 55.5732 83.862 55.467 84.412 55.3732C85.787 55.1295 87.1745 54.9482 88.5807 54.917C89.5557 54.8982 90.5432 54.942 91.4995 55.1607C92.0432 55.292 92.5808 55.467 93.0433 55.792C93.3058 55.967 93.537 56.192 93.712 56.4545H93.7183C94.5745 57.7232 95.337 59.067 95.987 60.4545C96.3558 61.2232 96.6807 62.0107 96.9745 62.817Z" fill="#F8C3AF"/>
<path d="M98.7018 70.3882C98.4693 67.9038 97.9243 65.4526 97.08 63.1007C96.7575 62.2001 96.3975 61.3176 95.9894 60.4551C95.335 59.0657 94.5762 57.7238 93.7181 56.4532H93.7131C93.5375 56.1919 93.305 55.9694 93.0443 55.7894C92.5793 55.4669 92.0437 55.2913 91.4987 55.1632C90.5412 54.9451 89.555 54.8976 88.5781 54.9163C87.1743 54.9494 85.785 55.1301 84.41 55.3713C83.865 55.4663 83.3193 55.5707 82.7787 55.6888C81.6975 55.9213 80.6262 56.1819 79.5593 56.4763C79.0237 56.6188 78.4925 56.7701 77.9662 56.9269C76.5437 57.3488 75.1262 57.7901 73.7175 58.2451C70.9006 59.1651 68.075 60.0613 65.2393 60.9382C63.8262 61.3744 62.4037 61.787 60.9718 62.1713C58.9806 62.707 57.0031 63.2713 55.0306 63.8782C54.4994 64.0394 53.9731 64.2051 53.4419 64.3757C52.01 64.8307 50.5875 65.3094 49.1694 65.8169C47.5525 66.4001 45.95 67.0163 44.3756 67.7044C43.2756 68.1882 42.1943 68.7051 41.1462 69.2976C40.6243 69.5963 40.1125 69.9138 39.6481 70.2932C39.4112 70.4826 39.1881 70.687 39.0031 70.9238C38.8943 71.0563 38.7993 71.1988 38.7468 71.3644C38.7231 71.4451 38.7044 71.5257 38.7044 71.6063C38.6619 72.3463 38.6525 73.0857 38.6712 73.8301C38.6825 74.3901 38.715 74.9501 38.7581 75.5101L38.7575 75.5107C38.6218 75.5832 38.49 75.6619 38.36 75.7426C38.315 75.7707 38.2693 75.7982 38.225 75.827C38.1 75.9076 37.9775 75.9913 37.8581 76.0788C37.8206 76.1063 37.7843 76.1357 37.7475 76.1638C37.3768 76.447 37.0356 76.7632 36.7256 77.1082C36.6756 77.1638 36.6262 77.2188 36.5781 77.2757C36.4968 77.3719 36.4181 77.4694 36.3418 77.5694C36.2881 77.6401 36.2368 77.7126 36.1856 77.7857C36.1181 77.8813 36.0494 77.9757 35.9862 78.0744C35.885 78.2326 35.7893 78.3951 35.7 78.5613C35.6556 78.6438 35.6169 78.7294 35.5756 78.8138C35.5212 78.9244 35.4681 79.0357 35.4194 79.1488C35.3825 79.2351 35.3475 79.3219 35.3143 79.4094C35.2662 79.5338 35.2225 79.6607 35.1812 79.7882C35.1562 79.8651 35.13 79.9407 35.1075 80.0188C35.0493 80.2207 34.9981 80.4257 34.9568 80.6338C34.9481 80.6776 34.9437 80.7226 34.9356 80.7663C34.9043 80.9413 34.8787 81.1176 34.8606 81.2957C34.8531 81.3688 34.8481 81.4419 34.8425 81.5157C34.8306 81.6751 34.8244 81.8363 34.8225 81.9982C34.8219 82.0676 34.82 82.1363 34.8212 82.2063C34.8256 82.4338 34.8368 82.6626 34.8625 82.8938C34.8625 82.8963 34.8631 82.8982 34.8637 82.9001C35.32 86.9819 38.8487 90.1869 42.9556 90.1213C43.2131 90.1169 43.5218 90.0945 43.855 90.0563C45.255 92.1163 46.8925 94.0132 48.7531 95.6663C52.12 98.6538 56.1593 100.878 60.4981 102.106C64.8368 103.339 69.4693 103.576 73.8693 102.817C76.3206 102.395 78.7293 101.66 81.01 100.645C83.2906 99.6307 85.4437 98.3313 87.4019 96.7857C89.3556 95.2395 91.1243 93.4476 92.6368 91.4657C94.1543 89.4838 95.425 87.3169 96.4062 85.0219C97.3875 82.7269 98.085 80.3132 98.4737 77.8476C98.8587 75.3813 98.9343 72.8682 98.7018 70.3882Z" stroke="#871C20" stroke-miterlimit="10" stroke-linecap="round" stroke-linejoin="round"/>
<path d="M77.3047 67.7642C77.3047 67.7642 78.8015 70.5692 77.8422 72.6748" stroke="#871C20" stroke-width="4" stroke-miterlimit="10" stroke-linecap="round" stroke-linejoin="round"/>
<path d="M89.7959 65.3086C89.7959 65.3086 91.2928 68.1136 90.3334 70.2192" stroke="#871C20" stroke-width="4" stroke-miterlimit="10" stroke-linecap="round" stroke-linejoin="round"/>
<path d="M87.7617 71.404C88.2205 70.3533 89.4017 69.4571 90.9123 69.1459C92.2942 68.8615 93.6161 69.1365 94.4717 69.7858" fill="#FCDFCA"/>
<path d="M87.7617 71.404C88.2205 70.3533 89.4017 69.4571 90.9123 69.1459C92.2942 68.8615 93.6161 69.1365 94.4717 69.7858" stroke="#871C20" stroke-miterlimit="10" stroke-linecap="round" stroke-linejoin="round"/>
<path d="M86.9016 87.2241C83.8141 87.8222 80.4935 87.1897 78.0922 85.3903C76.2747 84.0291 75.9022 81.5378 77.4491 79.8828C79.0747 78.1428 81.8522 78.1534 83.4647 79.6859C83.8791 80.0797 84.9078 80.4535 86.1591 80.3585C86.1822 80.3566 86.2047 80.3547 86.2272 80.3528C87.3635 80.251 88.2678 79.5447 88.7778 78.5847C89.4303 77.3566 90.796 76.8134 92.0828 77.3053C93.5247 77.8578 94.3716 79.5472 94.036 81.126C93.4178 84.0328 90.7003 86.4884 86.9016 87.2241Z" fill="white" stroke="#871C20" stroke-miterlimit="10" stroke-linecap="round" stroke-linejoin="round"/>
<path d="M85.3828 71.3011L88.9053 69.5611C90.2172 68.9298 91.7916 69.4817 92.4228 70.793C93.0541 72.1048 92.5022 73.6792 91.1909 74.3105L87.6685 76.0505" fill="url(#paint11_linear_94_898)"/>
<path d="M85.3828 71.3011L88.9053 69.5611C90.2172 68.9298 91.7916 69.4817 92.4228 70.793C93.0541 72.1048 92.5022 73.6792 91.1909 74.3105L87.6685 76.0505" stroke="#871C20" stroke-miterlimit="10" stroke-linecap="round" stroke-linejoin="round"/>
<path d="M87.2769 80.0586C87.2769 80.0586 89.6068 83.2136 89.0337 86.5899" stroke="#871C20" stroke-miterlimit="10" stroke-linecap="round" stroke-linejoin="round"/>
<path d="M83.707 79.8657C83.707 79.8657 83.9651 85.4264 81.002 86.8789" stroke="#871C20" stroke-miterlimit="10" stroke-linecap="round" stroke-linejoin="round"/>
<path d="M88.7788 78.5845C88.7788 78.5845 92.2526 78.6138 93.4551 82.7407" stroke="#871C20" stroke-miterlimit="10" stroke-linecap="round" stroke-linejoin="round"/>
<path d="M59.7125 62.5171C57.125 66.7733 55.6125 71.7483 55.5563 77.0858H55.55C55.55 78.8546 54.125 80.2796 52.3625 80.2796C51.3125 80.2796 50.3875 79.7796 49.8063 78.9921L49.8 78.9983H49.7937C49.1437 78.1546 48.3625 77.3921 47.4562 76.7483C45.9187 75.2483 43.7437 74.4234 41.4375 74.6796C41.3625 74.6859 41.2812 74.6983 41.2062 74.7108C40.35 74.7046 39.5187 74.8233 38.7312 75.0546L38.725 75.0483C38.7 74.6421 38.675 74.2358 38.675 73.8296C38.6563 73.0858 38.6625 72.3483 38.7062 71.6046C38.7062 71.5296 38.725 71.4483 38.75 71.3671C38.8 71.1983 38.8937 71.0546 39.0062 70.9233C39.1875 70.6858 39.4125 70.4858 39.65 70.2921C40.1125 69.9171 40.625 69.5983 41.15 69.2983C42.1937 68.7046 43.275 68.1859 44.375 67.7046C45.95 67.0171 47.5562 66.3983 49.1687 65.8171C50.5875 65.3108 52.0125 64.8296 53.4438 64.3733C53.975 64.2046 54.5 64.0421 55.0312 63.8796C56.5875 63.3983 58.1437 62.9483 59.7125 62.5171Z" fill="#871C20" stroke="#871C20" stroke-miterlimit="10" stroke-linecap="round" stroke-linejoin="round"/>
<path d="M74.6831 74.8786C75.1419 73.828 76.3231 72.9317 77.8337 72.6205C79.2156 72.3361 80.5375 72.6111 81.3931 73.2605" fill="#FCDFCA"/>
<path d="M74.6831 74.8786C75.1419 73.828 76.3231 72.9317 77.8337 72.6205C79.2156 72.3361 80.5375 72.6111 81.3931 73.2605" stroke="#871C20" stroke-miterlimit="10" stroke-linecap="round" stroke-linejoin="round"/>
<path d="M34.619 82.6578C35.1034 86.6934 39.3234 90.6141 43.4791 90.1134C48.2497 89.5391 50.6422 85.4409 50.0303 81.8428C49.349 77.8353 45.424 73.9484 41.2678 74.4472C37.1109 74.9453 34.1347 78.6215 34.619 82.6578Z" fill="#F9C8B5"/>
<path d="M48.8171 78.6894C48.2746 77.6732 47.0722 76.4219 47.0722 76.4219C45.6265 74.9657 43.5784 74.1688 41.2678 74.4463C37.1115 74.945 34.1347 78.6213 34.619 82.6575C35.1034 86.6932 39.1034 90.4382 43.2797 90.1338C43.8522 90.0919 44.8297 89.9175 45.5153 89.61" stroke="#871C20" stroke-miterlimit="10" stroke-linecap="round" stroke-linejoin="round"/>
<path d="M36.6107 83.2605C36.2257 80.5386 37.9963 78.1292 40.5651 77.878C42.662 77.673 44.4826 78.4861 45.2794 80.4649C45.7632 81.6655 45.6701 83.0323 44.9757 84.1248C44.5057 84.8648 43.6845 86.0967 42.3438 86.3742" stroke="#871C20" stroke-miterlimit="10" stroke-linecap="round" stroke-linejoin="round"/>
<path d="M44.0094 85.3996C44.0094 85.3996 44.7513 84.7164 44.9969 84.3496C45.7175 83.2739 45.8338 81.8645 45.3507 80.6633C45.0088 79.8152 44.4556 79.1289 43.8019 78.5864C43.8019 78.5871 41.8763 81.5771 44.0094 85.3996Z" fill="#871C20" stroke="#871C20" stroke-miterlimit="10" stroke-linecap="round" stroke-linejoin="round"/>
<path d="M80.2684 109.148C82.0122 109.673 83.4247 110.386 84.3059 111.317L84.3122 111.323C82.0434 113.742 80.3434 116.917 79.9872 119.636C79.7372 121.561 79.6809 123.367 79.8184 124.992C79.6684 125.067 79.5122 125.142 79.3622 125.211C79.1559 125.311 78.9434 125.405 78.7309 125.492C78.2497 125.692 77.7559 125.886 77.2434 126.055C76.9997 126.142 76.7497 126.223 76.4934 126.298C76.1872 126.392 75.8809 126.48 75.5684 126.555C75.4247 126.598 75.2809 126.63 75.1372 126.667C74.9809 126.705 74.8309 126.736 74.6747 126.773C74.1372 126.892 73.5934 126.998 73.0372 127.08C72.7934 127.123 72.5434 127.155 72.2934 127.186C71.9997 127.223 71.7059 127.261 71.4059 127.286C71.2059 127.305 70.9997 127.323 70.7997 127.336C70.6059 127.355 70.4184 127.367 70.2309 127.373C69.9684 127.392 69.7122 127.398 69.4497 127.405C69.1872 127.411 68.9247 127.417 68.6622 127.417C68.3122 127.417 67.9684 127.411 67.6247 127.398C67.5559 127.398 67.4934 127.392 67.4309 127.392C67.1434 127.38 66.8559 127.361 66.5684 127.342C66.5059 127.336 66.4372 127.33 66.3747 127.323C66.1184 127.305 65.8684 127.28 65.6184 127.248C65.5184 127.248 65.4184 127.236 65.3184 127.217C65.0184 127.186 64.7184 127.148 64.4247 127.098C64.1184 127.055 63.8184 127.005 63.5247 126.948C63.4497 126.936 63.3809 126.923 63.3122 126.911C62.3497 126.723 61.4247 126.486 60.5434 126.198C60.4372 125.086 60.2809 123.873 60.0622 122.542C59.5622 119.43 57.2559 115.755 53.8184 113.423C52.9184 112.811 52.8434 111.011 57.0872 109.617" stroke="#871C20" stroke-miterlimit="10" stroke-linecap="round" stroke-linejoin="round"/>
</g>
<defs>
<linearGradient id="paint0_linear_94_898" x1="-4.35993" y1="235.519" x2="56.4782" y2="71.11" gradientUnits="userSpaceOnUse">
<stop stop-color="#D6E0E5"/>
<stop offset="0.2803" stop-color="#E5EBEE"/>
<stop offset="0.6503" stop-color="white"/>
</linearGradient>
<linearGradient id="paint1_linear_94_898" x1="-7.20738" y1="173.903" x2="51.3075" y2="166.181" gradientUnits="userSpaceOnUse">
<stop offset="0.0907" stop-color="#7575C6"/>
<stop offset="0.4681" stop-color="#8282D1"/>
<stop offset="1" stop-color="#9090DD"/>
</linearGradient>
<linearGradient id="paint2_linear_94_898" x1="78.9082" y1="167.513" x2="104.919" y2="164.08" gradientUnits="userSpaceOnUse">
<stop offset="0.0907" stop-color="#7575C6"/>
<stop offset="0.4681" stop-color="#8282D1"/>
<stop offset="1" stop-color="#9090DD"/>
</linearGradient>
<linearGradient id="paint3_linear_94_898" x1="75.067" y1="211.017" x2="144.572" y2="137.056" gradientUnits="userSpaceOnUse">
<stop stop-color="#D6E0E5"/>
<stop offset="0.5008" stop-color="#F1F5F6"/>
<stop offset="0.72" stop-color="white"/>
</linearGradient>
<linearGradient id="paint4_linear_94_898" x1="78.9204" y1="126.697" x2="91.0993" y2="117.586" gradientUnits="userSpaceOnUse">
<stop offset="0.0907" stop-color="#7575C6"/>
<stop offset="0.4681" stop-color="#8282D1"/>
<stop offset="1" stop-color="#9090DD"/>
</linearGradient>
<linearGradient id="paint5_linear_94_898" x1="32.9976" y1="126.03" x2="47.5891" y2="115.115" gradientUnits="userSpaceOnUse">
<stop offset="0.0907" stop-color="#7575C6"/>
<stop offset="0.4681" stop-color="#8282D1"/>
<stop offset="1" stop-color="#9090DD"/>
</linearGradient>
<linearGradient id="paint6_linear_94_898" x1="51.5232" y1="122.439" x2="78.176" y2="103.277" gradientUnits="userSpaceOnUse">
<stop stop-color="#F2A290"/>
<stop offset="0.6505" stop-color="#FACFBB"/>
<stop offset="0.9994" stop-color="#FDE2CD"/>
</linearGradient>
<linearGradient id="paint7_linear_94_898" x1="-1.84662" y1="82.8599" x2="104.361" y2="22.5501" gradientUnits="userSpaceOnUse">
<stop offset="0.2737" stop-color="#55A366"/>
<stop offset="0.2876" stop-color="#58A567"/>
<stop offset="0.4432" stop-color="#7CB571"/>
<stop offset="0.5708" stop-color="#91BF78"/>
<stop offset="0.6535" stop-color="#99C37A"/>
<stop offset="0.6808" stop-color="#A5C97D"/>
<stop offset="0.7767" stop-color="#CCDB86"/>
<stop offset="0.8651" stop-color="#E8E78D"/>
<stop offset="0.9423" stop-color="#F9EF91"/>
<stop offset="1" stop-color="#FFF292"/>
</linearGradient>
<linearGradient id="paint8_linear_94_898" x1="15.8769" y1="82.1755" x2="145.686" y2="8.46376" gradientUnits="userSpaceOnUse">
<stop offset="0.0082" stop-color="#55A366"/>
<stop offset="0.1564" stop-color="#6EAF6D"/>
<stop offset="0.3396" stop-color="#86BA74"/>
<stop offset="0.51" stop-color="#94C179"/>
<stop offset="0.6535" stop-color="#99C37A"/>
<stop offset="0.6808" stop-color="#A5C97D"/>
<stop offset="0.7767" stop-color="#CCDB86"/>
<stop offset="0.8651" stop-color="#E8E78D"/>
<stop offset="0.9423" stop-color="#F9EF91"/>
<stop offset="1" stop-color="#FFF292"/>
</linearGradient>
<linearGradient id="paint9_linear_94_898" x1="74.8476" y1="62.33" x2="126.234" y2="23.7162" gradientUnits="userSpaceOnUse">
<stop stop-color="#4E9365"/>
<stop offset="0.2221" stop-color="#599A68"/>
<stop offset="0.6104" stop-color="#76AC70"/>
<stop offset="1" stop-color="#99C37A"/>
</linearGradient>
<linearGradient id="paint10_linear_94_898" x1="32.9497" y1="122.141" x2="93.7477" y2="46.4203" gradientUnits="userSpaceOnUse">
<stop offset="0.1298" stop-color="#F2A290"/>
<stop offset="0.3466" stop-color="#F8C3B0"/>
<stop offset="0.5378" stop-color="#FCDAC5"/>
<stop offset="0.6594" stop-color="#FDE2CD"/>
</linearGradient>
<linearGradient id="paint11_linear_94_898" x1="92.4299" y1="70.8348" x2="85.9601" y2="73.9127" gradientUnits="userSpaceOnUse">
<stop stop-color="#F2A290"/>
<stop offset="0.0057" stop-color="#F2A391"/>
<stop offset="0.2514" stop-color="#F7BEAB"/>
<stop offset="0.4991" stop-color="#FAD2BE"/>
<stop offset="0.748" stop-color="#FCDEC9"/>
<stop offset="1" stop-color="#FDE2CD"/>
</linearGradient>
<clipPath id="clip0_94_898">
<rect width="150" height="150" rx="75" fill="white"/>
</clipPath>
</defs>
</svg>
