<svg width="150" height="150" viewBox="0 0 150 150" fill="none" xmlns="http://www.w3.org/2000/svg">
<g clip-path="url(#clip0_94_3284)">
<rect width="150" height="150" rx="75" fill="#617AFF"/>
<path d="M97.8583 100.389L107.795 100.371C109.235 100.37 110.661 100.084 111.992 99.5317C113.322 98.979 114.53 98.1696 115.548 97.1498C116.565 96.13 117.372 94.9198 117.922 93.5882C118.471 92.2566 118.753 90.8298 118.751 89.3892C118.746 86.4811 117.585 83.6943 115.525 81.6417C113.465 79.589 110.674 78.4386 107.766 78.4434L97.8296 78.4613" fill="#FFE8D9"/>
<path d="M109.13 96.4948L99.1932 96.5128L99.1609 78.4541H97.8174L97.8569 100.385L107.793 100.367C110.423 100.361 112.963 99.4094 114.949 97.6861C116.935 95.9629 118.236 93.583 118.613 90.9806C117.657 92.6524 116.277 94.0425 114.612 95.0106C112.947 95.9787 111.056 96.4907 109.13 96.4948Z" fill="#EABB9B"/>
<path d="M97.8583 100.389L107.795 100.371C109.235 100.37 110.661 100.084 111.992 99.5317C113.322 98.979 114.53 98.1696 115.548 97.1498C116.565 96.13 117.372 94.9198 117.922 93.5882C118.471 92.2566 118.753 90.8298 118.751 89.3892V89.3892C118.746 86.4811 117.585 83.6943 115.525 81.6417C113.465 79.589 110.674 78.4386 107.766 78.4434L97.8296 78.4613" stroke="#323854" stroke-width="2.2991" stroke-linecap="round" stroke-linejoin="round"/>
<path d="M108.063 89.3103C109.923 89.2961 111.701 88.5464 113.01 87.2251C114.318 85.9037 115.051 84.1182 115.047 82.2585L115.014 65.0764C114.975 44.2408 104.467 28.0214 75.0136 28.0753C48.1645 28.1256 35.1136 44.3774 35.1387 65.2237L35.1854 89.4001C35.1854 89.4001 88.5747 89.4612 108.063 89.3103Z" fill="#FF6161"/>
<path d="M75.0122 33.5032C104.469 33.4493 114.973 49.6687 115.013 70.5042L115.034 82.4667C115.034 82.3985 115.034 82.3338 115.034 82.262L115.002 65.0798C114.963 44.2443 104.455 28.0249 75.0014 28.0787C48.1523 28.129 35.1014 44.3808 35.1265 65.2271V69.6529C35.5324 49.2879 48.5906 33.5535 75.0122 33.5032Z" fill="#FF8C80"/>
<path d="M108.063 89.3103C109.923 89.2961 111.701 88.5464 113.01 87.2251C114.318 85.9037 115.051 84.1182 115.047 82.2585L115.014 65.0764C114.975 44.2408 104.467 28.0214 75.0136 28.0753C48.1645 28.1256 35.1136 44.3774 35.1387 65.2237L35.1854 89.4001C35.1854 89.4001 88.5747 89.4612 108.063 89.3103Z" stroke="#323854" stroke-width="2.2991" stroke-linecap="round" stroke-linejoin="round"/>
<path d="M49.4766 100.482L38.5056 100.504C37.0641 100.508 35.636 100.228 34.3028 99.6801C32.9696 99.132 31.7575 98.3264 30.7359 97.3094C29.7143 96.2925 28.9032 95.0841 28.349 93.7535C27.7947 92.4228 27.5082 90.9959 27.5059 89.5545C27.5011 86.6463 28.6515 83.8554 30.7042 81.7953C32.7568 79.7353 35.5436 78.5748 38.4517 78.5691L51.5242 78.5439" fill="#FFE8D9"/>
<path d="M29.3792 86.7273C29.3804 85.1559 29.7211 83.6033 30.3779 82.1758C28.9486 83.7479 28.0075 85.7018 27.6691 87.7993C27.3307 89.8969 27.6097 92.0476 28.4721 93.9894C29.3345 95.9312 30.743 97.5803 32.5261 98.7357C34.3092 99.8911 36.3898 100.503 38.5145 100.497L49.4855 100.475L49.7513 97.6516H40.3789C37.472 97.6602 34.6807 96.5144 32.6181 94.466C30.5556 92.4176 29.3906 89.6341 29.3792 86.7273Z" fill="#EABB9B"/>
<path d="M49.4766 100.482L38.5056 100.504C37.0641 100.508 35.636 100.228 34.3028 99.6801C32.9696 99.1319 31.7575 98.3264 30.7359 97.3094C29.7143 96.2925 28.9032 95.0841 28.349 93.7535C27.7947 92.4228 27.5082 90.9959 27.5059 89.5545V89.5545C27.5011 86.6463 28.6515 83.8554 30.7042 81.7953C32.7568 79.7353 35.5436 78.5748 38.4517 78.5691L51.5242 78.5439" stroke="#323854" stroke-width="2.2991" stroke-linecap="round" stroke-linejoin="round"/>
<path d="M32.3818 85.6714H32.4501C34.2387 85.6685 35.9553 86.3761 37.2224 87.6385C38.4895 88.9009 39.2035 90.6148 39.2073 92.4035V92.9818" fill="#FFE8D9"/>
<path d="M32.3818 85.6714H32.4501C34.2387 85.6685 35.9553 86.3761 37.2224 87.6385C38.4895 88.9009 39.2035 90.6148 39.2073 92.4035V92.9818" stroke="#323854" stroke-width="2.2991" stroke-linecap="round" stroke-linejoin="round"/>
<path d="M35.3643 138.964C36.442 159.44 53.387 171.575 74.1327 171.535C94.8785 171.496 111.788 159.321 112.776 138.816C106.385 132.329 91.4478 127.784 74.0501 127.827C56.6524 127.871 41.7299 132.451 35.3643 138.964Z" fill="white"/>
<path d="M74.122 166.427C54.9856 166.463 39.0823 156.142 35.8959 138.461C35.7127 138.633 35.5367 138.82 35.3643 138.978C36.442 159.454 53.387 171.589 74.1327 171.55C94.8785 171.51 111.788 159.336 112.776 138.831C112.607 138.658 112.416 138.471 112.244 138.317C109.122 156.009 93.244 166.391 74.122 166.427Z" fill="#EFEFEF"/>
<path d="M35.3643 138.309C36.5077 160.036 54.4871 172.911 76.4991 172.869C98.5111 172.827 116.452 159.91 117.501 138.153C110.72 131.269 94.871 126.448 76.4114 126.493C57.9518 126.539 42.1184 131.399 35.3643 138.309Z" stroke="#323854" stroke-width="2.43943" stroke-linecap="round" stroke-linejoin="round"/>
<path d="M75.2581 136.28L88.3126 143.756L84.8711 130.866C84.4558 129.319 83.5558 127.944 82.3031 126.945C81.0503 125.946 79.5106 125.374 77.9092 125.313C76.6375 125.265 75.3503 125.242 74.0474 125.244C73.0739 125.244 72.0106 125.291 70.9652 125.352C69.2082 125.461 67.5451 126.183 66.2667 127.393C64.9882 128.603 64.1756 130.224 63.9709 131.973L62.4873 144.593L75.2581 136.28Z" fill="white" stroke="#323854" stroke-width="2.2991" stroke-linecap="round" stroke-linejoin="round"/>
<path d="M74.1351 136.284H73.9986C72.1921 136.284 70.4593 135.568 69.1799 134.293C67.9005 133.017 67.1788 131.287 67.1731 129.48L67.1372 109.916L80.9102 109.891L80.9461 129.455C80.9471 131.263 80.2304 132.998 78.9534 134.279C77.6764 135.559 75.9434 136.28 74.1351 136.284Z" fill="#FFE8D9"/>
<path d="M74.1351 136.284H73.9986C72.1921 136.284 70.4593 135.568 69.1799 134.293C67.9005 133.017 67.1788 131.287 67.1731 129.48L67.1372 109.916L80.9102 109.891L80.9461 129.455C80.9471 131.263 80.2304 132.998 78.9534 134.279C77.6764 135.559 75.9434 136.28 74.1351 136.284Z" fill="#EABB9B"/>
<path d="M74.1351 136.284H73.9986C72.1921 136.284 70.4593 135.568 69.1799 134.293C67.9005 133.017 67.1788 131.287 67.1731 129.48L67.1372 109.916L80.9102 109.891L80.9461 129.455C80.9471 131.263 80.2304 132.998 78.9534 134.279C77.6764 135.559 75.9434 136.28 74.1351 136.284V136.284Z" stroke="#323854" stroke-width="2.2991" stroke-linecap="round" stroke-linejoin="round"/>
<path d="M65.5841 51.7202C57.038 51.7202 49.5803 57.0261 47.4752 64.5808C46.7329 67.2413 46.3594 69.9912 46.3651 72.7533V78.7849L41.9609 86.9143V91.2251C41.9933 109.277 58.2809 124.293 78.0711 124.49C98.1882 124.691 111.943 109.869 111.907 91.5844L111.871 72.6204C111.867 69.6902 111.437 66.7761 110.593 63.9701C108.39 56.6453 100.929 51.6699 92.5877 51.6699L65.5841 51.7202Z" fill="#FFE8D9"/>
<path d="M79.5044 119.877C59.4987 119.68 42.9381 104.911 42.004 86.8276L41.9609 86.9067V91.2175C41.9933 109.269 58.2809 124.285 78.0711 124.483C93.3637 124.633 104.978 116.094 109.655 103.952C103.746 113.626 93.0008 120.01 79.5044 119.877Z" fill="#EABB9B"/>
<path d="M46.5233 69.5059C46.4122 70.5548 46.3558 71.6087 46.3545 72.6635L46.5269 72.3438L46.5233 69.5059Z" fill="#EABB9B"/>
<path d="M46.351 72.7565C46.351 72.7242 46.351 72.6918 46.351 72.6631L41.9468 80.7925V85.2865C41.9468 85.8074 41.9683 86.3211 41.9935 86.8349L46.3546 78.7844L46.351 72.7565Z" fill="#EABB9B"/>
<path d="M65.5841 51.7202C57.038 51.7202 49.5803 57.0261 47.4752 64.5808C46.7329 67.2413 46.3594 69.9912 46.3651 72.7533V78.7849L41.9609 86.9143V91.2251C41.9933 109.277 58.2809 124.293 78.0711 124.49C98.1882 124.691 111.943 109.869 111.907 91.5844L111.871 72.6204C111.867 69.6902 111.437 66.7761 110.593 63.9701C108.39 56.6453 100.929 51.6699 92.5877 51.6699L65.5841 51.7202Z" stroke="#323854" stroke-width="2.2991" stroke-linecap="round" stroke-linejoin="round"/>
<path d="M46.3833 72.146L46.4013 81.7591C46.4013 88.1499 44.3213 89.9532 42.0078 89.9604L41.8965 75.3791" fill="#FF6161"/>
<path d="M46.3833 72.146L46.4013 81.7591C46.4013 88.1499 44.3213 89.9532 42.0078 89.9604L41.8965 75.3791" stroke="#323854" stroke-width="2.2991" stroke-linecap="round" stroke-linejoin="round"/>
<path d="M65.4597 90.2909C66.8008 90.2909 67.8881 89.2037 67.8881 87.8625C67.8881 86.5213 66.8008 85.4341 65.4597 85.4341C64.1185 85.4341 63.0312 86.5213 63.0312 87.8625C63.0312 89.2037 64.1185 90.2909 65.4597 90.2909Z" fill="#444A54"/>
<path d="M99.6472 90.0328C100.988 90.0302 102.074 88.9409 102.071 87.5997C102.068 86.2586 100.979 85.1734 99.6379 85.176C98.2967 85.1786 97.2116 86.2679 97.2141 87.6091C97.2167 88.9502 98.306 90.0354 99.6472 90.0328Z" fill="#444A54"/>
<path d="M57.9321 80.5847C60.885 78.5299 65.027 77.4738 70.6023 77.8366" stroke="#323854" stroke-width="2.2991" stroke-linecap="round" stroke-linejoin="round"/>
<path d="M105.688 80.4946C102.728 78.4505 98.5825 77.4087 93.0107 77.7931" stroke="#323854" stroke-width="2.2991" stroke-linecap="round" stroke-linejoin="round"/>
<path d="M70.6377 98.9557C71.3687 101.418 72.8767 103.577 74.9362 105.112C76.9958 106.646 79.4965 107.473 82.0649 107.47H82.5822C85.1506 107.464 87.6481 106.627 89.7019 105.085C91.7556 103.543 93.2554 101.377 93.9771 98.9126L70.6377 98.9557Z" fill="#444A54" stroke="#323854" stroke-width="2.2991" stroke-miterlimit="10"/>
<path d="M75.3818 136.352C75.2596 136.28 75.4464 171.557 75.4464 171.557L75.3818 136.352Z" fill="#FFD371"/>
<path d="M75.3818 136.352C75.2596 136.28 75.4464 171.557 75.4464 171.557" stroke="#323854" stroke-width="2.2991" stroke-linecap="round" stroke-linejoin="round"/>
<path d="M75.8293 51.7021L72.0825 55.4669" stroke="#323854" stroke-width="2.2991" stroke-linecap="round" stroke-linejoin="round"/>
<path d="M71.9452 51.7095L68.1948 55.4742" stroke="#323854" stroke-width="2.2991" stroke-linecap="round" stroke-linejoin="round"/>
<path d="M82.312 101.603C80.9292 101.606 79.5692 101.955 78.3566 102.62C77.1441 103.285 76.1177 104.243 75.3716 105.407C77.3435 106.753 79.6766 107.471 82.0641 107.466H82.5814C84.9691 107.462 87.2997 106.736 89.2667 105.382C88.5164 104.221 87.4864 103.266 86.2713 102.606C85.0563 101.945 83.6949 101.601 82.312 101.603Z" fill="#FF6161"/>
<path d="M82.312 101.603C80.9292 101.606 79.5692 101.955 78.3566 102.62C77.1441 103.285 76.1177 104.243 75.3716 105.407C77.3435 106.753 79.6766 107.471 82.0641 107.466H82.5814C84.9691 107.462 87.2997 106.736 89.2667 105.382C88.5164 104.221 87.4864 103.266 86.2713 102.606C85.0563 101.945 83.6949 101.601 82.312 101.603Z" stroke="#323854" stroke-width="2.2991" stroke-linecap="round" stroke-linejoin="round"/>
<path d="M55.9729 91.2754C54.7767 93.1003 64.0557 100.016 65.2411 97.3105C66.4266 94.6055 57.1692 89.4505 55.9729 91.2754Z" fill="#FFF2EB"/>
<path d="M93.0054 57.5361C95.8793 54.9029 108.571 62.7916 107.375 69.5021C106.178 76.2126 87.9761 63.8837 93.0054 58.1324" fill="#FFF2EB"/>
</g>
<defs>
<clipPath id="clip0_94_3284">
<rect width="150" height="150" rx="75" fill="white"/>
</clipPath>
</defs>
</svg>
