<svg width="150" height="150" viewBox="0 0 150 150" fill="none" xmlns="http://www.w3.org/2000/svg">
<g clip-path="url(#clip0_94_685)">
<rect width="150" height="150" rx="75" fill="#F86767"/>
<path d="M142.812 111.87C133.669 140.738 106.664 161.658 74.7696 161.658C44.9726 161.658 19.4418 143.4 8.75391 117.457C8.75391 117.457 8.75391 117.457 8.75391 117.453C9.75355 112.399 12.2043 107.624 15.8423 103.288C15.1011 100.355 14.7129 97.2264 14.7129 93.8976C14.7129 66.5004 39.6052 49.2573 76.7842 49.7083C107.687 50.0848 131.59 64.8694 129.517 92.855C129.446 93.8352 129.454 94.8073 129.391 95.7722C135.614 100.41 140.26 105.879 142.812 111.87Z" fill="#D6E8ED" stroke="#871C20" stroke-width="0.723073" stroke-miterlimit="10" stroke-linecap="round" stroke-linejoin="round"/>
<path d="M86.4248 116.025C86.2274 116.026 85.1143 116.069 84.3017 116.101C83.4264 116.135 82.518 116.17 82.0055 116.185C81 116.214 79.9895 116.229 79.0025 116.229C78.3526 116.229 77.7082 116.223 77.0692 116.21C76.7696 116.21 76.4668 116.201 76.1712 116.194C75.9335 116.189 75.6908 116.181 75.4481 116.173C75.0518 116.161 74.6428 116.144 74.2383 116.123C73.7796 116.104 73.2961 116.08 72.8175 116.052C72.3435 116.023 71.8978 115.995 71.4568 115.96C71.1278 115.939 70.7988 115.912 70.4739 115.884C70.1317 115.859 69.7901 115.826 69.4521 115.793C68.4294 115.697 67.4749 115.592 66.5439 115.474C66.186 115.43 65.8222 115.385 65.4625 115.333C65.0382 115.277 64.6138 115.214 64.1971 115.15C64.1388 115.142 64.0819 115.133 64.0263 115.123C63.578 115.056 63.1405 114.983 62.7031 114.909C62.2457 114.832 61.7929 114.75 61.3401 114.664C60.955 114.596 60.5492 114.514 60.1434 114.432C59.8609 114.376 59.5762 114.315 59.292 114.255L59.226 114.241C58.9765 114.19 58.7085 114.131 58.4397 114.067C57.9462 113.958 57.4603 113.842 56.9791 113.725L56.2406 113.541C55.9708 113.474 55.6929 113.4 55.415 113.325C55.1727 113.261 54.9169 113.193 54.6648 113.123C54.3358 113.03 54.0059 112.936 53.6755 112.838C53.3113 112.735 52.9203 112.615 52.533 112.494L52.3121 112.424C52.0671 112.347 51.824 112.271 51.5836 112.19C51.3246 112.109 51.0724 112.023 50.8171 111.935C50.776 111.921 50.6011 111.863 50.6011 111.863C50.3209 111.769 50.0448 111.671 49.7686 111.57C49.145 111.35 48.5327 111.121 47.8977 110.871C47.5701 110.745 47.2216 110.603 46.8777 110.46C46.8777 110.46 46.7385 110.404 46.6852 110.381C46.4235 110.275 46.1655 110.165 45.9074 110.051C44.7207 109.539 43.5584 108.994 42.4756 108.441C42.3219 108.364 42.1466 108.272 41.9757 108.179C41.8365 108.107 41.6639 108.016 41.4953 107.926C41.2504 107.797 40.9901 107.654 40.7293 107.506C40.4157 107.332 40.0858 107.143 39.76 106.953C39.4987 106.801 39.2339 106.647 38.9781 106.489L38.3902 106.123L38.2085 106.008C38.0992 105.939 37.9902 105.87 37.8831 105.8C37.3115 105.429 36.7393 105.04 36.1979 104.654C36.0248 104.534 35.8517 104.41 35.6791 104.281L35.5264 104.169C35.4157 104.088 35.3058 104.007 35.1974 103.924C35.032 103.801 34.8476 103.66 34.6668 103.515C34.0481 103.034 33.4638 102.552 32.9301 102.083C32.766 101.942 32.5893 101.783 32.4131 101.624C31.6317 100.915 30.8987 100.19 30.2285 99.465C30.1178 99.3462 30.0039 99.2232 29.8905 99.0967L29.7838 98.9751C29.5118 98.6719 29.2596 98.3777 29.0372 98.1029C28.7941 97.8087 28.5401 97.487 28.2983 97.1647C28.2147 97.059 28.1027 96.913 27.9874 96.7458C27.9359 96.6771 27.7538 96.424 27.7538 96.424C27.4781 96.0345 27.2372 95.6747 27.0176 95.3236C27.0176 95.3236 26.8996 95.1356 26.8703 95.0882L26.8124 95.029L26.652 94.7289C24.1832 90.5807 23.2784 86.2676 24.0349 82.2518C27.4094 64.2667 43.1042 56.2451 74.9235 56.2451C75.5015 56.2451 76.0799 56.2474 76.6688 56.2528C103.714 56.4864 124.295 68.1297 125.604 83.9375C125.933 87.8746 125.395 91.6508 124.006 95.16C121.93 100.421 118.034 104.9 112.428 108.47C112.428 108.47 112.078 108.691 111.967 108.758C111.686 108.935 111.37 109.12 111.054 109.306C109.178 110.397 107.584 111.585 106.308 112.84C106.079 113.069 105.844 113.31 105.619 113.555L105.535 113.65C105.463 113.73 105.392 113.809 105.325 113.889C105.165 114.079 105.008 114.274 104.841 114.488L104.736 114.628C104.548 114.878 104.387 115.107 104.243 115.328C104.161 115.452 104.1 115.552 104.038 115.656C103.874 115.928 103.75 116.15 103.648 116.352C102.792 118.025 100.032 121.685 100.032 121.685C100.032 121.685 91.612 116.025 86.4248 116.025Z" stroke="#F3F8FA" stroke-width="0.723073" stroke-miterlimit="10" stroke-linecap="round" stroke-linejoin="round"/>
<path d="M121.455 94.148C119.703 98.5899 116.331 102.73 110.956 106.153C110.818 106.239 110.677 106.329 110.536 106.415C110.254 106.592 109.96 106.764 109.666 106.937C107.537 108.176 105.784 109.505 104.385 110.881C104.106 111.16 103.84 111.434 103.585 111.712C103.459 111.853 103.334 111.991 103.217 112.132C102.981 112.41 102.758 112.693 102.542 112.975C102.538 112.979 102.542 112.979 102.542 112.979C102.33 113.261 102.131 113.543 101.946 113.825C101.852 113.966 101.766 114.108 101.68 114.253C101.507 114.539 101.347 114.822 101.201 115.108C100.053 117.354 99.6998 119.601 100.033 121.683L100.002 121.687C98.5085 116.86 92.996 113.281 86.425 113.281C86.0057 113.281 83.0338 113.41 81.928 113.442C80.2852 113.489 78.6737 113.497 77.0978 113.465C76.8077 113.465 76.5135 113.458 76.2274 113.449C76.0001 113.445 75.7728 113.438 75.545 113.43C75.1532 113.418 74.765 113.402 74.3804 113.383C73.91 113.364 73.4436 113.34 72.9809 113.313C72.5339 113.285 72.091 113.258 71.6518 113.222C71.3304 113.203 71.0087 113.175 70.6914 113.148C70.366 113.124 70.0406 113.092 69.7189 113.061C68.7586 112.971 67.8172 112.869 66.8881 112.752C66.5351 112.709 66.1862 112.665 65.8414 112.614C65.422 112.56 65.0022 112.497 64.5905 112.434C64.5317 112.426 64.4766 112.415 64.4219 112.406C63.9985 112.344 63.5791 112.273 63.1597 112.203C62.7204 112.128 62.2852 112.05 61.85 111.967C61.4578 111.897 61.0696 111.818 60.6818 111.74C60.384 111.681 60.0898 111.618 59.7956 111.555C59.5448 111.504 59.2976 111.45 59.0508 111.391C58.5686 111.285 58.0941 111.171 57.6237 111.058C57.3882 110.999 57.1492 110.94 56.9178 110.882C56.6511 110.815 56.3886 110.744 56.126 110.674C55.8869 110.611 55.6479 110.548 55.4124 110.482C55.0911 110.391 54.7734 110.301 54.4557 110.207C54.0833 110.102 53.7146 109.988 53.3499 109.874C53.0403 109.776 52.7343 109.682 52.4325 109.58C52.1816 109.502 51.9385 109.419 51.6913 109.333C51.6168 109.309 51.5422 109.282 51.4676 109.258C51.2087 109.172 50.9538 109.082 50.6994 108.988C50.0879 108.772 49.4918 108.548 48.9039 108.317C48.5785 108.191 48.2531 108.058 47.9318 107.925C47.8654 107.897 47.8025 107.874 47.7397 107.846C47.4966 107.748 47.2575 107.646 47.0185 107.54C45.8737 107.046 44.776 106.532 43.7253 105.995C43.5762 105.921 43.4275 105.843 43.2824 105.764C43.1179 105.678 42.953 105.591 42.7925 105.505C42.5535 105.38 42.318 105.25 42.083 105.117C41.7653 104.941 41.4517 104.76 41.1421 104.58C40.899 104.439 40.6559 104.297 40.4209 104.152C40.2288 104.031 40.0367 103.913 39.8483 103.796C39.6955 103.697 39.5423 103.603 39.3936 103.505C38.8369 103.145 38.3 102.78 37.7785 102.408C37.6257 102.302 37.4725 102.192 37.3198 102.078C37.167 101.964 37.0138 101.855 36.8652 101.741C36.6966 101.615 36.5321 101.49 36.3712 101.361C35.8068 100.922 35.2617 100.475 34.7443 100.02C34.5757 99.8751 34.4148 99.7301 34.2544 99.585C33.5368 98.9342 32.8666 98.2717 32.247 97.6011C32.1412 97.4872 32.0391 97.3774 31.9374 97.2639C31.9098 97.2328 31.8827 97.2011 31.8552 97.1699C31.6197 96.9074 31.3888 96.6407 31.1728 96.3741C30.9296 96.0799 30.6982 95.7862 30.475 95.4879C30.3851 95.374 30.2987 95.2606 30.2201 95.1426C30.1419 95.0405 30.071 94.9388 29.9964 94.8367C29.7691 94.5154 29.5495 94.19 29.3456 93.8646C29.2476 93.7078 29.1495 93.555 29.0596 93.3982C29.0519 93.3905 29.0478 93.3824 29.0438 93.3747C26.9071 89.8068 26.0954 86.149 26.7344 82.7577C29.8943 65.9147 45.0124 58.7205 76.6477 58.9948C102.943 59.2222 121.735 70.4352 122.872 84.1614C123.153 87.5454 122.729 90.9289 121.455 94.148Z" fill="#7575C6" stroke="#871C20" stroke-width="0.723073" stroke-miterlimit="10" stroke-linecap="round" stroke-linejoin="round"/>
<path d="M121.455 94.148C119.703 98.5899 116.331 102.73 110.956 106.153C110.819 106.239 110.678 106.329 110.537 106.415C110.254 106.592 109.96 106.764 109.666 106.937C107.537 108.176 105.785 109.505 104.385 110.881C104.103 111.156 103.836 111.434 103.585 111.712C103.459 111.853 103.334 111.991 103.217 112.132C102.978 112.41 102.754 112.693 102.543 112.975C102.538 112.979 102.543 112.979 102.543 112.979C102.327 113.261 102.131 113.543 101.946 113.826C101.852 113.967 101.766 114.108 101.68 114.253C101.507 114.535 101.347 114.822 101.202 115.108C100.053 117.354 99.7 119.601 100.033 121.683L100.002 121.687C98.5087 116.86 92.9962 113.281 86.4252 113.281C86.0059 113.281 83.034 113.41 81.9282 113.442C80.2854 113.489 78.6739 113.497 77.098 113.465C76.8079 113.465 76.5137 113.458 76.2276 113.45C76.0003 113.445 75.773 113.438 75.5452 113.43C75.1534 113.418 74.7652 113.403 74.3806 113.383C73.9102 113.364 73.4438 113.34 72.981 113.313C72.5341 113.285 72.0912 113.258 71.6519 113.222C71.3306 113.203 71.0089 113.175 70.6916 113.148C70.3662 113.124 70.0408 113.093 69.7191 113.061C68.7587 112.971 67.8174 112.869 66.8882 112.752C66.5353 112.709 66.1864 112.665 65.8416 112.614C65.4222 112.56 65.0024 112.497 64.5907 112.434C64.5319 112.426 64.4768 112.415 64.4221 112.407C63.9987 112.344 63.5793 112.273 63.1599 112.203C62.7206 112.128 62.2854 112.05 61.8502 111.967C61.458 111.897 61.0698 111.818 60.682 111.74C60.3842 111.681 60.09 111.618 59.7958 111.556C59.545 111.504 59.2978 111.45 59.051 111.391C58.5688 111.285 58.0943 111.171 57.6239 111.058C57.3884 110.999 57.1494 110.94 56.918 110.882C56.6513 110.815 56.3888 110.744 56.1262 110.674C55.8871 110.611 55.6481 110.548 55.4126 110.482C55.0913 110.391 54.7736 110.301 54.4559 110.207C54.0835 110.102 53.7148 109.988 53.35 109.874C53.0405 109.776 52.7345 109.682 52.4327 109.58C52.1818 109.502 51.9387 109.419 51.6915 109.333C51.6169 109.309 51.5424 109.282 51.4678 109.258C51.2089 109.172 50.954 109.082 50.6995 108.988C50.0881 108.772 49.492 108.548 48.9041 108.317C48.5787 108.191 48.2533 108.058 47.932 107.925C47.8655 107.897 47.8027 107.874 47.7399 107.846C47.4968 107.748 47.2577 107.646 47.0187 107.54C45.8739 107.046 44.7762 106.532 43.7255 105.996C43.5764 105.921 43.4277 105.843 43.2826 105.764C43.1181 105.678 42.9532 105.592 42.7927 105.505C42.5537 105.38 42.3182 105.25 42.0832 105.117C41.7655 104.941 41.4519 104.76 41.1423 104.58C40.8992 104.439 40.6561 104.297 40.4211 104.152C40.229 104.031 40.0369 103.913 39.8485 103.796C39.6957 103.698 39.5425 103.604 39.3938 103.505C38.8371 103.145 38.3002 102.78 37.7787 102.408C37.6259 102.302 37.4727 102.192 37.32 102.078C37.1672 101.964 37.014 101.855 36.8653 101.741C36.6968 101.616 36.5323 101.49 36.3714 101.361C35.8069 100.922 35.2619 100.475 34.7445 100.02C34.5759 99.8752 34.415 99.7301 34.2546 99.585C33.5369 98.9343 32.8667 98.2718 32.2472 97.6011C32.1414 97.4872 32.0393 97.3774 31.9376 97.264C31.91 97.2328 31.8829 97.2012 31.8553 97.17C31.6199 96.9034 31.3926 96.6408 31.1729 96.3742C30.9298 96.08 30.6984 95.7862 30.4752 95.4879C30.3853 95.3741 30.2989 95.2606 30.2203 95.1427C30.1421 95.0406 30.0712 94.9389 29.9966 94.8367C29.7693 94.5114 29.5496 94.19 29.3458 93.8647C29.2478 93.7078 29.1497 93.5551 29.0598 93.3982C29.0521 93.3906 29.048 93.3824 29.0439 93.3747C38.2419 85.4395 55.2965 80.1113 74.8213 80.1113C94.9674 80.1118 112.489 85.7893 121.455 94.148Z" fill="url(#paint0_linear_94_685)" stroke="#871C20" stroke-width="0.723073" stroke-miterlimit="10" stroke-linecap="round" stroke-linejoin="round"/>
<path d="M15.8378 103.287C15.0957 100.357 14.7139 97.2266 14.7139 93.8987C14.7139 66.5019 39.607 49.2584 76.7847 49.7098C107.688 50.0854 131.052 64.0556 129.519 92.8542C128.305 115.679 116.821 132.328 86.102 134.978C70.752 136.302 57.1641 134.14 46.1287 130.744" stroke="#871C20" stroke-width="0.723073" stroke-miterlimit="10" stroke-linecap="round" stroke-linejoin="round"/>
<path d="M21.3882 97.7632C21.3882 97.7632 14.1484 103.815 11.3564 110.002" stroke="#871C20" stroke-width="0.723073" stroke-miterlimit="10" stroke-linecap="round" stroke-linejoin="round"/>
<path d="M90.6573 123.533C90.6573 125.086 89.3983 126.345 87.845 126.345C86.2918 126.345 85.0327 125.086 85.0327 123.533C85.0327 121.98 86.2918 120.721 87.845 120.721C89.3978 120.721 90.6573 121.98 90.6573 123.533Z" fill="#871C20" stroke="#871C20" stroke-width="0.723073" stroke-miterlimit="10" stroke-linecap="round" stroke-linejoin="round"/>
<path d="M111.322 120.124C112.932 120.124 114.238 118.819 114.238 117.208C114.238 115.598 112.932 114.292 111.322 114.292C109.711 114.292 108.405 115.598 108.405 117.208C108.405 118.819 109.711 120.124 111.322 120.124Z" fill="#871C20" stroke="#871C20" stroke-width="0.723073" stroke-miterlimit="10" stroke-linecap="round" stroke-linejoin="round"/>
<path d="M89.7473 149.969C89.2294 149.969 88.7124 149.764 88.3273 149.36C83.6558 144.453 81.7745 138.244 82.8871 131.402C83.7114 126.334 85.8942 122.711 85.9868 122.559C86.5499 121.635 87.7561 121.343 88.6812 121.906C89.6045 122.468 89.8973 123.673 89.3365 124.596C89.0296 125.105 82.0059 137.034 91.1668 146.657C91.9133 147.441 91.883 148.682 91.099 149.428C90.7193 149.789 90.2326 149.969 89.7473 149.969Z" fill="#7575C6" stroke="#871C20" stroke-width="0.723073" stroke-miterlimit="10" stroke-linecap="round" stroke-linejoin="round"/>
<path d="M119.256 139.688C119.103 139.688 118.948 139.67 118.792 139.632C117.74 139.377 117.094 138.317 117.35 137.265C120.557 124.061 110.97 119.173 110.561 118.972C109.593 118.495 109.188 117.324 109.659 116.354C110.132 115.383 111.294 114.975 112.267 115.442C112.402 115.506 115.605 117.072 118.277 120.674C120.731 123.979 123.222 129.702 121.16 138.191C120.942 139.087 120.14 139.688 119.256 139.688Z" fill="#7575C6" stroke="#871C20" stroke-width="0.723073" stroke-miterlimit="10" stroke-linecap="round" stroke-linejoin="round"/>
<path d="M123.998 50.6459C124.537 55.8398 121.039 60.4584 116.187 60.9614C111.335 61.4644 106.965 57.6619 106.426 52.4676C105.887 47.2736 109.385 42.655 114.237 42.152C119.089 41.6495 123.459 45.4519 123.998 50.6459Z" fill="#FCD9C4"/>
<path d="M107.286 47.2534C108.577 44.4849 111.129 42.4748 114.237 42.1526C119.089 41.6496 123.459 45.4521 123.998 50.646C124.537 55.8399 121.039 60.4585 116.187 60.9615C114.682 61.1174 113.223 60.8594 111.911 60.2737" stroke="#871C20" stroke-width="0.723073" stroke-miterlimit="10" stroke-linecap="round" stroke-linejoin="round"/>
<path d="M108.273 88.1038C111.09 96.9691 101.21 104.837 86.7315 107.395C71.0539 110.165 50.9019 103.882 47.2901 94.4682C43.1831 83.7627 64.0315 75.131 80.6387 74.2908C96.5341 73.4869 105.552 79.539 108.273 88.1038Z" fill="#FABAAF" stroke="#871C20" stroke-width="0.723073" stroke-miterlimit="10" stroke-linecap="round" stroke-linejoin="round"/>
<path d="M34.171 66.4841C33.7087 89.289 52.3988 103.358 75.9145 103.358C99.4302 103.358 119.33 89.2935 119.33 66.4841C119.33 43.6748 99.4306 22.0273 75.9145 22.0273C52.3988 22.0273 34.5551 47.5243 34.171 66.4841Z" fill="url(#paint1_linear_94_685)"/>
<path d="M61.8638 38.7098C58.5589 39.8897 47.9541 47.8209 52.7942 62.4451C53.1968 63.6621 52.2767 64.9374 51.033 65.2484C49.5426 65.6212 48.1023 64.5126 48.0612 62.9765C47.9753 59.7666 47.2857 54.7584 44.115 51.7233C39.1633 46.9831 35.6221 49.6996 35.6221 49.6996L46.5703 39.2222C46.5694 39.2222 65.0932 37.5569 61.8638 38.7098Z" fill="#871C20" stroke="#871C20" stroke-width="0.723073" stroke-miterlimit="10" stroke-linecap="round" stroke-linejoin="round"/>
<path d="M99.5991 69.236C99.1951 71.9964 96.2079 75.8386 90.464 76.4618C84.3319 76.9558 80.5877 73.2898 79.9921 70.581C79.7801 69.6202 79.9645 68.7773 80.58 68.2875C82.7402 66.2999 87.226 67.6991 90.135 67.4207C93.044 67.1464 96.1405 65.0296 98.6383 66.5742C99.454 67.0013 99.7794 68.0131 99.5991 69.236Z" fill="white" stroke="#871C20" stroke-width="0.723073" stroke-miterlimit="10" stroke-linecap="round" stroke-linejoin="round"/>
<path d="M90.0539 37.699C91.9135 39.5586 94.259 40.2288 95.2925 39.1953C96.3261 38.1617 95.6563 35.8162 93.7962 33.9566C91.9366 32.0969 89.5911 31.4267 88.5575 32.4603C87.524 33.4938 88.1937 35.8393 90.0539 37.699Z" fill="#871C20" stroke="#871C20" stroke-width="0.723073" stroke-miterlimit="10" stroke-linecap="round" stroke-linejoin="round"/>
<path d="M83.8145 34.0794C82.0768 36.0539 81.5576 38.4368 82.6548 39.4026C83.7521 40.3683 86.0501 39.5504 87.7877 37.5759C89.5254 35.6015 90.0446 33.2185 88.9474 32.2528C87.8501 31.287 85.5521 32.105 83.8145 34.0794Z" fill="#871C20" stroke="#871C20" stroke-width="0.723073" stroke-miterlimit="10" stroke-linecap="round" stroke-linejoin="round"/>
<path d="M34.171 66.4841C33.7087 89.289 52.3988 103.358 75.9145 103.358C99.4302 103.358 119.33 89.2935 119.33 66.4841C119.33 43.6748 99.4306 22.0273 75.9145 22.0273C52.3988 22.0273 34.5551 47.5243 34.171 66.4841Z" stroke="#871C20" stroke-width="0.723073" stroke-miterlimit="10" stroke-linecap="round" stroke-linejoin="round"/>
<path d="M36.4346 36.9628C36.0817 38.1505 35.8132 39.363 35.6221 40.5899C58.6529 39.3489 95.3032 31.5312 102.05 23.4938C83.1384 3.79679 43.2902 11.9485 36.4346 36.9628Z" fill="#9090DD" stroke="#871C20" stroke-width="0.723073" stroke-miterlimit="10" stroke-linecap="round" stroke-linejoin="round"/>
<path d="M30.7391 49.6216C31.8007 52.7588 33.5695 57.5089 37.264 58.8349C38.0517 56.1916 38.7078 54.8412 39.8123 52.5026C44.9864 39.5134 90.1324 28.8834 105.601 36.5543C107.54 37.516 109.446 38.9865 111.25 41.4224C113.379 39.1004 112.834 35.1434 111.903 30.8687C110.833 25.9545 107.779 24.1762 106.911 23.7383C89.5562 14.9764 45.9454 26.6057 33.1375 38.0063C29.0874 41.7419 29.6862 46.5078 30.7391 49.6216Z" fill="#9090DD" stroke="#871C20" stroke-width="0.723073" stroke-miterlimit="10" stroke-linecap="round" stroke-linejoin="round"/>
<path d="M38.3643 68.442C43.8305 67.552 47.5402 62.3993 46.6502 56.9332C45.7602 51.4671 40.6076 47.7574 35.1414 48.6473C29.6753 49.5373 25.9656 54.69 26.8556 60.1561C27.7456 65.6222 32.8982 69.3319 38.3643 68.442Z" fill="#FBCDBC"/>
<path d="M45.207 53.1307C43.4241 50.3513 40.3077 48.5098 36.7606 48.5098C31.2227 48.5098 26.7329 52.9991 26.7329 58.5374C26.7329 64.0757 31.2223 68.5651 36.7606 68.5651C38.4783 68.5651 40.0953 68.1331 41.5084 67.372" stroke="#871C20" stroke-width="0.723073" stroke-miterlimit="10" stroke-linecap="round" stroke-linejoin="round"/>
<path d="M37.1823 65.0258C37.9678 65.0258 38.7202 64.8753 39.4053 64.5996C41.6369 63.7138 43.2164 61.5406 43.2164 58.9917C43.2164 57.6961 42.8069 56.4926 42.0965 55.5065C41.0101 53.9686 39.2133 52.9658 37.1823 52.9658C35.8478 52.9658 34.615 53.3983 33.6162 54.1304" stroke="#871C20" stroke-width="0.723073" stroke-miterlimit="10" stroke-linecap="round" stroke-linejoin="round"/>
<path d="M38.293 61.1056C38.293 62.4008 38.7024 63.6129 39.4047 64.599C41.6363 63.7132 43.2157 61.5399 43.2157 58.9911C43.2157 57.6954 42.8063 56.492 42.0959 55.5059C39.8638 56.3839 38.293 58.5568 38.293 61.1056Z" fill="#871C20" stroke="#871C20" stroke-width="0.723073" stroke-miterlimit="10" stroke-linecap="round" stroke-linejoin="round"/>
<path d="M97.5479 51.8594C99.1843 54.0783 99.3804 56.8283 98.0748 59.2569" stroke="#871C20" stroke-width="7.23073" stroke-miterlimit="10" stroke-linecap="round" stroke-linejoin="round"/>
<path d="M76.207 53.5195C77.8434 55.7385 78.0396 58.4884 76.734 60.917" stroke="#871C20" stroke-width="7.23073" stroke-miterlimit="10" stroke-linecap="round" stroke-linejoin="round"/>
<path d="M96.785 66.0154C96.785 66.0154 98.97 64.4924 99.6877 63.9704C101.909 62.3548 103.086 60.2394 102.07 57.9075C101.053 55.5756 98.3387 54.509 96.0068 55.5254L90.3135 57.8605" fill="#FBD5BE"/>
<path d="M96.785 66.0154C96.785 66.0154 98.97 64.4924 99.6877 63.9704C101.909 62.3548 103.086 60.2394 102.07 57.9075C101.053 55.5756 98.3387 54.509 96.0068 55.5254L90.3135 57.8605" stroke="#871C20" stroke-width="0.723073" stroke-miterlimit="10" stroke-linecap="round" stroke-linejoin="round"/>
<path d="M67.6748 70.6308C69.9041 71.6851 72.3264 71.2391 73.0857 69.6348C73.8449 68.03 72.6532 65.8743 70.4239 64.82C68.1945 63.7657 65.7722 64.2117 65.013 65.816C64.2538 67.4208 65.4455 69.5765 67.6748 70.6308Z" fill="#FABAAF"/>
<path d="M108.691 64.3041C107.237 65.1921 105.503 65.0018 104.817 63.8793C104.131 62.7563 104.753 61.1257 106.206 60.2377C107.66 59.3492 109.395 59.5395 110.081 60.6625C110.767 61.7851 110.144 63.4156 108.691 64.3041Z" fill="#FABAAF"/>
<path d="M100.619 47.099C98.9525 43.3679 93.6072 43.5144 92.1475 47.3308" stroke="#871C20" stroke-width="0.723073" stroke-miterlimit="10" stroke-linecap="round" stroke-linejoin="round"/>
<path d="M80.9175 48.1927C79.2508 44.4617 73.9055 44.6081 72.4458 48.4246" stroke="#871C20" stroke-width="0.723073" stroke-miterlimit="10" stroke-linecap="round" stroke-linejoin="round"/>
<path d="M94.1895 66.4092C94.5388 66.7291 96.6832 70.0151 94.7648 75.2149" stroke="#871C20" stroke-width="0.723073" stroke-miterlimit="10" stroke-linecap="round" stroke-linejoin="round"/>
<path d="M90.3817 67.3911C90.3817 67.3911 92.63 71.1674 89.9253 76.4815" stroke="#871C20" stroke-width="0.723073" stroke-miterlimit="10" stroke-linecap="round" stroke-linejoin="round"/>
<path d="M85.6402 67.2412C85.6402 67.2412 87.0841 71.816 85.1792 75.5783" stroke="#871C20" stroke-width="0.723073" stroke-miterlimit="10" stroke-linecap="round" stroke-linejoin="round"/>
</g>
<defs>
<linearGradient id="paint0_linear_94_685" x1="32.3386" y1="121.034" x2="116.514" y2="83.3993" gradientUnits="userSpaceOnUse">
<stop offset="0.1031" stop-color="#D6E8ED"/>
<stop offset="0.1854" stop-color="#DEECF0"/>
<stop offset="0.4424" stop-color="#F0F7F9"/>
<stop offset="0.7094" stop-color="#FBFDFD"/>
<stop offset="1" stop-color="white"/>
</linearGradient>
<linearGradient id="paint1_linear_94_685" x1="32.9075" y1="100.475" x2="135.62" y2="16.2088" gradientUnits="userSpaceOnUse">
<stop stop-color="#F79292"/>
<stop offset="0.0345" stop-color="#F8A09C"/>
<stop offset="0.1011" stop-color="#F9B6AC"/>
<stop offset="0.1748" stop-color="#FAC5B7"/>
<stop offset="0.2603" stop-color="#FBCEBD"/>
<stop offset="0.385" stop-color="#FBD1BF"/>
<stop offset="0.4315" stop-color="#FBD2C0"/>
<stop offset="0.8047" stop-color="#FCDAC5"/>
</linearGradient>
<clipPath id="clip0_94_685">
<rect width="150" height="150" rx="75" fill="white"/>
</clipPath>
</defs>
</svg>
