<svg width="150" height="150" viewBox="0 0 150 150" fill="none" xmlns="http://www.w3.org/2000/svg">
<g clip-path="url(#clip0_94_1018)">
<rect width="150" height="150" rx="75" fill="#9AB78D"/>
<path d="M149.871 91.4169V227.962C149.871 229.75 149.531 231.57 148.828 233.225C148.398 234.242 147.827 235.21 147.14 236.079C146.718 236.625 146.238 237.13 145.717 237.593C144.377 238.793 142.755 239.678 141.026 240.183C139.288 240.688 137.451 240.812 135.672 240.597L14.6489 226.225C12.7293 225.993 10.8511 225.373 9.13838 224.438C7.42567 223.511 5.895 222.278 4.60426 220.822C3.32179 219.366 2.27923 217.694 1.56767 215.882C0.847833 214.079 0.458984 212.134 0.458984 210.198V82.7788C8.79088 76.987 18.9513 73.5947 29.9226 73.5947C48.5556 73.5947 64.8637 83.3994 73.8161 98.0443C83.1575 85.7492 98.0589 77.7979 114.855 77.7979C128.4 77.7979 140.711 82.9774 149.871 91.4169Z" fill="#FBD5BE"/>
<path d="M150 202.479L149.871 227.962C149.871 229.75 149.531 231.57 148.828 233.225C148.398 234.242 147.827 235.21 147.14 236.079C146.718 236.625 146.238 237.13 145.717 237.593C144.377 238.793 142.755 239.678 141.026 240.183C139.288 240.688 137.451 240.812 135.672 240.597L14.6489 226.225C12.7293 225.993 10.8511 225.373 9.13838 224.438C7.42567 223.511 5.895 222.278 4.60426 220.822C3.32179 219.366 2.27923 217.694 1.56767 215.882C0.847833 214.079 0.458984 212.134 0.458984 210.198V151.602C14.3328 144.971 8.82813 133.862 12.6797 97.8623C13.8744 86.6982 18.7685 76.11 18.8761 75.8701C19.2484 75.0344 20.5176 73.1471 25.1924 72.4438C27.989 72.0219 29.5578 72.5605 30.5341 73.8264C30.5258 73.8512 19.7564 129.848 62.9276 133.977C97.7064 137.303 104.833 111.682 107.133 103.289C109.354 95.1849 115.219 80.7898 117.271 77.8525C117.271 77.8525 119.692 74.9525 125.197 76.599C127.778 77.371 129.098 78.4143 129.09 79.7704C129.09 79.7704 122.42 108.53 122.42 125.691C122.42 143.984 118.843 221.394 135.543 219.681C147.044 218.503 150 202.479 150 202.479Z" fill="#EBF0F3" stroke="#871C20" stroke-width="1.16566" stroke-miterlimit="10"/>
<path d="M25.7799 59.4372C25.2313 64.7284 28.7941 69.433 33.737 69.9459C38.6799 70.4589 43.1321 66.5842 43.6806 61.293C44.2292 56.0018 40.6665 51.2972 35.7236 50.7842C30.7807 50.2721 26.3284 54.146 25.7799 59.4372Z" fill="#FBD5BE"/>
<path d="M42.8052 55.9811C41.4897 53.1605 38.89 51.1127 35.7236 50.7842C30.7807 50.2721 26.3284 54.146 25.7799 59.4372C25.2313 64.7284 28.7941 69.433 33.737 69.946C35.2702 70.1048 36.7562 69.8417 38.0933 69.2452" stroke="#871C20" stroke-width="1.16566" stroke-miterlimit="10" stroke-linecap="round" stroke-linejoin="round"/>
<path d="M117.289 75.572C117.76 98.8037 98.72 113.137 74.7644 113.137C50.8087 113.137 30.5366 98.8087 30.5366 75.572C30.5366 52.3354 50.8087 30.2827 74.7644 30.2827C98.72 30.2827 116.898 56.2572 117.289 75.572Z" fill="#FBD5BE"/>
<path d="M60.3593 46.2473C58.4645 48.1421 56.075 48.8246 55.0225 47.7714C53.9701 46.7189 54.6519 44.3294 56.5466 42.4346C58.4414 40.5399 60.8308 39.8573 61.8833 40.9106C62.9366 41.9639 62.254 44.3526 60.3593 46.2473Z" fill="#871C20" stroke="#871C20" stroke-width="1.16566" stroke-miterlimit="10" stroke-linecap="round" stroke-linejoin="round"/>
<path d="M66.7166 42.5601C68.4873 44.5715 69.0159 46.9991 67.8981 47.9829C66.7803 48.9666 64.4396 48.1335 62.669 46.1221C60.8984 44.1107 60.3696 41.6831 61.4874 40.6993C62.6052 39.7155 64.946 40.5487 66.7166 42.5601Z" fill="#871C20" stroke="#871C20" stroke-width="1.16566" stroke-miterlimit="10" stroke-linecap="round" stroke-linejoin="round"/>
<path d="M117.289 75.572C117.76 98.8037 98.72 113.137 74.7644 113.137C50.8087 113.137 30.5366 98.8087 30.5366 75.572C30.5366 52.3354 50.8087 30.2827 74.7644 30.2827C98.72 30.2827 116.898 56.2572 117.289 75.572Z" stroke="#871C20" stroke-width="1.16566" stroke-miterlimit="10" stroke-linecap="round" stroke-linejoin="round"/>
<path d="M53.8737 57.8608C52.0551 60.3273 51.8375 63.3829 53.2879 66.0819" stroke="#871C20" stroke-width="5.82828" stroke-miterlimit="10" stroke-linecap="round" stroke-linejoin="round"/>
<path d="M75.4567 59.1777C73.6381 61.6434 73.4205 64.6998 74.8709 67.3987" stroke="#871C20" stroke-width="5.82828" stroke-miterlimit="10" stroke-linecap="round" stroke-linejoin="round"/>
<path d="M59.506 74.5195L54.5806 72.1987C52.6114 71.2529 51.7814 68.8907 52.7272 66.9223C53.672 64.9531 56.0352 64.1233 58.0035 65.069L62.929 67.3898" fill="#FBD5BE"/>
<path d="M59.506 74.5195L54.5806 72.1987C52.6114 71.2529 51.7814 68.8907 52.7272 66.9223C53.672 64.9531 56.0352 64.1233 58.0035 65.069L62.929 67.3898" stroke="#871C20" stroke-width="1.16566" stroke-miterlimit="10" stroke-linecap="round" stroke-linejoin="round"/>
<path d="M69.992 88.7101C69.2572 88.6787 68.53 88.4925 67.8589 88.1591C66.2025 87.3366 64.4575 87.3367 61.9943 88.0764C60.0111 88.6721 57.7581 88.0697 56.3531 86.3157C54.5486 84.0627 55.1286 80.624 57.3435 78.7731C62.1309 74.7734 69.2117 75.063 73.6565 79.4308C76.0137 81.7467 76.0758 85.5205 73.4877 87.5758C72.4659 88.3875 71.2198 88.7623 69.992 88.7101Z" fill="#871C20" stroke="#871C20" stroke-width="1.16566" stroke-miterlimit="10" stroke-linecap="round" stroke-linejoin="round"/>
<path d="M62.5845 86.9503C62.5845 86.9503 59.3915 89.0875 55.8412 91.3182V91.3264C52.1543 93.6423 48.1017 96.0856 46.825 96.3835C45.3862 96.7153 43.8621 95.9235 43.3682 94.5359C42.7724 92.8845 43.6999 91.1047 45.3605 90.619C45.3862 90.6108 45.4201 90.6108 45.4457 90.6108L53.8745 87.8952C53.8745 87.8952 53.8745 87.8952 53.8827 87.8952L61.8522 85.3328C62.8649 85.001 63.4954 86.4059 62.5845 86.9503Z" fill="white" stroke="#871C20" stroke-width="1.16566" stroke-miterlimit="10" stroke-linecap="round" stroke-linejoin="round"/>
<path d="M62.5845 86.9508C62.5845 86.9508 59.3916 89.088 55.8412 91.3186C56.2756 88.2449 54.0706 87.9214 53.8828 87.8957L61.8523 85.3333C62.865 85.0015 63.4955 86.4064 62.5845 86.9508Z" fill="#F4736C" stroke="#871C20" stroke-width="1.16566" stroke-miterlimit="10" stroke-linecap="round" stroke-linejoin="round"/>
<path d="M47.9836 92.9121C48.4776 94.1946 47.9017 95.6103 46.6979 96.0736C45.494 96.5378 44.1172 95.8742 43.6232 94.5918C43.1293 93.3093 43.7051 91.8936 44.909 91.4294C46.1128 90.9669 47.4897 91.6305 47.9836 92.9121Z" fill="#871C20"/>
<path d="M84.347 60.3644C80.9687 61.6716 78.7885 61.2778 75.3887 61.1611C70.7942 61.0031 68.5437 60.0872 68.3542 59.9862C67.3754 59.4641 66.558 58.0939 66.764 56.9381C66.764 56.9381 68.9252 55.3362 73.4775 55.4876C78.029 55.6399 84.347 60.3644 84.347 60.3644Z" fill="#FBD5BE"/>
<path d="M59.8381 57.042C59.8017 58.4171 58.8857 59.5275 57.6587 59.9726C55.4512 60.7735 53.0021 60.6204 51.3109 60.3242C47.5528 59.6648 44.4352 59.2875 44.1787 58.9375C44.1787 58.9375 47.7026 54.1295 52.9144 53.9632C58.1253 53.7969 59.8381 57.042 59.8381 57.042Z" fill="#FBD5BE"/>
<path d="M46.4082 60.2511C48.7787 60.2892 55.1042 60.6077 57.66 59.9731C58.9152 59.6628 59.803 58.4176 59.8394 57.0425" stroke="#871C20" stroke-width="1.16566" stroke-miterlimit="10" stroke-linecap="round" stroke-linejoin="round"/>
<path d="M83.747 60.9699C78.3855 61.3414 70.9819 61.6186 68.5841 60.3055C66.9913 59.4326 66.5586 58.0939 66.7638 56.938" stroke="#871C20" stroke-width="1.16566" stroke-miterlimit="10" stroke-linecap="round" stroke-linejoin="round"/>
<path d="M66.3864 76.0188V80.8094C65.8817 80.8094 65.3687 80.7929 64.8475 80.7763C61.6537 80.6439 58.7413 80.2302 56.5073 79.6428C56.7473 79.3284 57.0286 79.0388 57.343 78.774C59.941 76.598 63.2175 75.6878 66.3864 76.0188Z" fill="white" stroke="#871C20" stroke-width="1.16566" stroke-miterlimit="10" stroke-linecap="round" stroke-linejoin="round"/>
<path d="M74.2549 80.1392C72.7738 80.4701 70.9205 80.6936 68.8438 80.7846V76.5317C70.5978 77.0861 72.2526 78.0542 73.6509 79.4276C73.8826 79.651 74.0894 79.891 74.2549 80.1392Z" fill="white" stroke="#871C20" stroke-width="1.16566" stroke-miterlimit="10" stroke-linecap="round" stroke-linejoin="round"/>
<path d="M114.983 45.4978C115.342 46.7074 115.615 47.9427 115.811 49.1929C92.349 47.9287 55.0119 39.9641 48.1387 31.777C67.4038 11.7101 107.998 20.0147 114.983 45.4978Z" fill="#8D95B7" stroke="#871C20" stroke-width="1.16566" stroke-miterlimit="10"/>
<path d="M120.786 58.3938C119.705 61.5901 117.903 66.4287 114.139 67.7798C113.337 65.0875 112.668 63.7115 111.543 61.3286C106.272 48.096 60.2804 37.2671 44.5218 45.0818C42.5459 46.0615 40.6057 47.5599 38.7673 50.0412C36.5978 47.6757 37.1538 43.6446 38.102 39.29C39.1925 34.2835 42.3044 32.4723 43.1881 32.0263C60.8679 23.1004 105.295 34.947 118.343 46.5612C122.469 50.3664 121.859 55.2216 120.786 58.3938Z" fill="#8D95B7" stroke="#871C20" stroke-width="1.16566" stroke-miterlimit="10"/>
<path d="M124.759 69.1105C125.663 63.5416 121.881 58.2946 116.312 57.3908C110.743 56.487 105.496 60.2687 104.593 65.8376C103.689 71.4064 107.47 76.6536 113.039 77.5573C118.608 78.4611 123.855 74.6793 124.759 69.1105Z" fill="#FBD5BE"/>
<path d="M106.047 61.9688C107.864 59.1374 111.038 57.2617 114.652 57.2617C120.294 57.2617 124.867 61.8355 124.867 67.4767C124.867 73.1188 120.294 77.6918 114.652 77.6918C112.902 77.6918 111.255 77.2516 109.815 76.4764" stroke="#871C20" stroke-width="1.16566" stroke-miterlimit="10" stroke-linecap="round" stroke-linejoin="round"/>
<path d="M114.222 74.0863C113.422 74.0863 112.655 73.9332 111.957 73.6519C109.684 72.7492 108.075 70.536 108.075 67.9388C108.075 66.6191 108.492 65.3928 109.216 64.3884C110.323 62.8221 112.153 61.8003 114.223 61.8003C115.582 61.8003 116.838 62.2404 117.856 62.9867" stroke="#871C20" stroke-width="1.16566" stroke-miterlimit="10" stroke-linecap="round" stroke-linejoin="round"/>
<path d="M113.09 70.0931C113.09 71.4128 112.673 72.6473 111.957 73.6517C109.685 72.749 108.075 70.5358 108.075 67.9386C108.075 66.6189 108.492 65.3926 109.216 64.3882C111.49 65.2826 113.09 67.4959 113.09 70.0931Z" fill="#871C20" stroke="#871C20" stroke-width="1.16566" stroke-miterlimit="10" stroke-linecap="round" stroke-linejoin="round"/>
<path d="M66.516 119.967C67.9284 122.401 67.0994 125.519 64.6652 126.932C62.7175 128.061 60.2229 127.399 59.0935 125.452C58.1899 123.894 58.7203 121.898 60.2783 120.994C61.5244 120.271 63.1212 120.696 63.8443 121.942C64.4227 122.939 64.0834 124.216 63.0864 124.795C62.2888 125.257 61.267 124.986 60.8045 124.188" stroke="#871C20" stroke-width="1.16566" stroke-miterlimit="10" stroke-linecap="round" stroke-linejoin="round"/>
</g>
<defs>
<clipPath id="clip0_94_1018">
<rect width="150" height="150" rx="75" fill="white"/>
</clipPath>
</defs>
</svg>
