<svg width="150" height="150" viewBox="0 0 150 150" fill="none" xmlns="http://www.w3.org/2000/svg">
<g clip-path="url(#clip0_94_722)">
<rect width="150" height="150" rx="75" fill="#849BD6"/>
<path d="M129.703 111.835C134.475 107.987 135.576 101.637 134.964 95.0281C133.608 80.3819 115.136 63.6731 75.2937 63.7237C29.0875 63.7825 15.6231 78.3606 15.6231 93.0694C15.6231 96.0275 16.0819 98.7813 17.9488 101.515C6.01439 109.41 -2.13687 121.36 -5.625 133.241L149.834 150.254C148.617 135.286 141.437 122.074 129.703 111.835Z" fill="url(#paint0_linear_94_722)" stroke="#871C20" stroke-miterlimit="10" stroke-linecap="round" stroke-linejoin="round"/>
<path d="M123.073 89.4577C123.451 78.8533 104.557 69.7183 81.0534 69.0608C57.5496 68.4033 44.124 101.846 44.124 101.846C44.124 101.846 57.3277 110.779 60.9121 122.324C65.4759 113.266 85.5146 106.781 88.449 105.57C88.449 105.569 122.48 106.075 123.073 89.4577Z" fill="#871C20" stroke="#871C20" stroke-miterlimit="10" stroke-linecap="round" stroke-linejoin="round"/>
<path d="M124.567 107.749C139.337 118.442 148.448 133.21 149.834 150.255L-5.625 133.241C-1.68375 119.819 6.98937 108.388 19.4062 100.598" stroke="#871C20" stroke-miterlimit="10" stroke-linecap="round" stroke-linejoin="round"/>
<path d="M118.318 80.0337C119.193 80.3787 120.104 80.9205 120.993 81.6268" stroke="#65BA64"/>
<path d="M123.274 83.8774C125.753 86.8699 127.53 91.1349 126.885 95.6874C125.991 102.001 119.174 104.79 110.286 106.737C99.9464 109.003 95.9758 109.992 83.1883 113.45C72.6845 116.291 66.4864 121.371 63.2695 124.864" stroke="#65BA64" stroke-dasharray="10.28 5.14"/>
<path d="M62.2155 126.073C60.9549 127.606 60.4093 128.616 60.4093 128.616C60.4093 128.616 59.9524 127.552 59.0562 125.801" stroke="#65BA64"/>
<path d="M57.7598 123.375C56.6417 121.365 55.1761 118.925 53.3748 116.325C50.2692 111.844 43.3673 103.922 37.2261 99.5596" stroke="#65BA64" stroke-dasharray="8.81 4.41"/>
<path d="M36.0847 98.7863C35.1422 98.1781 34.2253 97.6675 33.3516 97.2812" stroke="#65BA64"/>
<path d="M84.2303 107.161C77.2659 109.834 64.4453 115.31 60.9115 122.326C57.3265 110.777 44.124 101.845 44.124 101.845C44.124 101.845 44.5153 100.866 45.2828 99.2437C49.5634 95.7768 55.3584 93.6499 61.7453 93.6499C72.1409 93.6499 80.9746 99.2906 84.2303 107.161Z" fill="#FFD3C0" stroke="#871C20"/>
<path d="M47.5722 98.3497C44.7547 98.8228 35.3297 99.8628 29.4691 95.0278C21.6747 88.5978 28.9654 84.5016 28.7204 73.3828C28.7641 75.3747 30.8904 76.0072 31.9335 76.9491C38.421 82.8059 38.4172 93.7703 47.5722 98.3497Z" fill="#FFD67B" stroke="#871C20" stroke-miterlimit="10" stroke-linecap="round" stroke-linejoin="round"/>
<path d="M37.1188 58.2033L37.1194 58.2133C33.5832 64.1083 31.66 70.9871 31.9444 77.8383C26.7169 75.9864 23.8682 69.572 24.4869 64.3245C25.2082 58.0845 31.7557 54.322 37.1188 58.2033Z" fill="#FFD3C0" stroke="#871C20" stroke-miterlimit="10" stroke-linecap="round" stroke-linejoin="round"/>
<path d="M29.4697 61.4499C31.2266 60.5093 33.5179 61.1636 34.9622 62.3886" stroke="#871C20" stroke-miterlimit="10" stroke-linecap="round" stroke-linejoin="round"/>
<path d="M115.731 102.001C114.187 105.951 110.449 107.501 106.412 106.964C102.831 106.82 97.0993 104.201 94.0181 106.045C107.943 97.7137 110.812 82.6137 107.356 68.9262C109.062 69.0887 111.012 68.1324 111.362 65.5637C111.881 61.7574 111.731 58.0012 110.993 54.3887C118.068 69.2199 121.699 86.3512 115.731 102.001Z" fill="#FFD67B" stroke="#871C20" stroke-miterlimit="10" stroke-linecap="round" stroke-linejoin="round"/>
<path d="M108.729 83.1642C108.046 98.6336 96.0493 109.472 75.8643 110.73C51.1331 112.271 29.2043 100.656 32.1237 72.8023C34.4168 51.9273 55.9668 34.7661 76.9075 40.2673C97.5237 44.8961 110.076 62.2173 108.729 83.1623C108.729 83.163 108.729 83.1636 108.729 83.1642Z" fill="#FFD3C0" stroke="#871C20"/>
<path d="M111.362 65.5639C111.012 68.1326 109.062 69.0889 107.356 68.9264C107.15 68.1139 106.925 67.3076 106.675 66.5076C106 66.4576 105.318 66.5014 104.656 66.6326C103.137 66.9264 101.706 67.6576 100.537 68.6701C100.506 68.7264 100.475 68.7764 100.418 68.8201L100.387 68.8014C100.118 69.0514 99.8558 69.3139 99.6495 69.6139V69.6014C99.487 68.5389 98.5495 67.9701 97.6183 67.6326C96.8933 67.3139 96.1808 66.9701 95.4683 66.6201C92.6058 65.2014 89.8558 63.5576 87.2433 61.7264C79.2183 56.0389 72.2933 48.6764 67.3745 40.1451C60.1495 49.1826 49.5933 56.3576 37.7933 57.1201L37.1183 58.2014C35.3745 56.9014 34.1245 56.8139 33.062 56.6514C33.062 53.1076 36.287 44.9076 40.8433 40.3014H40.8495C40.8745 40.2701 40.9058 40.2451 40.937 40.2139C42.6995 38.4639 44.637 36.9701 46.7058 35.7139C46.7183 35.7076 46.7308 35.7014 46.7433 35.6951C54.7808 30.8326 64.7995 29.5201 74.0933 30.5826C82.3995 31.5014 90.387 34.4951 97.6183 38.6014C101.025 40.5826 104.637 42.6076 106.606 46.1639C108.162 48.8014 109.643 51.5514 110.993 54.3889C111.731 58.0014 111.881 61.7576 111.362 65.5639Z" fill="#FFD67B" stroke="#871C20" stroke-miterlimit="10" stroke-linecap="round" stroke-linejoin="round"/>
<path d="M69.7095 39.103C69.7095 39.103 78.6251 56.0687 97.4932 64.6724" stroke="#EDA53E" stroke-linecap="round" stroke-linejoin="round"/>
<path d="M82.6577 50.7324C86.839 55.0855 92.4665 59.7762 99.6008 63.3062" stroke="#EDA53E" stroke-linecap="round" stroke-linejoin="round"/>
<path d="M67.373 40.1416C67.373 40.1416 69.6024 28.8698 80.5062 31.7029" stroke="#871C20" stroke-miterlimit="10"/>
<path d="M40.8503 40.3043C47.3403 33.3231 58.9759 30.1368 69.9746 30.89C90.0734 32.2668 103.843 46.68 104.643 66.5193C104.766 69.5662 110.719 70.2537 111.359 65.5662C114.126 45.3025 97.9883 26.3993 74.5333 23.9975C63.5865 22.8762 45.734 25.1068 40.8452 40.3006L40.8503 40.3043Z" fill="#F4736C" stroke="#871C20" stroke-miterlimit="10" stroke-linecap="round" stroke-linejoin="round"/>
<path d="M115.032 75.4788C113.625 82.4738 105.42 87.5956 99.1689 82.7638C92.8621 77.9375 94.8558 68.6988 101.175 64.8532C108.3 60.3213 116.626 67.8031 115.032 75.4788Z" fill="#FFD3C0"/>
<path d="M103.473 84.5924C110.898 85.6649 117.293 76.9024 114.583 70.0587C113.094 65.7393 108.363 62.6493 103.785 63.6006C100.95 64.1349 98.7641 66.3337 97.2734 68.6812" stroke="#871C20"/>
<path d="M112.466 76.0937C113.659 70.6931 108.356 66.2118 103.465 69.2324C101.289 70.7999 100.551 73.9818 101.752 76.3656C102.45 77.7443 103.395 79.2268 104.955 79.7018" stroke="#871C20"/>
<path d="M102.924 78.2423C100.098 75.646 100.71 71.2291 103.73 69.0566C105.143 71.9841 104.624 75.5385 102.924 78.2423Z" fill="#871C20" stroke="#871C20" stroke-miterlimit="10" stroke-linecap="round" stroke-linejoin="round"/>
<path d="M52.5662 72.4506C52.4006 72.4412 52.2362 72.4138 52.0775 72.37C51.9181 72.3263 51.7643 72.2663 51.6187 72.1931C51.4731 72.12 51.3356 72.0331 51.2081 71.9356C51.0806 71.8381 50.9631 71.7294 50.8568 71.6125C50.7506 71.4957 50.6556 71.3706 50.5725 71.24C50.4618 71.065 50.3725 70.88 50.2856 70.6944C50.1768 70.4619 50.0719 70.2288 49.9775 69.9919C49.8644 69.7075 49.7662 69.4175 49.6812 69.1244C49.5962 68.8313 49.5243 68.535 49.4668 68.2369C49.4093 67.9382 49.3668 67.6375 49.3387 67.3356C49.3106 67.0338 49.2981 66.7306 49.3006 66.4275C49.3031 66.1244 49.3212 65.8213 49.355 65.52C49.3887 65.2188 49.4381 64.9187 49.5037 64.6219C49.5694 64.325 49.6506 64.0312 49.7475 63.7412C49.8443 63.4512 49.9562 63.1656 50.0862 62.8875C50.2156 62.6094 50.3631 62.3381 50.5175 62.0694C50.6462 61.8456 50.78 61.6238 50.9437 61.4207C51.075 61.2582 51.2256 61.1075 51.3987 60.9825C51.5287 60.8887 51.6719 60.8094 51.8231 60.7469C51.9744 60.6844 52.135 60.6388 52.2993 60.6119C52.4637 60.585 52.6325 60.5769 52.8 60.5875C52.9675 60.5981 53.1337 60.6269 53.295 60.6725C53.4562 60.7181 53.6112 60.7806 53.7581 60.8569C53.905 60.9331 54.0431 61.0231 54.1712 61.1238C54.2993 61.2244 54.4175 61.3356 54.5237 61.455C54.6306 61.5744 54.7256 61.7025 54.8087 61.8363C54.8918 61.97 54.9631 62.1094 55.0218 62.2531C55.0806 62.3969 55.1269 62.5444 55.1612 62.6938C55.195 62.8431 55.2162 62.995 55.2243 63.1469C55.2325 63.2988 55.2281 63.4513 55.21 63.6019C55.1919 63.7525 55.1594 63.9013 55.1144 64.0469C55.0687 64.1925 55.01 64.3344 54.935 64.4681C54.835 64.6463 54.7075 64.8107 54.5993 64.985C54.4643 65.2032 54.36 65.4375 54.2775 65.6775C54.1787 65.9656 54.1106 66.2619 54.0812 66.5619C54.0518 66.8612 54.0606 67.1644 54.0987 67.4656C54.1375 67.7663 54.2056 68.065 54.3162 68.3494C54.4081 68.5863 54.53 68.8131 54.6306 69.0481C54.7112 69.2356 54.7781 69.4281 54.8206 69.625C54.8525 69.7725 54.8712 69.9225 54.8769 70.0719C54.8825 70.2219 54.875 70.3719 54.8543 70.52C54.8337 70.6681 54.7993 70.8144 54.7518 70.9575C54.7037 71.1 54.6425 71.2388 54.5668 71.3706C54.4912 71.5025 54.4018 71.6281 54.2981 71.7431C54.195 71.8588 54.0781 71.9638 53.9493 72.0556C53.8206 72.1475 53.68 72.2263 53.5306 72.2881C53.3812 72.3506 53.2231 72.3963 53.0612 72.4238C52.8981 72.4513 52.7318 72.46 52.5662 72.4506Z" fill="#871C20" stroke="#871C20" stroke-miterlimit="10" stroke-linecap="round" stroke-linejoin="round"/>
<path d="M73.0421 75.1234C72.8809 75.1147 72.7209 75.0878 72.5665 75.0453C72.4121 75.0028 72.2628 74.9441 72.1221 74.8728C71.9815 74.8009 71.8484 74.7159 71.7259 74.6203C71.6034 74.5247 71.4903 74.4185 71.389 74.3035C71.2871 74.1885 71.1965 74.066 71.1184 73.9366C71.0134 73.7647 70.9296 73.5822 70.849 73.3991C70.7478 73.1703 70.6503 72.9404 70.5628 72.7066C70.4584 72.426 70.3684 72.1403 70.2921 71.851C70.2153 71.5616 70.1515 71.2697 70.1021 70.9753C70.0528 70.681 70.0178 70.3841 69.9971 70.0859C69.9765 69.7878 69.9709 69.4885 69.9809 69.1897C69.9903 68.8903 70.0152 68.5916 70.0552 68.2941C70.0952 67.9966 70.1509 67.7003 70.2227 67.4078C70.294 67.1147 70.3815 66.8247 70.4834 66.5391C70.5852 66.2535 70.7021 65.9716 70.8359 65.6972C70.9696 65.4228 71.1203 65.1554 71.2784 64.891C71.4096 64.6704 71.5465 64.4516 71.7121 64.2516C71.8446 64.0916 71.9959 63.9441 72.169 63.821C72.2984 63.7291 72.4402 63.651 72.5896 63.5897C72.739 63.5285 72.8971 63.4835 73.0578 63.4572C73.2184 63.431 73.3834 63.4228 73.5465 63.4328C73.7096 63.4428 73.8715 63.4709 74.0278 63.5153C74.184 63.5597 74.3346 63.621 74.4765 63.6953C74.6184 63.7697 74.7515 63.8579 74.8753 63.9566C74.9984 64.0554 75.1115 64.1647 75.2134 64.2822C75.3153 64.3997 75.4059 64.5254 75.4846 64.6566C75.5634 64.7885 75.6303 64.926 75.6846 65.0672C75.739 65.2085 75.7815 65.3541 75.8115 65.5016C75.8415 65.6491 75.859 65.7985 75.864 65.9491C75.869 66.0991 75.8609 66.2497 75.8396 66.3978C75.8184 66.5466 75.7834 66.6935 75.7359 66.8366C75.6878 66.9803 75.6271 67.1203 75.5502 67.2522C75.4484 67.4278 75.319 67.5897 75.209 67.7622C75.0715 67.9772 74.964 68.2084 74.8771 68.4453C74.7734 68.7297 74.6996 69.0222 74.664 69.3178C74.6278 69.6134 74.6297 69.9128 74.6603 70.2097C74.6909 70.5066 74.7515 70.801 74.8534 71.0816C74.9384 71.3153 75.0528 71.5391 75.1459 71.7703C75.2203 71.9553 75.2815 72.1453 75.3184 72.3397C75.3459 72.4853 75.3609 72.6328 75.3621 72.781C75.364 72.9291 75.3528 73.0766 75.329 73.2235C75.3047 73.3697 75.2678 73.5141 75.2171 73.6547C75.1665 73.7953 75.1022 73.9316 75.0247 74.0616C74.9472 74.1916 74.8559 74.3147 74.7515 74.4284C74.6471 74.5416 74.5303 74.6453 74.4015 74.7359C74.2734 74.8259 74.1334 74.9035 73.9859 74.9641C73.8384 75.0254 73.6828 75.0703 73.524 75.0972C73.3659 75.1241 73.2034 75.1328 73.0421 75.1234Z" fill="#871C20" stroke="#871C20" stroke-miterlimit="10" stroke-linecap="round" stroke-linejoin="round"/>
<path d="M52.4277 73.4542C52.1665 71.1436 50.7259 69.1549 48.5509 68.4655C47.0434 67.988 45.4653 68.223 44.124 68.9911" fill="#FFD3C0"/>
<path d="M52.4277 73.4542C52.1665 71.1436 50.7259 69.1549 48.5509 68.4655C47.0434 67.988 45.4653 68.223 44.124 68.9911" stroke="#871C20"/>
<path d="M44.1405 71.7389C43.8423 72.9583 44.8667 74.2564 46.4286 74.6383C47.9904 75.0208 49.4992 74.3421 49.7973 73.1233C50.0954 71.9046 49.0711 70.6058 47.5092 70.2239C45.9467 69.8414 44.4386 70.5195 44.1405 71.7389Z" fill="#FCB7AD"/>
<path d="M58.6163 77.1669C57.8438 76.8619 57.0656 76.5656 56.2931 76.2544C55.7512 76.0363 55.2119 75.8113 54.6644 75.6025C54.3513 75.4832 54.0357 75.3694 53.7282 75.2369C53.4975 75.1375 53.2712 75.0275 53.0606 74.8969C52.85 74.7663 52.6544 74.615 52.4744 74.45C52.2938 74.2857 52.1287 74.1075 51.98 73.9194C51.8312 73.7313 51.6981 73.5319 51.5825 73.3257C51.4663 73.1194 51.3663 72.905 51.2838 72.6863C51.2006 72.4669 51.1344 72.2431 51.085 72.0156C51.0357 71.7881 51.0037 71.5581 50.9887 71.3275C50.9744 71.0963 50.9775 70.8644 50.9994 70.6344C51.0213 70.4038 51.0613 70.175 51.12 69.9506C51.1788 69.7256 51.2563 69.505 51.3538 69.2919C51.4506 69.0782 51.5675 68.8719 51.7038 68.6769C51.84 68.4819 51.9956 68.2981 52.17 68.1294C52.3444 67.9606 52.5369 67.8082 52.745 67.6744C52.9531 67.5413 53.1775 67.4275 53.4125 67.3369C53.6475 67.2469 53.8944 67.1794 54.1462 67.1381C54.3981 67.0963 54.6556 67.0807 54.9125 67.09C55.2544 67.1025 55.595 67.1613 55.92 67.2588C56.3263 67.3807 56.7087 67.5638 57.0938 67.7357C57.71 68.0107 58.3344 68.2581 58.9588 68.505C59.7388 68.8131 60.52 69.1213 61.3069 69.4107" fill="#FFD3C0"/>
<path d="M58.6163 77.1669C57.8438 76.8619 57.0656 76.5656 56.2931 76.2544C55.7512 76.0363 55.2119 75.8113 54.6644 75.6025C54.3513 75.4832 54.0357 75.3694 53.7282 75.2369C53.4975 75.1375 53.2712 75.0275 53.0606 74.8969C52.85 74.7663 52.6544 74.615 52.4744 74.45C52.2938 74.2857 52.1287 74.1075 51.98 73.9194C51.8312 73.7313 51.6981 73.5319 51.5825 73.3257C51.4663 73.1194 51.3663 72.905 51.2838 72.6863C51.2006 72.4669 51.1344 72.2431 51.085 72.0156C51.0357 71.7881 51.0037 71.5581 50.9887 71.3275C50.9744 71.0963 50.9775 70.8644 50.9994 70.6344C51.0213 70.4038 51.0613 70.175 51.12 69.9506C51.1788 69.7256 51.2563 69.505 51.3538 69.2919C51.4506 69.0782 51.5675 68.8719 51.7038 68.6769C51.84 68.4819 51.9956 68.2981 52.17 68.1294C52.3444 67.9606 52.5369 67.8082 52.745 67.6744C52.9531 67.5413 53.1775 67.4275 53.4125 67.3369C53.6475 67.2469 53.8944 67.1794 54.1462 67.1381C54.3981 67.0963 54.6556 67.0807 54.9125 67.09C55.2544 67.1025 55.595 67.1613 55.92 67.2588C56.3263 67.3807 56.7087 67.5638 57.0937 67.7357C57.71 68.0107 58.3344 68.2581 58.9588 68.505C59.7388 68.8131 60.52 69.1213 61.3069 69.4107" stroke="#871C20" stroke-miterlimit="10" stroke-linecap="round" stroke-linejoin="round"/>
<path d="M49.5034 58.3845C49.799 57.6651 50.314 56.9852 51.0228 56.5558C51.7309 56.1264 52.6321 55.9489 53.4871 56.0539C54.3428 56.1589 55.1528 56.5464 55.7834 57.0933C56.4153 57.6408 56.8672 58.3483 57.139 59.0864" stroke="#871C20" stroke-miterlimit="10" stroke-linecap="round" stroke-linejoin="round"/>
<path d="M70.7983 60.7591C71.1415 60.0472 71.7246 59.3753 72.509 58.9509C73.2927 58.5266 74.2765 58.3503 75.2046 58.4509C76.1334 58.5516 77.0052 58.9303 77.679 59.4678C78.354 60.0066 78.8302 60.7047 79.1065 61.4341" stroke="#871C20" stroke-miterlimit="10" stroke-linecap="round" stroke-linejoin="round"/>
<path d="M70.5187 82.8481C70.4312 83.2394 70.2869 83.6262 70.0963 83.9919C69.9056 84.3575 69.6687 84.7025 69.3906 85.0325C69.1175 85.3569 68.8037 85.6556 68.4581 85.9287C68.1131 86.2019 67.7319 86.4438 67.33 86.655C67.2269 86.7119 67.1188 86.7631 67.0106 86.8094C66.7013 86.9537 66.3825 87.0775 66.0575 87.1856C65.6144 87.33 65.1563 87.4381 64.6925 87.515C64.2238 87.5925 63.75 87.6388 63.2756 87.6544C62.8019 87.67 62.3225 87.6594 61.8487 87.6238C61.3694 87.5875 60.9006 87.5256 60.4319 87.4381C59.9631 87.3506 59.505 87.2319 59.0563 87.0881C58.6181 86.9494 58.2012 86.7844 57.7944 86.5831C57.7837 86.5781 57.7687 86.5731 57.7581 86.5675C57.3406 86.3669 56.9444 86.135 56.5681 85.8825C56.1975 85.625 55.8469 85.3419 55.5275 85.0375C55.2081 84.7338 54.9144 84.4094 54.6569 84.0638C54.3994 83.7238 54.1725 83.3631 53.9819 82.9875C53.7912 82.6112 53.6369 82.225 53.5338 81.8231C53.4306 81.4262 53.3688 81.0244 53.3744 80.6125C53.3794 80.2725 53.4256 79.9325 53.565 79.6131C53.6731 79.3606 53.8481 79.1187 54.08 78.9331C54.25 78.7937 54.4612 78.6806 54.6775 78.5981C54.8987 78.5156 55.1356 78.4587 55.3781 78.4331C55.8569 78.3762 56.3519 78.4331 56.8356 78.5156C57.5569 78.6394 58.2469 78.825 58.9425 78.9894C59.875 79.2106 60.8175 79.4069 61.7756 79.525C62.7288 79.6437 63.7019 79.69 64.655 79.6744C65.4481 79.6694 66.2313 79.6175 67.035 79.6075C67.6788 79.5969 68.3381 79.6125 68.9256 79.8137C69.2912 79.9425 69.6313 80.1431 69.8994 80.3906C69.9506 80.4369 70.0025 80.4888 70.0538 80.545C70.1981 80.7044 70.3163 80.88 70.3988 81.0656C70.5119 81.3181 70.5688 81.5806 70.5894 81.8488C70.6163 82.1838 70.5906 82.5188 70.5187 82.8481Z" fill="#871C20"/>
<path d="M68.7423 85.6905C68.1836 86.0868 66.3823 87.0768 66.0573 87.1849C65.6142 87.3293 65.1561 87.4374 64.6923 87.5143C64.2236 87.5918 63.7498 87.638 63.2754 87.6536C62.8017 87.6693 62.3223 87.6586 61.8486 87.623C61.3692 87.5868 60.9005 87.5249 60.4317 87.4374C59.963 87.3499 59.5048 87.2311 59.0561 87.0874C58.618 86.9486 56.4129 85.9393 55.7842 85.2705C56.6236 84.1118 58.1261 82.8799 62.4436 82.8799C66.4936 82.8799 67.9748 84.4493 68.7423 85.6905Z" fill="url(#paint1_radial_94_722)"/>
<path d="M67.104 82.8126C65.8315 83.477 63.4621 83.7863 61.5508 83.647C59.6452 83.5388 57.1415 82.5739 56.2921 81.7707C55.0533 80.5995 56.2146 78.4907 56.2146 78.4907H56.6115C56.689 78.5063 56.7659 78.5164 56.8384 78.532C57.5596 78.6714 58.2446 78.877 58.9452 79.0626C59.8721 79.3151 60.8152 79.5363 61.7733 79.6707C62.7315 79.7995 63.6996 79.8457 64.6527 79.8301C65.4458 79.8145 66.229 79.7583 67.0377 79.7426C67.254 79.7376 67.4702 79.7376 67.6865 79.7526C67.9177 80.6026 68.2008 82.2407 67.104 82.8126Z" fill="url(#paint2_linear_94_722)" stroke="#871C20" stroke-miterlimit="10"/>
<path d="M70.5187 82.8481C70.4312 83.2394 70.2869 83.6262 70.0963 83.9919C69.9056 84.3575 69.6687 84.7025 69.3906 85.0325C69.1175 85.3569 68.8037 85.6556 68.4581 85.9287C68.1131 86.2019 67.7319 86.4438 67.33 86.655C67.2269 86.7119 67.1188 86.7631 67.0106 86.8094C66.7013 86.9537 66.3825 87.0775 66.0575 87.1856C65.6144 87.33 65.1563 87.4381 64.6925 87.515C64.2238 87.5925 63.75 87.6388 63.2756 87.6544C62.8019 87.67 62.3225 87.6594 61.8487 87.6238C61.3694 87.5875 60.9006 87.5256 60.4319 87.4381C59.9631 87.3506 59.505 87.2319 59.0563 87.0881C58.6181 86.9494 58.2012 86.7844 57.7944 86.5831C57.7837 86.5781 57.7687 86.5731 57.7581 86.5675C57.3406 86.3669 56.9444 86.135 56.5681 85.8825C56.1975 85.625 55.8469 85.3419 55.5275 85.0375C55.2081 84.7338 54.9144 84.4094 54.6569 84.0638C54.3994 83.7238 54.1725 83.3631 53.9819 82.9875C53.7912 82.6112 53.6369 82.225 53.5338 81.8231C53.4306 81.4262 53.3688 81.0244 53.3744 80.6125C53.3794 80.2725 53.4256 79.9325 53.565 79.6131C53.6731 79.3606 53.8481 79.1187 54.08 78.9331C54.25 78.7937 54.4612 78.6806 54.6775 78.5981C54.8987 78.5156 55.1356 78.4587 55.3781 78.4331C55.8569 78.3762 56.3519 78.4331 56.8356 78.5156C57.5569 78.6394 58.2469 78.825 58.9425 78.9894C59.875 79.2106 60.8175 79.4069 61.7756 79.525C62.7288 79.6437 63.7019 79.69 64.655 79.6744C65.4481 79.6694 66.2313 79.6175 67.035 79.6075C67.6788 79.5969 68.3381 79.6125 68.9256 79.8137C69.2912 79.9425 69.6313 80.1431 69.8994 80.3906C69.9506 80.4369 70.0025 80.4888 70.0538 80.545C70.1981 80.7044 70.3163 80.88 70.3988 81.0656C70.5119 81.3181 70.5688 81.5806 70.5894 81.8488C70.6163 82.1838 70.5906 82.5188 70.5187 82.8481Z" stroke="#871C20" stroke-miterlimit="10" stroke-linecap="round" stroke-linejoin="round"/>
<path d="M82.6587 73.4314C81.5662 72.1601 79.9712 71.2695 78.1225 71.0551C75.285 70.7264 72.6644 72.0864 71.3825 74.2995C70.9725 75.0076 69.8156 76.3026 70.6 76.6595C70.8881 76.7908 82.6587 73.4314 82.6587 73.4314Z" fill="#FFD3C0"/>
<path d="M71.2578 74.5003C72.7316 72.2466 75.2847 70.7272 78.1222 71.0559C79.9709 71.2697 81.5659 72.1609 82.6584 73.4322" stroke="#871C20"/>
<path d="M81.0061 75.9987C81.1849 74.4536 79.9684 73.0434 78.2889 72.849C76.6094 72.6546 75.1028 73.7495 74.924 75.2946C74.7451 76.8397 75.9616 78.2499 77.6411 78.4443C79.3207 78.6388 80.8272 77.5438 81.0061 75.9987Z" fill="#FCB7AD"/>
<rect width="111.875" height="26.875" transform="translate(26.875 136.875)" fill="#B4DF8D"/>
</g>
<defs>
<linearGradient id="paint0_linear_94_722" x1="71.5862" y1="156.128" x2="74.8524" y2="65.4905" gradientUnits="userSpaceOnUse">
<stop offset="0.0178" stop-color="#C1EA98"/>
<stop offset="0.248" stop-color="#AFDA88"/>
<stop offset="0.4194" stop-color="#A7D381"/>
<stop offset="0.5936" stop-color="#93CB78"/>
<stop offset="0.9493" stop-color="#5FB861"/>
<stop offset="1" stop-color="#57B55E"/>
</linearGradient>
<radialGradient id="paint1_radial_94_722" cx="0" cy="0" r="1" gradientUnits="userSpaceOnUse" gradientTransform="translate(62.2639 85.2586) scale(7.00401 2.39817)">
<stop stop-color="#ED7F9A"/>
<stop offset="0.353" stop-color="#E77592"/>
<stop offset="0.9496" stop-color="#D85B7E"/>
<stop offset="1" stop-color="#D6587C"/>
</radialGradient>
<linearGradient id="paint2_linear_94_722" x1="62.3322" y1="76.6275" x2="61.4536" y2="83.5921" gradientUnits="userSpaceOnUse">
<stop offset="0.4773" stop-color="#D2CFFF"/>
<stop offset="0.5675" stop-color="#E2E0FF"/>
<stop offset="0.6956" stop-color="#F2F1FF"/>
<stop offset="0.834" stop-color="#FCFCFF"/>
<stop offset="1" stop-color="white"/>
</linearGradient>
<clipPath id="clip0_94_722">
<rect width="150" height="150" rx="75" fill="white"/>
</clipPath>
</defs>
</svg>
