<svg width="150" height="150" viewBox="0 0 150 150" fill="none" xmlns="http://www.w3.org/2000/svg">
<g clip-path="url(#clip0_94_3329)">
<rect width="150" height="150" rx="75" fill="#8677A7"/>
<path d="M100.238 100.039C97.4744 113.115 94.4412 127.068 89.1163 144.121C88.7119 145.469 88.2401 146.884 87.7683 148.3C86.4876 152.209 85.0721 156.321 83.5893 160.567C76.4445 180.317 69.0301 196.359 63.2334 207.817C45.1693 202.492 27.1051 197.167 9.04102 191.843C9.37803 172.228 11.6023 143.784 20.4996 110.824C23.8024 98.7584 28.6554 80.6269 35.4632 63.776C35.935 62.6301 36.4068 61.5517 36.8787 60.4058C45.7085 39.4433 57.5041 21.3118 72.8047 20.2333C85.7462 19.3571 97.9462 30.9505 103.406 40.6566C106.035 45.3074 109.877 54.4069 100.238 100.039Z" fill="#19233D"/>
<path opacity="0.35" d="M89.1168 144.121C88.7124 145.469 88.2406 146.885 87.7688 148.3C86.4881 152.21 85.0726 156.321 83.5897 160.568C76.445 180.317 69.0306 196.359 63.2339 207.818C45.1698 202.493 27.1056 197.168 9.0415 191.843C9.37852 172.229 11.6028 143.784 20.5001 110.824C23.8029 98.7588 28.6559 80.6273 35.4637 63.7764C35.9355 62.6306 36.4073 61.5521 36.8791 60.4062L89.1168 144.121Z" fill="url(#paint0_linear_94_3329)"/>
<path d="M115.942 115.407L110.55 136.505C110.55 136.572 110.482 136.64 110.482 136.64C108.393 142.234 106.371 149.244 105.157 157.467C105.09 158.141 104.955 158.815 104.888 159.489C104.416 163.466 104.146 167.308 104.079 170.948C104.079 171.757 104.079 172.633 104.079 173.442C104.146 179.104 104.685 184.159 105.36 188.608C105.697 190.697 106.101 192.652 106.438 194.404C106.438 194.472 106.438 194.472 106.438 194.539L106.371 194.607C105.831 195.213 104.281 196.898 101.787 198.786C100.911 199.46 99.8999 200.201 98.754 200.942C93.7661 204.178 86.4866 207.346 77.5219 206.874C69.0291 206.47 62.4909 202.965 58.5815 200.201C56.8964 198.988 55.6158 197.909 54.9418 197.235C55.2788 195.955 55.6158 194.741 55.8854 193.595H55.818C56.3572 191.371 56.829 189.282 57.1661 187.26C57.5705 184.833 57.9075 182.541 58.0423 180.452C58.1097 179.441 58.1771 178.43 58.2445 177.419C58.2445 177.149 58.2445 176.947 58.2445 176.677C58.3119 175.666 58.3119 174.723 58.2445 173.779C58.1771 168.454 57.4357 164.41 56.6942 161.444C55.481 156.591 52.3804 147.626 49.2799 139.336C49.2799 139.268 49.2125 139.201 49.2125 139.133C49.1451 138.931 49.0777 138.729 48.9428 138.459C47.3926 134.685 46.3141 131.652 45.6401 129.697C43.3484 123.091 40.787 116.082 41.2589 115.475C43.4158 113.857 45.3705 112.442 47.1229 111.228C47.1229 111.228 47.1229 111.228 47.1904 111.228C48.0666 110.622 48.8754 110.083 49.6843 109.611C51.5716 108.398 53.4589 107.252 55.0092 106.308C55.6158 105.971 56.155 105.634 56.6268 105.297C57.0987 105.027 57.5705 104.758 57.9749 104.488C59.4578 103.612 63.0976 100.983 65.9959 98.287L66.4677 97.8152C67.8832 96.4671 69.0965 95.119 69.7031 94.0406C71.86 90.266 72.7363 86.3566 72.9385 82.6494C73.0733 80.7621 73.0059 78.9422 72.8037 77.1897C72.3318 72.6063 71.0512 68.8317 70.3097 66.8096C76.9827 67.6858 83.723 68.5621 90.396 69.4383C90.1938 71.9322 90.1264 74.6958 90.2612 77.5941C90.396 80.1555 90.6656 82.8516 91.2048 85.5477C91.744 88.1765 92.4855 90.8726 93.5639 93.5688C93.5639 93.6362 93.6313 93.7036 93.6313 93.7036C94.1706 95.0516 94.7772 96.3997 95.5186 97.6804C95.7883 98.1522 96.0579 98.6914 96.3949 99.1632C96.5297 99.3654 96.5971 99.5677 96.7319 99.7699C97.2037 100.444 97.6755 101.118 98.1474 101.792C100.237 104.623 102.192 106.038 104.483 107.386C104.618 107.454 104.82 107.589 104.955 107.656C105.36 107.926 105.764 108.128 106.168 108.398C106.371 108.532 106.505 108.6 106.708 108.735C109.404 110.083 112.235 111.902 115.942 115.407Z" fill="#E6A67F"/>
<path opacity="0.13" d="M93.833 93.5685C91.2717 93.3663 87.9015 92.7596 84.3965 91.2094C78.465 88.648 74.8927 84.806 73.2076 82.7165C73.3424 80.8292 73.275 79.0093 73.0728 77.2568L90.5977 77.6613C90.3954 79.3463 90.328 82.2447 91.5413 85.6149C92.0131 88.2436 92.7546 90.9397 93.833 93.5685Z" fill="#002544"/>
<path opacity="0.25" d="M115.808 115.408L110.415 136.505C110.415 136.572 110.348 136.64 110.348 136.64C108.258 142.234 106.236 149.244 105.023 157.468L65.1201 150.39L95.6539 97.6807C96.4627 99.0961 97.339 100.444 98.2826 101.792C100.372 104.623 102.327 106.039 104.619 107.387C104.753 107.454 104.956 107.589 105.09 107.656C105.495 107.926 105.899 108.128 106.304 108.398C106.506 108.533 106.641 108.6 106.843 108.735C109.269 110.083 112.168 111.903 115.808 115.408Z" fill="url(#paint1_linear_94_3329)"/>
<path opacity="0.64" d="M96.9342 99.7691C95.1143 101.993 91.4071 105.498 85.88 106.644C85.6104 106.509 85.2734 106.375 84.9364 106.375C84.3972 106.375 83.9253 106.577 83.5883 106.981C83.3187 106.981 83.0491 107.049 82.7795 107.049C82.5773 107.049 82.3751 107.049 82.2403 107.049C75.8369 107.049 69.838 103.679 66.2656 98.2863L66.7375 97.8145C70.3098 103.274 76.4435 106.577 82.7795 106.375C89.9916 106.172 94.6425 101.656 96.6646 99.1625C96.6646 99.3647 96.7994 99.5669 96.9342 99.7691Z" fill="white"/>
<path opacity="0.64" d="M85.8807 106.645C85.6111 106.51 85.2741 106.375 84.9371 106.375C84.3979 106.375 83.926 106.577 83.589 106.982C83.252 107.319 83.0498 107.79 83.0498 108.33C83.0498 109.408 83.926 110.217 84.9371 110.217C85.9481 110.217 86.8244 109.341 86.8244 108.33C86.8244 107.588 86.42 106.982 85.8807 106.645Z" fill="white"/>
<path d="M99.562 44.5656C97.4725 44.9701 92.1476 45.7789 86.1487 43.285C78.0603 39.8474 74.8249 32.77 74.1509 31.1523C74.0835 31.1523 74.0161 31.2198 74.0161 31.2198C72.8702 36.275 71.8592 41.5325 70.9155 47.0596C69.4327 55.822 68.4216 64.1126 67.7476 71.9314C71.2525 76.9193 75.836 80.4243 80.352 82.3116C81.6327 82.8508 88.3056 84.8729 93.1587 82.716C101.247 79.211 105.426 63.4386 99.562 44.5656Z" fill="#E6A67F"/>
<path d="M83.3174 55.418C84.2108 55.418 84.9351 54.6937 84.9351 53.8003C84.9351 52.9069 84.2108 52.1826 83.3174 52.1826C82.424 52.1826 81.6997 52.9069 81.6997 53.8003C81.6997 54.6937 82.424 55.418 83.3174 55.418Z" fill="black"/>
<path d="M97.9434 53.4629C98.8368 53.4629 99.5611 52.7386 99.5611 51.8452C99.5611 50.9518 98.8368 50.2275 97.9434 50.2275C97.0499 50.2275 96.3257 50.9518 96.3257 51.8452C96.3257 52.7386 97.0499 53.4629 97.9434 53.4629Z" fill="black"/>
<path d="M91.2715 52.8564C91.9455 54.8785 93.0914 57.3725 95.1135 59.8664C96.6638 61.7537 97.9444 62.6974 97.6748 63.7084C97.4726 64.5847 95.9897 65.3935 91.2715 65.5957C91.2715 61.3493 91.2715 57.1029 91.2715 52.8564Z" fill="#C5856E"/>
<path d="M90.1928 72.7401C89.1818 72.7401 87.9011 72.5379 86.6204 71.9986C83.6547 70.6506 82.4414 68.0892 82.1044 67.0782C82.037 66.876 82.1044 66.6064 82.374 66.539C82.5762 66.4716 82.8458 66.539 82.9132 66.8086C83.1829 67.55 84.2613 69.9765 87.0249 71.2572C89.384 72.3357 91.6757 71.8638 92.4845 71.6616C92.6868 71.5942 92.9564 71.729 92.9564 71.9312C93.0238 72.1334 92.889 72.403 92.6867 72.403C92.2149 72.5379 91.3387 72.7401 90.1928 72.7401Z" fill="black"/>
<path d="M84.3281 44.1614C83.1149 44.4984 81.8342 44.768 80.6209 45.105C79.2055 45.442 77.7226 45.8465 76.3071 46.1835C76.7115 45.7117 78.0596 44.2962 80.3513 43.8244C82.1712 43.4874 83.6541 43.8918 84.3281 44.1614Z" fill="black"/>
<path d="M101.853 48.071C100.639 47.8014 99.3586 47.4643 98.1454 47.1947C96.7299 46.8577 95.247 46.5207 93.8315 46.1162C94.4382 45.914 96.2581 45.3074 98.4824 45.914C100.302 46.4533 101.381 47.5317 101.853 48.071Z" fill="black"/>
<path d="M106.369 194.538C106.369 194.605 106.369 194.673 106.436 194.74C105.83 195.414 103.403 198.043 99.4939 200.672C99.3591 200.806 99.2243 200.874 99.022 201.009C97.4044 202.087 95.5845 203.098 93.5624 204.042C92.6861 204.446 91.8099 204.783 90.8662 205.12C87.0242 206.468 82.5756 207.344 77.5203 207.142C76.6441 207.075 75.7679 207.007 74.959 206.873C74.285 206.805 73.6783 206.67 73.0043 206.603C70.0385 206.064 67.3424 205.12 64.9833 204.109C64.5789 203.907 64.1745 203.705 63.77 203.502C59.928 201.615 57.1645 199.458 55.6142 198.11C55.2772 197.841 55.075 197.638 54.8728 197.436C54.8728 197.436 54.8728 197.436 54.8728 197.369C54.8728 197.301 54.9402 197.301 54.9402 197.234C55.1424 196.493 55.3446 195.818 55.5468 195.144C55.6816 194.605 55.8164 194.066 55.9512 193.594C57.1645 188.741 57.8385 184.36 58.1755 180.45C58.2429 179.439 58.3104 178.428 58.3778 177.417C58.3778 177.148 58.3778 176.945 58.3778 176.676C58.4452 175.665 58.4452 174.721 58.3778 173.778C58.3104 168.587 57.5689 164.611 56.8275 161.712C56.8275 161.645 56.8275 161.645 56.8275 161.577C56.8275 161.577 56.8275 161.578 56.8275 161.51V161.443C56.7601 161.241 56.6927 161.038 56.6253 160.769C56.5579 160.634 56.5579 160.432 56.4905 160.229C56.423 159.96 56.3557 159.758 56.2882 159.488C56.2882 159.353 56.2208 159.286 56.2208 159.151C56.1534 159.016 56.1534 158.814 56.086 158.679C56.0186 158.477 55.9512 158.207 55.8838 158.005C55.8838 157.938 55.8838 157.938 55.8164 157.87C55.749 157.601 55.6816 157.331 55.5468 157.061C55.4794 156.859 55.412 156.657 55.3446 156.387C55.075 155.579 54.8054 154.837 54.5358 153.961C54.5358 153.894 54.5357 153.893 54.4683 153.826C54.3335 153.489 54.2661 153.152 54.1313 152.882C54.1313 152.815 54.1313 152.815 54.0639 152.748L53.9291 152.411V152.343C53.5247 151.265 53.1877 150.119 52.7833 148.906C52.581 148.366 52.4463 147.895 52.244 147.355C51.3678 144.727 50.3567 142.098 49.4131 139.469L49.4805 139.402C50.3567 138.728 51.1656 138.121 52.0418 137.514C52.4463 137.177 52.8507 136.908 53.3225 136.638C53.7943 136.369 54.1313 136.032 54.6032 135.762C54.738 135.627 54.9402 135.56 55.075 135.425C55.2772 135.29 55.412 135.155 55.6142 135.088C56.1534 134.751 56.6253 134.414 57.0971 134.077C57.3667 133.875 57.7037 133.672 57.9733 133.538C58.1081 133.47 58.1755 133.403 58.3104 133.335C58.6474 133.133 59.0518 132.864 59.3888 132.661C59.7932 132.392 60.1976 132.19 60.5347 131.987C61.2087 131.583 61.8827 131.246 62.5568 130.909C62.8264 130.774 63.1634 130.572 63.433 130.437C63.5004 130.437 63.5004 130.37 63.5678 130.37H63.6352C63.77 130.302 63.8374 130.235 63.9722 130.235C64.3093 130.1 64.5789 129.898 64.9159 129.763C64.9833 129.696 65.0507 129.696 65.1855 129.628C65.3877 129.493 65.6573 129.426 65.8595 129.291C66.0618 129.156 66.3314 129.089 66.5336 128.954C67.0054 128.752 67.4098 128.55 67.8817 128.348C68.2861 128.145 68.7579 128.011 69.1623 127.808C69.3645 127.741 69.5667 127.674 69.7015 127.606C69.9711 127.539 70.1734 127.404 70.443 127.337C70.7126 127.202 71.0496 127.134 71.3192 127C71.6562 126.865 71.9932 126.797 72.3303 126.663C72.4651 126.595 72.6673 126.528 72.8021 126.528C72.9369 126.46 73.1391 126.46 73.2739 126.393C73.6784 126.258 74.0828 126.191 74.4198 126.056C74.8242 125.921 75.2286 125.854 75.5656 125.719C75.7679 125.651 76.0375 125.584 76.2397 125.584C76.6441 125.449 77.0485 125.382 77.5203 125.314C77.7226 125.247 77.9922 125.247 78.1944 125.18C78.464 125.112 78.6662 125.112 78.9358 125.045C79.0706 125.045 79.2728 124.977 79.4076 124.977C79.5424 124.977 79.7447 124.91 79.8795 124.91C80.0143 124.91 80.2165 124.843 80.3513 124.843C80.4861 124.843 80.6883 124.775 80.8231 124.775C81.1601 124.708 81.4297 124.708 81.7668 124.64C82.1038 124.64 82.3734 124.573 82.643 124.573C82.7778 124.573 82.98 124.573 83.1148 124.573C83.2496 124.573 83.317 124.573 83.4518 124.573H83.5192C86.0806 124.438 88.5071 124.573 90.7314 124.977C91.001 125.045 91.2707 125.045 91.4729 125.112C91.6751 125.18 91.9447 125.18 92.1469 125.247C92.2143 125.247 92.2143 125.247 92.2817 125.247C92.4839 125.314 92.6861 125.314 92.8883 125.382C93.1579 125.449 93.4276 125.517 93.6298 125.584C93.6972 125.584 93.6972 125.584 93.7646 125.584C94.0342 125.651 94.3038 125.719 94.506 125.786C94.7756 125.854 95.1126 125.988 95.3823 126.056C95.5845 126.123 95.7867 126.191 95.9889 126.258C96.1237 126.326 96.2585 126.326 96.3259 126.393C96.3259 126.393 96.3259 126.393 96.3933 126.393C96.5281 126.46 96.5955 126.46 96.7303 126.528C96.8651 126.595 96.9999 126.595 97.0673 126.663C97.4044 126.797 97.7414 126.932 98.0784 127.067C98.4154 127.202 98.7524 127.404 99.0895 127.539C99.2243 127.606 99.4265 127.674 99.5613 127.808C99.6961 127.876 99.8983 127.943 100.033 128.078C100.168 128.145 100.303 128.213 100.505 128.348C100.775 128.482 101.112 128.685 101.381 128.887C101.516 128.954 101.651 129.089 101.786 129.156C101.853 129.224 101.92 129.224 101.988 129.291C102.325 129.493 102.662 129.696 102.999 129.965C103.134 130.1 103.336 130.168 103.471 130.302C104.077 130.707 104.617 131.179 105.156 131.583C105.358 131.785 105.56 131.92 105.762 132.122C105.965 132.324 106.167 132.459 106.369 132.661C106.571 132.864 106.706 132.998 106.908 133.201C106.976 133.268 107.11 133.335 107.178 133.47C107.245 133.538 107.313 133.605 107.447 133.74C107.582 133.875 107.785 134.077 107.919 134.212C108.054 134.347 108.189 134.549 108.324 134.684C108.391 134.751 108.459 134.818 108.526 134.886C108.593 134.953 108.661 135.021 108.728 135.088C108.796 135.155 108.863 135.223 108.93 135.29C109.065 135.425 109.133 135.56 109.267 135.695C109.402 135.829 109.47 135.964 109.604 136.099C109.672 136.166 109.739 136.234 109.807 136.301C110.009 136.571 110.211 136.84 110.346 137.043L110.413 137.11C108.189 143.176 105.965 150.928 104.819 160.095C104.347 164.004 104.077 167.779 104.01 171.351C104.01 172.16 104.01 173.036 104.01 173.845C104.01 174.856 104.01 175.8 104.077 176.743C104.077 176.811 104.077 176.811 104.077 176.878C104.077 177.35 104.145 177.889 104.145 178.361C104.145 178.833 104.212 179.372 104.212 179.844C104.28 181.259 104.414 182.675 104.549 184.023C104.617 184.495 104.684 184.967 104.684 185.371C104.751 185.775 104.751 186.18 104.819 186.584C104.886 186.921 104.954 187.326 104.954 187.663C105.021 188 105.088 188.404 105.088 188.741C105.223 189.483 105.291 190.157 105.425 190.831C105.493 191.168 105.56 191.505 105.628 191.842C105.695 192.111 105.695 192.381 105.762 192.583C105.83 192.92 105.897 193.325 105.965 193.662C105.965 193.729 105.965 193.796 106.032 193.864C106.099 194.133 106.167 194.403 106.167 194.673C106.369 194.403 106.369 194.47 106.369 194.538Z" fill="#8677A7"/>
<path d="M57.0978 134.01C57.0304 134.751 56.3564 135.425 55.4801 135.425C55.3453 135.425 55.2105 135.425 55.0083 135.358C55.2105 135.223 55.3453 135.088 55.5475 135.021C56.0868 134.616 56.5586 134.279 57.0978 134.01Z" fill="#004E5A"/>
<path d="M55.4795 144.322C56.3729 144.322 57.0972 143.658 57.0972 142.839C57.0972 142.02 56.3729 141.356 55.4795 141.356C54.5861 141.356 53.8618 142.02 53.8618 142.839C53.8618 143.658 54.5861 144.322 55.4795 144.322Z" fill="#87AEB4"/>
<path d="M65.0518 132.392C65.9452 132.392 66.6694 131.729 66.6694 130.91C66.6694 130.091 65.9452 129.427 65.0518 129.427C64.1583 129.427 63.4341 130.091 63.4341 130.91C63.4341 131.729 64.1583 132.392 65.0518 132.392Z" fill="#87AEB4"/>
<path d="M65.0518 141.356C65.9452 141.356 66.6694 140.692 66.6694 139.874C66.6694 139.055 65.9452 138.391 65.0518 138.391C64.1583 138.391 63.4341 139.055 63.4341 139.874C63.4341 140.692 64.1583 141.356 65.0518 141.356Z" fill="#004E5A"/>
<path d="M65.0518 150.321C65.9452 150.321 66.6694 149.657 66.6694 148.838C66.6694 148.019 65.9452 147.355 65.0518 147.355C64.1583 147.355 63.4341 148.019 63.4341 148.838C63.4341 149.657 64.1583 150.321 65.0518 150.321Z" fill="#87AEB4"/>
<path d="M75.7004 125.517C75.4308 126.056 74.8916 126.393 74.2176 126.393C73.8805 126.393 73.6109 126.325 73.3413 126.123C73.7457 125.988 74.1502 125.921 74.4872 125.786C74.8916 125.719 75.296 125.651 75.7004 125.517Z" fill="#87AEB4"/>
<path d="M74.2183 135.357C75.1117 135.357 75.8359 134.693 75.8359 133.874C75.8359 133.056 75.1117 132.392 74.2183 132.392C73.3248 132.392 72.6006 133.056 72.6006 133.874C72.6006 134.693 73.3248 135.357 74.2183 135.357Z" fill="#004E5A"/>
<path d="M74.2183 144.322C75.1117 144.322 75.8359 143.658 75.8359 142.839C75.8359 142.02 75.1117 141.356 74.2183 141.356C73.3248 141.356 72.6006 142.02 72.6006 142.839C72.6006 143.658 73.3248 144.322 74.2183 144.322Z" fill="#87AEB4"/>
<path d="M83.3848 131.987C84.2782 131.987 85.0025 131.323 85.0025 130.504C85.0025 129.685 84.2782 129.021 83.3848 129.021C82.4914 129.021 81.7671 129.685 81.7671 130.504C81.7671 131.323 82.4914 131.987 83.3848 131.987Z" fill="#87AEB4"/>
<path d="M83.3848 140.952C84.2782 140.952 85.0025 140.288 85.0025 139.469C85.0025 138.65 84.2782 137.986 83.3848 137.986C82.4914 137.986 81.7671 138.65 81.7671 139.469C81.7671 140.288 82.4914 140.952 83.3848 140.952Z" fill="#004E5A"/>
<path d="M83.3848 149.917C84.2782 149.917 85.0025 149.253 85.0025 148.434C85.0025 147.615 84.2782 146.951 83.3848 146.951C82.4914 146.951 81.7671 147.615 81.7671 148.434C81.7671 149.253 82.4914 149.917 83.3848 149.917Z" fill="#87AEB4"/>
<path d="M93.8325 125.315C93.5629 125.719 93.091 125.989 92.4844 125.989C91.6756 125.989 91.0015 125.382 90.8667 124.641C91.1363 124.708 91.4059 124.708 91.6081 124.775C91.8104 124.843 92.08 124.843 92.2822 124.91C92.3496 124.91 92.3496 124.91 92.417 124.91C92.6192 124.978 92.8214 124.978 93.0236 125.045C93.3606 125.18 93.5629 125.247 93.8325 125.315Z" fill="#87AEB4"/>
<path d="M92.4844 134.953C93.3778 134.953 94.1021 134.289 94.1021 133.47C94.1021 132.651 93.3778 131.987 92.4844 131.987C91.591 131.987 90.8667 132.651 90.8667 133.47C90.8667 134.289 91.591 134.953 92.4844 134.953Z" fill="#004E5A"/>
<path d="M92.4844 143.918C93.3778 143.918 94.1021 143.254 94.1021 142.435C94.1021 141.616 93.3778 140.952 92.4844 140.952C91.591 140.952 90.8667 141.616 90.8667 142.435C90.8667 143.254 91.591 143.918 92.4844 143.918Z" fill="#87AEB4"/>
<path d="M92.4844 152.883C93.3778 152.883 94.1021 152.219 94.1021 151.4C94.1021 150.581 93.3778 149.917 92.4844 149.917C91.591 149.917 90.8667 150.581 90.8667 151.4C90.8667 152.219 91.591 152.883 92.4844 152.883Z" fill="#004E5A"/>
<path d="M102.123 131.987C103.016 131.987 103.741 131.323 103.741 130.504C103.741 129.685 103.016 129.021 102.123 129.021C101.23 129.021 100.505 129.685 100.505 130.504C100.505 131.323 101.23 131.987 102.123 131.987Z" fill="#87AEB4"/>
<path d="M102.123 140.952C103.016 140.952 103.741 140.288 103.741 139.469C103.741 138.65 103.016 137.986 102.123 137.986C101.23 137.986 100.505 138.65 100.505 139.469C100.505 140.288 101.23 140.952 102.123 140.952Z" fill="#004E5A"/>
<path d="M102.123 149.917C103.016 149.917 103.741 149.253 103.741 148.434C103.741 147.615 103.016 146.951 102.123 146.951C101.23 146.951 100.505 147.615 100.505 148.434C100.505 149.253 101.23 149.917 102.123 149.917Z" fill="#87AEB4"/>
<path d="M70.5106 133.875C70.4432 133.942 70.3084 133.942 70.241 133.942C69.8366 134.01 69.4321 133.808 69.2299 133.403L55.1426 106.172C55.7492 105.835 56.2885 105.498 56.7603 105.161L70.8476 132.392C71.1172 132.999 70.9824 133.605 70.5106 133.875Z" fill="#8677A7"/>
<path d="M106.369 108.397L99.6958 134.819C99.4262 134.617 99.224 134.415 98.9544 134.212C98.8196 134.078 98.6848 133.943 98.4826 133.808C98.3478 133.673 98.213 133.538 98.0107 133.471L104.616 107.386L106.369 108.397Z" fill="#8677A7"/>
<path opacity="0.42" d="M106.37 194.538C106.37 194.606 106.37 194.673 106.438 194.74C105.831 195.482 103.405 198.043 99.4951 200.672L83.5879 202.02C86.0144 191.64 88.1713 177.957 88.0365 161.847C87.9017 146.951 85.8796 134.145 83.5879 124.236C86.5536 124.034 91.5415 124.169 97.0012 126.326C104.955 129.494 109.269 135.088 110.347 136.639L110.414 136.706C108.19 142.772 105.966 150.524 104.82 159.691C104.348 163.6 104.079 167.375 104.011 170.947C104.011 171.756 104.011 172.632 104.011 173.441C104.079 181.732 105.157 188.809 106.303 194.269C106.37 194.403 106.37 194.471 106.37 194.538Z" fill="url(#paint2_linear_94_3329)"/>
<path d="M66.4009 193.123L42.0682 194.741L37.0804 195.078L41.529 144.727C35.9345 149.783 9.91681 172.767 -4.91196 170.408C-6.32743 170.206 -7.67552 169.734 -8.88878 168.993C-13.7418 165.959 -14.1462 159.758 -21.628 122.417C-22.3021 119.114 -22.9087 116.013 -23.5153 113.182C-23.7175 112.104 -23.9197 111.093 -24.1219 110.082C-24.8634 106.375 -25.5374 103.274 -26.0767 100.848V100.78C-25.9419 100.645 -22.4369 99.1626 -20.3474 98.2189C-20.0103 98.0841 -19.7407 97.9493 -19.5385 97.8145C-19.4037 97.7471 -19.2689 97.6797 -19.2015 97.6123C-19.1341 97.6797 -19.1341 97.7471 -19.0667 97.8145C-18.9993 97.9493 -18.9319 98.0167 -18.8645 98.1515C-17.112 100.713 -14.9551 104.15 -12.7308 108.397C-1.40698 130.303 -4.10313 144.997 1.96318 146.682C7.15325 148.097 11.7367 138.054 26.8351 123.697C35.7323 115.272 44.1577 109.273 50.4263 105.229C55.7511 134.482 61.076 163.803 66.4009 193.123Z" fill="#BDD3DE"/>
<path d="M186.917 101.319C185.906 106.105 184.356 113.722 182.469 123.023C179.571 137.515 177.683 147.356 176.268 154.096C174.043 164.342 172.763 167.51 169.999 169.397C169.932 169.464 169.797 169.532 169.73 169.599C162.383 174.182 149.98 168.251 139.196 161.039C130.096 154.972 122.143 147.895 119.312 145.334C120.795 152.142 122.278 158.949 123.76 165.757C122.547 166.229 121.267 166.701 119.986 167.24C117.694 168.184 115.335 169.195 112.909 170.206C108.662 172.093 104.618 173.98 100.776 175.935C100.978 165.42 101.652 153.961 103 141.627C104.483 128.348 106.64 116.148 109.066 105.161C115.672 109.34 124.502 115.609 133.938 124.304C148.835 138.054 154.025 147.558 158.81 146.008C165.079 143.918 160.293 126.056 171.819 107.183C172.358 106.307 172.898 105.431 173.504 104.555C174.717 102.802 175.863 101.319 176.874 100.173C177.548 99.3646 178.155 98.6906 178.627 98.2188C179.099 98.421 179.638 98.6232 180.11 98.8254C182.334 99.7016 184.558 100.51 186.783 101.387C186.85 101.252 186.917 101.252 186.917 101.319Z" fill="#BDD3DE"/>
<path opacity="0.36" d="M49.2129 160.634C49.2129 167.847 44.9664 184.495 42.1355 194.741L37.1476 195.078L41.5963 144.727C36.0018 149.783 9.98404 172.767 -4.84473 170.408C3.64811 160.769 20.836 144.121 33.3056 140.953C50.4935 136.369 49.2129 149.783 49.2129 160.634Z" fill="url(#paint3_linear_94_3329)"/>
<path opacity="0.36" d="M170 169.33C169.933 169.397 169.798 169.465 169.731 169.532C162.384 174.116 149.981 168.184 139.197 160.972C130.097 154.906 122.144 147.828 119.313 145.267C120.796 152.075 122.279 158.882 123.761 165.69C122.548 166.162 121.268 166.634 119.987 167.173C116.347 161.039 109 147.019 112.91 140.212C117.358 132.528 158.609 161.242 170 169.33Z" fill="url(#paint4_linear_94_3329)"/>
</g>
<defs>
<linearGradient id="paint0_linear_94_3329" x1="9.01542" y1="134.136" x2="89.1144" y2="134.136" gradientUnits="userSpaceOnUse">
<stop stop-color="#153E5C"/>
<stop offset="1" stop-color="#271C41"/>
</linearGradient>
<linearGradient id="paint1_linear_94_3329" x1="104.376" y1="94.7219" x2="88.2574" y2="144.287" gradientUnits="userSpaceOnUse">
<stop offset="0.1545" stop-color="#691B26"/>
<stop offset="0.5166" stop-color="#CD907F" stop-opacity="0.5"/>
</linearGradient>
<linearGradient id="paint2_linear_94_3329" x1="83.6281" y1="163.14" x2="110.445" y2="163.14" gradientUnits="userSpaceOnUse">
<stop stop-color="#9776A6"/>
<stop offset="1" stop-color="#271C41"/>
</linearGradient>
<linearGradient id="paint3_linear_94_3329" x1="-4.8818" y1="167.498" x2="49.2126" y2="167.498" gradientUnits="userSpaceOnUse">
<stop stop-color="#153E5C"/>
<stop offset="0.9956" stop-color="#AAC0DC"/>
</linearGradient>
<linearGradient id="paint4_linear_94_3329" x1="111.849" y1="155.019" x2="170.003" y2="155.019" gradientUnits="userSpaceOnUse">
<stop stop-color="#153E5C"/>
<stop offset="0.9956" stop-color="#AAC0DC"/>
</linearGradient>
<clipPath id="clip0_94_3329">
<rect width="150" height="150" rx="75" fill="white"/>
</clipPath>
</defs>
</svg>
