<svg width="24" height="24" viewBox="0 0 24 24" fill="none" xmlns="http://www.w3.org/2000/svg">
<path fill-rule="evenodd" clip-rule="evenodd" d="M11.671 4.03509C11.3962 5.88855 11.0509 8.77813 12.919 12.0138C14.7871 15.2495 17.4622 16.3953 19.2048 17.084C19.265 17.1078 19.3251 17.1314 19.3848 17.1549C19.7454 17.2966 20.0924 17.4331 20.3618 17.5669C20.5217 17.6464 20.692 17.7428 20.8396 17.8633C20.9847 17.9818 21.1627 18.168 21.2467 18.4405C21.4376 19.0597 21.0139 19.5299 20.7542 19.7661C20.4456 20.0467 19.979 20.3507 19.3766 20.6986C14.2349 23.6671 7.66031 21.9055 4.69178 16.7638C1.72325 11.6222 3.48491 5.04758 8.62655 2.07905C9.22904 1.7312 9.7256 1.47913 10.1229 1.35222C10.4573 1.24542 11.0763 1.11358 11.5172 1.5885C11.7112 1.79755 11.7834 2.04475 11.8135 2.22966C11.8441 2.41776 11.8424 2.61346 11.8313 2.7916C11.8125 3.09184 11.7571 3.46063 11.6996 3.84375C11.6901 3.90722 11.6805 3.97108 11.671 4.03509ZM10.3181 2.88293C10.0913 2.98326 9.7851 3.14221 9.37655 3.37809C4.95234 5.9324 3.4365 11.5896 5.99082 16.0138C8.54513 20.438 14.2023 21.9539 18.6266 19.3996C19.0351 19.1637 19.3258 18.978 19.5262 18.8317C19.3446 18.7513 19.1208 18.6631 18.8442 18.5542C18.7832 18.5302 18.7197 18.5052 18.6534 18.479C16.8343 17.76 13.7519 16.4563 11.62 12.7638C9.48811 9.07131 9.90031 5.75005 10.1872 3.81508C10.1977 3.74466 10.2078 3.67713 10.2175 3.61234C10.2614 3.31827 10.297 3.08039 10.3181 2.88293ZM10.7181 2.748C10.7177 2.74855 10.7108 2.74968 10.699 2.74974C10.7126 2.74748 10.7186 2.74745 10.7181 2.748ZM19.832 18.5684C19.8379 18.5582 19.8423 18.5529 19.843 18.5528C19.8437 18.5527 19.8407 18.5577 19.832 18.5684Z" fill="#E2E2E2"/>
</svg>
